G04 #@! TF.GenerationSoftware,KiCad,Pcbnew,7.0.7*
G04 #@! TF.CreationDate,2023-11-30T18:24:32+01:00*
G04 #@! TF.ProjectId,10K_RNet,31304b5f-524e-4657-942e-6b696361645f,rev?*
G04 #@! TF.SameCoordinates,Original*
G04 #@! TF.FileFunction,Legend,Top*
G04 #@! TF.FilePolarity,Positive*
%FSLAX46Y46*%
G04 Gerber Fmt 4.6, Leading zero omitted, Abs format (unit mm)*
G04 Created by KiCad (PCBNEW 7.0.7) date 2023-11-30 18:24:32*
%MOMM*%
%LPD*%
G01*
G04 APERTURE LIST*
G04 Aperture macros list*
%AMRoundRect*
0 Rectangle with rounded corners*
0 $1 Rounding radius*
0 $2 $3 $4 $5 $6 $7 $8 $9 X,Y pos of 4 corners*
0 Add a 4 corners polygon primitive as box body*
4,1,4,$2,$3,$4,$5,$6,$7,$8,$9,$2,$3,0*
0 Add four circle primitives for the rounded corners*
1,1,$1+$1,$2,$3*
1,1,$1+$1,$4,$5*
1,1,$1+$1,$6,$7*
1,1,$1+$1,$8,$9*
0 Add four rect primitives between the rounded corners*
20,1,$1+$1,$2,$3,$4,$5,0*
20,1,$1+$1,$4,$5,$6,$7,0*
20,1,$1+$1,$6,$7,$8,$9,0*
20,1,$1+$1,$8,$9,$2,$3,0*%
G04 Aperture macros list end*
%ADD10C,0.150000*%
%ADD11C,0.120000*%
%ADD12RoundRect,0.237500X-0.250000X-0.237500X0.250000X-0.237500X0.250000X0.237500X-0.250000X0.237500X0*%
%ADD13RoundRect,0.275000X-1.225000X-0.275000X1.225000X-0.275000X1.225000X0.275000X-1.225000X0.275000X0*%
G04 APERTURE END LIST*
D10*
X76908207Y-85774580D02*
X76860588Y-85822200D01*
X76860588Y-85822200D02*
X76717731Y-85869819D01*
X76717731Y-85869819D02*
X76622493Y-85869819D01*
X76622493Y-85869819D02*
X76479636Y-85822200D01*
X76479636Y-85822200D02*
X76384398Y-85726961D01*
X76384398Y-85726961D02*
X76336779Y-85631723D01*
X76336779Y-85631723D02*
X76289160Y-85441247D01*
X76289160Y-85441247D02*
X76289160Y-85298390D01*
X76289160Y-85298390D02*
X76336779Y-85107914D01*
X76336779Y-85107914D02*
X76384398Y-85012676D01*
X76384398Y-85012676D02*
X76479636Y-84917438D01*
X76479636Y-84917438D02*
X76622493Y-84869819D01*
X76622493Y-84869819D02*
X76717731Y-84869819D01*
X76717731Y-84869819D02*
X76860588Y-84917438D01*
X76860588Y-84917438D02*
X76908207Y-84965057D01*
X77479636Y-85869819D02*
X77384398Y-85822200D01*
X77384398Y-85822200D02*
X77336779Y-85774580D01*
X77336779Y-85774580D02*
X77289160Y-85679342D01*
X77289160Y-85679342D02*
X77289160Y-85393628D01*
X77289160Y-85393628D02*
X77336779Y-85298390D01*
X77336779Y-85298390D02*
X77384398Y-85250771D01*
X77384398Y-85250771D02*
X77479636Y-85203152D01*
X77479636Y-85203152D02*
X77622493Y-85203152D01*
X77622493Y-85203152D02*
X77717731Y-85250771D01*
X77717731Y-85250771D02*
X77765350Y-85298390D01*
X77765350Y-85298390D02*
X77812969Y-85393628D01*
X77812969Y-85393628D02*
X77812969Y-85679342D01*
X77812969Y-85679342D02*
X77765350Y-85774580D01*
X77765350Y-85774580D02*
X77717731Y-85822200D01*
X77717731Y-85822200D02*
X77622493Y-85869819D01*
X77622493Y-85869819D02*
X77479636Y-85869819D01*
X78241541Y-85203152D02*
X78241541Y-85869819D01*
X78241541Y-85298390D02*
X78289160Y-85250771D01*
X78289160Y-85250771D02*
X78384398Y-85203152D01*
X78384398Y-85203152D02*
X78527255Y-85203152D01*
X78527255Y-85203152D02*
X78622493Y-85250771D01*
X78622493Y-85250771D02*
X78670112Y-85346009D01*
X78670112Y-85346009D02*
X78670112Y-85869819D01*
X79003446Y-85203152D02*
X79384398Y-85203152D01*
X79146303Y-85869819D02*
X79146303Y-85012676D01*
X79146303Y-85012676D02*
X79193922Y-84917438D01*
X79193922Y-84917438D02*
X79289160Y-84869819D01*
X79289160Y-84869819D02*
X79384398Y-84869819D01*
X79717732Y-85869819D02*
X79717732Y-85203152D01*
X79717732Y-84869819D02*
X79670113Y-84917438D01*
X79670113Y-84917438D02*
X79717732Y-84965057D01*
X79717732Y-84965057D02*
X79765351Y-84917438D01*
X79765351Y-84917438D02*
X79717732Y-84869819D01*
X79717732Y-84869819D02*
X79717732Y-84965057D01*
X80622493Y-85203152D02*
X80622493Y-86012676D01*
X80622493Y-86012676D02*
X80574874Y-86107914D01*
X80574874Y-86107914D02*
X80527255Y-86155533D01*
X80527255Y-86155533D02*
X80432017Y-86203152D01*
X80432017Y-86203152D02*
X80289160Y-86203152D01*
X80289160Y-86203152D02*
X80193922Y-86155533D01*
X80622493Y-85822200D02*
X80527255Y-85869819D01*
X80527255Y-85869819D02*
X80336779Y-85869819D01*
X80336779Y-85869819D02*
X80241541Y-85822200D01*
X80241541Y-85822200D02*
X80193922Y-85774580D01*
X80193922Y-85774580D02*
X80146303Y-85679342D01*
X80146303Y-85679342D02*
X80146303Y-85393628D01*
X80146303Y-85393628D02*
X80193922Y-85298390D01*
X80193922Y-85298390D02*
X80241541Y-85250771D01*
X80241541Y-85250771D02*
X80336779Y-85203152D01*
X80336779Y-85203152D02*
X80527255Y-85203152D01*
X80527255Y-85203152D02*
X80622493Y-85250771D01*
X81860589Y-85869819D02*
X81860589Y-85203152D01*
X81860589Y-85298390D02*
X81908208Y-85250771D01*
X81908208Y-85250771D02*
X82003446Y-85203152D01*
X82003446Y-85203152D02*
X82146303Y-85203152D01*
X82146303Y-85203152D02*
X82241541Y-85250771D01*
X82241541Y-85250771D02*
X82289160Y-85346009D01*
X82289160Y-85346009D02*
X82289160Y-85869819D01*
X82289160Y-85346009D02*
X82336779Y-85250771D01*
X82336779Y-85250771D02*
X82432017Y-85203152D01*
X82432017Y-85203152D02*
X82574874Y-85203152D01*
X82574874Y-85203152D02*
X82670113Y-85250771D01*
X82670113Y-85250771D02*
X82717732Y-85346009D01*
X82717732Y-85346009D02*
X82717732Y-85869819D01*
X83622493Y-85869819D02*
X83622493Y-85346009D01*
X83622493Y-85346009D02*
X83574874Y-85250771D01*
X83574874Y-85250771D02*
X83479636Y-85203152D01*
X83479636Y-85203152D02*
X83289160Y-85203152D01*
X83289160Y-85203152D02*
X83193922Y-85250771D01*
X83622493Y-85822200D02*
X83527255Y-85869819D01*
X83527255Y-85869819D02*
X83289160Y-85869819D01*
X83289160Y-85869819D02*
X83193922Y-85822200D01*
X83193922Y-85822200D02*
X83146303Y-85726961D01*
X83146303Y-85726961D02*
X83146303Y-85631723D01*
X83146303Y-85631723D02*
X83193922Y-85536485D01*
X83193922Y-85536485D02*
X83289160Y-85488866D01*
X83289160Y-85488866D02*
X83527255Y-85488866D01*
X83527255Y-85488866D02*
X83622493Y-85441247D01*
X83955827Y-85203152D02*
X84336779Y-85203152D01*
X84098684Y-84869819D02*
X84098684Y-85726961D01*
X84098684Y-85726961D02*
X84146303Y-85822200D01*
X84146303Y-85822200D02*
X84241541Y-85869819D01*
X84241541Y-85869819D02*
X84336779Y-85869819D01*
X84670113Y-85869819D02*
X84670113Y-85203152D01*
X84670113Y-85393628D02*
X84717732Y-85298390D01*
X84717732Y-85298390D02*
X84765351Y-85250771D01*
X84765351Y-85250771D02*
X84860589Y-85203152D01*
X84860589Y-85203152D02*
X84955827Y-85203152D01*
X85289161Y-85869819D02*
X85289161Y-85203152D01*
X85289161Y-84869819D02*
X85241542Y-84917438D01*
X85241542Y-84917438D02*
X85289161Y-84965057D01*
X85289161Y-84965057D02*
X85336780Y-84917438D01*
X85336780Y-84917438D02*
X85289161Y-84869819D01*
X85289161Y-84869819D02*
X85289161Y-84965057D01*
X85670113Y-85869819D02*
X86193922Y-85203152D01*
X85670113Y-85203152D02*
X86193922Y-85869819D01*
D11*
X91545276Y-70477500D02*
X92054724Y-70477500D01*
X91545276Y-71522500D02*
X92054724Y-71522500D01*
X94745276Y-74077500D02*
X95254724Y-74077500D01*
X94745276Y-75122500D02*
X95254724Y-75122500D01*
X94695276Y-69277500D02*
X95204724Y-69277500D01*
X94695276Y-70322500D02*
X95204724Y-70322500D01*
X91445276Y-75477500D02*
X91954724Y-75477500D01*
X91445276Y-76522500D02*
X91954724Y-76522500D01*
X94745276Y-79277500D02*
X95254724Y-79277500D01*
X94745276Y-80322500D02*
X95254724Y-80322500D01*
X91545276Y-72877500D02*
X92054724Y-72877500D01*
X91545276Y-73922500D02*
X92054724Y-73922500D01*
X89490000Y-68775000D02*
X89490000Y-69010000D01*
X89490000Y-69010000D02*
X87675000Y-69010000D01*
X89490000Y-81795000D02*
X89490000Y-81560000D01*
X93350000Y-68775000D02*
X89490000Y-68775000D01*
X93350000Y-68775000D02*
X97210000Y-68775000D01*
X93350000Y-81795000D02*
X89490000Y-81795000D01*
X93350000Y-81795000D02*
X97210000Y-81795000D01*
X97210000Y-68775000D02*
X97210000Y-69010000D01*
X97210000Y-81795000D02*
X97210000Y-81560000D01*
X94745276Y-71677500D02*
X95254724Y-71677500D01*
X94745276Y-72722500D02*
X95254724Y-72722500D01*
X91445276Y-77877500D02*
X91954724Y-77877500D01*
X91445276Y-78922500D02*
X91954724Y-78922500D01*
X91445276Y-80477500D02*
X91954724Y-80477500D01*
X91445276Y-81522500D02*
X91954724Y-81522500D01*
X94695276Y-76677500D02*
X95204724Y-76677500D01*
X94695276Y-77722500D02*
X95204724Y-77722500D01*
X78545276Y-70477500D02*
X79054724Y-70477500D01*
X78545276Y-71522500D02*
X79054724Y-71522500D01*
X81745276Y-74077500D02*
X82254724Y-74077500D01*
X81745276Y-75122500D02*
X82254724Y-75122500D01*
X81695276Y-69277500D02*
X82204724Y-69277500D01*
X81695276Y-70322500D02*
X82204724Y-70322500D01*
X78445276Y-75477500D02*
X78954724Y-75477500D01*
X78445276Y-76522500D02*
X78954724Y-76522500D01*
X81745276Y-79277500D02*
X82254724Y-79277500D01*
X81745276Y-80322500D02*
X82254724Y-80322500D01*
X78545276Y-72877500D02*
X79054724Y-72877500D01*
X78545276Y-73922500D02*
X79054724Y-73922500D01*
X76490000Y-68775000D02*
X76490000Y-69010000D01*
X76490000Y-69010000D02*
X74675000Y-69010000D01*
X76490000Y-81795000D02*
X76490000Y-81560000D01*
X80350000Y-68775000D02*
X76490000Y-68775000D01*
X80350000Y-68775000D02*
X84210000Y-68775000D01*
X80350000Y-81795000D02*
X76490000Y-81795000D01*
X80350000Y-81795000D02*
X84210000Y-81795000D01*
X84210000Y-68775000D02*
X84210000Y-69010000D01*
X84210000Y-81795000D02*
X84210000Y-81560000D01*
X81745276Y-71677500D02*
X82254724Y-71677500D01*
X81745276Y-72722500D02*
X82254724Y-72722500D01*
X78445276Y-77877500D02*
X78954724Y-77877500D01*
X78445276Y-78922500D02*
X78954724Y-78922500D01*
X78445276Y-80477500D02*
X78954724Y-80477500D01*
X78445276Y-81522500D02*
X78954724Y-81522500D01*
X81695276Y-76677500D02*
X82204724Y-76677500D01*
X81695276Y-77722500D02*
X82204724Y-77722500D01*
X91545276Y-56477500D02*
X92054724Y-56477500D01*
X91545276Y-57522500D02*
X92054724Y-57522500D01*
X94745276Y-60077500D02*
X95254724Y-60077500D01*
X94745276Y-61122500D02*
X95254724Y-61122500D01*
X94695276Y-55277500D02*
X95204724Y-55277500D01*
X94695276Y-56322500D02*
X95204724Y-56322500D01*
X91445276Y-61477500D02*
X91954724Y-61477500D01*
X91445276Y-62522500D02*
X91954724Y-62522500D01*
X94745276Y-65277500D02*
X95254724Y-65277500D01*
X94745276Y-66322500D02*
X95254724Y-66322500D01*
X91545276Y-58877500D02*
X92054724Y-58877500D01*
X91545276Y-59922500D02*
X92054724Y-59922500D01*
X89490000Y-54775000D02*
X89490000Y-55010000D01*
X89490000Y-55010000D02*
X87675000Y-55010000D01*
X89490000Y-67795000D02*
X89490000Y-67560000D01*
X93350000Y-54775000D02*
X89490000Y-54775000D01*
X93350000Y-54775000D02*
X97210000Y-54775000D01*
X93350000Y-67795000D02*
X89490000Y-67795000D01*
X93350000Y-67795000D02*
X97210000Y-67795000D01*
X97210000Y-54775000D02*
X97210000Y-55010000D01*
X97210000Y-67795000D02*
X97210000Y-67560000D01*
X94745276Y-57677500D02*
X95254724Y-57677500D01*
X94745276Y-58722500D02*
X95254724Y-58722500D01*
X91445276Y-63877500D02*
X91954724Y-63877500D01*
X91445276Y-64922500D02*
X91954724Y-64922500D01*
X91445276Y-66477500D02*
X91954724Y-66477500D01*
X91445276Y-67522500D02*
X91954724Y-67522500D01*
X94695276Y-62677500D02*
X95204724Y-62677500D01*
X94695276Y-63722500D02*
X95204724Y-63722500D01*
X78545276Y-56477500D02*
X79054724Y-56477500D01*
X78545276Y-57522500D02*
X79054724Y-57522500D01*
X81745276Y-60077500D02*
X82254724Y-60077500D01*
X81745276Y-61122500D02*
X82254724Y-61122500D01*
X81695276Y-55277500D02*
X82204724Y-55277500D01*
X81695276Y-56322500D02*
X82204724Y-56322500D01*
X78445276Y-61477500D02*
X78954724Y-61477500D01*
X78445276Y-62522500D02*
X78954724Y-62522500D01*
X81745276Y-65277500D02*
X82254724Y-65277500D01*
X81745276Y-66322500D02*
X82254724Y-66322500D01*
X78545276Y-58877500D02*
X79054724Y-58877500D01*
X78545276Y-59922500D02*
X79054724Y-59922500D01*
X76490000Y-54775000D02*
X76490000Y-55010000D01*
X76490000Y-55010000D02*
X74675000Y-55010000D01*
X76490000Y-67795000D02*
X76490000Y-67560000D01*
X80350000Y-54775000D02*
X76490000Y-54775000D01*
X80350000Y-54775000D02*
X84210000Y-54775000D01*
X80350000Y-67795000D02*
X76490000Y-67795000D01*
X80350000Y-67795000D02*
X84210000Y-67795000D01*
X84210000Y-54775000D02*
X84210000Y-55010000D01*
X84210000Y-67795000D02*
X84210000Y-67560000D01*
X81745276Y-57677500D02*
X82254724Y-57677500D01*
X81745276Y-58722500D02*
X82254724Y-58722500D01*
X78445276Y-63877500D02*
X78954724Y-63877500D01*
X78445276Y-64922500D02*
X78954724Y-64922500D01*
X78445276Y-66477500D02*
X78954724Y-66477500D01*
X78445276Y-67522500D02*
X78954724Y-67522500D01*
X81695276Y-62677500D02*
X82204724Y-62677500D01*
X81695276Y-63722500D02*
X82204724Y-63722500D01*
X65545276Y-70477500D02*
X66054724Y-70477500D01*
X65545276Y-71522500D02*
X66054724Y-71522500D01*
X68745276Y-74077500D02*
X69254724Y-74077500D01*
X68745276Y-75122500D02*
X69254724Y-75122500D01*
X68695276Y-69277500D02*
X69204724Y-69277500D01*
X68695276Y-70322500D02*
X69204724Y-70322500D01*
X65445276Y-75477500D02*
X65954724Y-75477500D01*
X65445276Y-76522500D02*
X65954724Y-76522500D01*
X68745276Y-79277500D02*
X69254724Y-79277500D01*
X68745276Y-80322500D02*
X69254724Y-80322500D01*
X65545276Y-72877500D02*
X66054724Y-72877500D01*
X65545276Y-73922500D02*
X66054724Y-73922500D01*
X63490000Y-68775000D02*
X63490000Y-69010000D01*
X63490000Y-69010000D02*
X61675000Y-69010000D01*
X63490000Y-81795000D02*
X63490000Y-81560000D01*
X67350000Y-68775000D02*
X63490000Y-68775000D01*
X67350000Y-68775000D02*
X71210000Y-68775000D01*
X67350000Y-81795000D02*
X63490000Y-81795000D01*
X67350000Y-81795000D02*
X71210000Y-81795000D01*
X71210000Y-68775000D02*
X71210000Y-69010000D01*
X71210000Y-81795000D02*
X71210000Y-81560000D01*
X68745276Y-71677500D02*
X69254724Y-71677500D01*
X68745276Y-72722500D02*
X69254724Y-72722500D01*
X65445276Y-77877500D02*
X65954724Y-77877500D01*
X65445276Y-78922500D02*
X65954724Y-78922500D01*
X65445276Y-80477500D02*
X65954724Y-80477500D01*
X65445276Y-81522500D02*
X65954724Y-81522500D01*
X68695276Y-76677500D02*
X69204724Y-76677500D01*
X68695276Y-77722500D02*
X69204724Y-77722500D01*
X65545276Y-56477500D02*
X66054724Y-56477500D01*
X65545276Y-57522500D02*
X66054724Y-57522500D01*
X68745276Y-60077500D02*
X69254724Y-60077500D01*
X68745276Y-61122500D02*
X69254724Y-61122500D01*
X68695276Y-55277500D02*
X69204724Y-55277500D01*
X68695276Y-56322500D02*
X69204724Y-56322500D01*
X65445276Y-61477500D02*
X65954724Y-61477500D01*
X65445276Y-62522500D02*
X65954724Y-62522500D01*
X68745276Y-65277500D02*
X69254724Y-65277500D01*
X68745276Y-66322500D02*
X69254724Y-66322500D01*
X65545276Y-58877500D02*
X66054724Y-58877500D01*
X65545276Y-59922500D02*
X66054724Y-59922500D01*
X63490000Y-54775000D02*
X63490000Y-55010000D01*
X63490000Y-55010000D02*
X61675000Y-55010000D01*
X63490000Y-67795000D02*
X63490000Y-67560000D01*
X67350000Y-54775000D02*
X63490000Y-54775000D01*
X67350000Y-54775000D02*
X71210000Y-54775000D01*
X67350000Y-67795000D02*
X63490000Y-67795000D01*
X67350000Y-67795000D02*
X71210000Y-67795000D01*
X71210000Y-54775000D02*
X71210000Y-55010000D01*
X71210000Y-67795000D02*
X71210000Y-67560000D01*
X68745276Y-57677500D02*
X69254724Y-57677500D01*
X68745276Y-58722500D02*
X69254724Y-58722500D01*
X65445276Y-63877500D02*
X65954724Y-63877500D01*
X65445276Y-64922500D02*
X65954724Y-64922500D01*
X65445276Y-66477500D02*
X65954724Y-66477500D01*
X65445276Y-67522500D02*
X65954724Y-67522500D01*
X68695276Y-62677500D02*
X69204724Y-62677500D01*
X68695276Y-63722500D02*
X69204724Y-63722500D01*
X91545276Y-42477500D02*
X92054724Y-42477500D01*
X91545276Y-43522500D02*
X92054724Y-43522500D01*
X94745276Y-46077500D02*
X95254724Y-46077500D01*
X94745276Y-47122500D02*
X95254724Y-47122500D01*
X94695276Y-41277500D02*
X95204724Y-41277500D01*
X94695276Y-42322500D02*
X95204724Y-42322500D01*
X91445276Y-47477500D02*
X91954724Y-47477500D01*
X91445276Y-48522500D02*
X91954724Y-48522500D01*
X94745276Y-51277500D02*
X95254724Y-51277500D01*
X94745276Y-52322500D02*
X95254724Y-52322500D01*
X91545276Y-44877500D02*
X92054724Y-44877500D01*
X91545276Y-45922500D02*
X92054724Y-45922500D01*
X89490000Y-40775000D02*
X89490000Y-41010000D01*
X89490000Y-41010000D02*
X87675000Y-41010000D01*
X89490000Y-53795000D02*
X89490000Y-53560000D01*
X93350000Y-40775000D02*
X89490000Y-40775000D01*
X93350000Y-40775000D02*
X97210000Y-40775000D01*
X93350000Y-53795000D02*
X89490000Y-53795000D01*
X93350000Y-53795000D02*
X97210000Y-53795000D01*
X97210000Y-40775000D02*
X97210000Y-41010000D01*
X97210000Y-53795000D02*
X97210000Y-53560000D01*
X94745276Y-43677500D02*
X95254724Y-43677500D01*
X94745276Y-44722500D02*
X95254724Y-44722500D01*
X91445276Y-49877500D02*
X91954724Y-49877500D01*
X91445276Y-50922500D02*
X91954724Y-50922500D01*
X91445276Y-52477500D02*
X91954724Y-52477500D01*
X91445276Y-53522500D02*
X91954724Y-53522500D01*
X94695276Y-48677500D02*
X95204724Y-48677500D01*
X94695276Y-49722500D02*
X95204724Y-49722500D01*
X78545276Y-42477500D02*
X79054724Y-42477500D01*
X78545276Y-43522500D02*
X79054724Y-43522500D01*
X81745276Y-46077500D02*
X82254724Y-46077500D01*
X81745276Y-47122500D02*
X82254724Y-47122500D01*
X81695276Y-41277500D02*
X82204724Y-41277500D01*
X81695276Y-42322500D02*
X82204724Y-42322500D01*
X78445276Y-47477500D02*
X78954724Y-47477500D01*
X78445276Y-48522500D02*
X78954724Y-48522500D01*
X81745276Y-51277500D02*
X82254724Y-51277500D01*
X81745276Y-52322500D02*
X82254724Y-52322500D01*
X78545276Y-44877500D02*
X79054724Y-44877500D01*
X78545276Y-45922500D02*
X79054724Y-45922500D01*
X76490000Y-40775000D02*
X76490000Y-41010000D01*
X76490000Y-41010000D02*
X74675000Y-41010000D01*
X76490000Y-53795000D02*
X76490000Y-53560000D01*
X80350000Y-40775000D02*
X76490000Y-40775000D01*
X80350000Y-40775000D02*
X84210000Y-40775000D01*
X80350000Y-53795000D02*
X76490000Y-53795000D01*
X80350000Y-53795000D02*
X84210000Y-53795000D01*
X84210000Y-40775000D02*
X84210000Y-41010000D01*
X84210000Y-53795000D02*
X84210000Y-53560000D01*
X81745276Y-43677500D02*
X82254724Y-43677500D01*
X81745276Y-44722500D02*
X82254724Y-44722500D01*
X78445276Y-49877500D02*
X78954724Y-49877500D01*
X78445276Y-50922500D02*
X78954724Y-50922500D01*
X78445276Y-52477500D02*
X78954724Y-52477500D01*
X78445276Y-53522500D02*
X78954724Y-53522500D01*
X81695276Y-48677500D02*
X82204724Y-48677500D01*
X81695276Y-49722500D02*
X82204724Y-49722500D01*
X68695276Y-48677500D02*
X69204724Y-48677500D01*
X68695276Y-49722500D02*
X69204724Y-49722500D01*
X65445276Y-52477500D02*
X65954724Y-52477500D01*
X65445276Y-53522500D02*
X65954724Y-53522500D01*
X65445276Y-49877500D02*
X65954724Y-49877500D01*
X65445276Y-50922500D02*
X65954724Y-50922500D01*
X65545276Y-42477500D02*
X66054724Y-42477500D01*
X65545276Y-43522500D02*
X66054724Y-43522500D01*
X68745276Y-43677500D02*
X69254724Y-43677500D01*
X68745276Y-44722500D02*
X69254724Y-44722500D01*
X68745276Y-51277500D02*
X69254724Y-51277500D01*
X68745276Y-52322500D02*
X69254724Y-52322500D01*
X63490000Y-40775000D02*
X63490000Y-41010000D01*
X63490000Y-41010000D02*
X61675000Y-41010000D01*
X63490000Y-53795000D02*
X63490000Y-53560000D01*
X67350000Y-40775000D02*
X63490000Y-40775000D01*
X67350000Y-40775000D02*
X71210000Y-40775000D01*
X67350000Y-53795000D02*
X63490000Y-53795000D01*
X67350000Y-53795000D02*
X71210000Y-53795000D01*
X71210000Y-40775000D02*
X71210000Y-41010000D01*
X71210000Y-53795000D02*
X71210000Y-53560000D01*
X68695276Y-41277500D02*
X69204724Y-41277500D01*
X68695276Y-42322500D02*
X69204724Y-42322500D01*
X65545276Y-44877500D02*
X66054724Y-44877500D01*
X65545276Y-45922500D02*
X66054724Y-45922500D01*
X68745276Y-46077500D02*
X69254724Y-46077500D01*
X68745276Y-47122500D02*
X69254724Y-47122500D01*
X65445276Y-47477500D02*
X65954724Y-47477500D01*
X65445276Y-48522500D02*
X65954724Y-48522500D01*
%LPC*%
D12*
X90887500Y-71000000D03*
X92712500Y-71000000D03*
X94087500Y-74600000D03*
X95912500Y-74600000D03*
X94037500Y-69800000D03*
X95862500Y-69800000D03*
X90787500Y-76000000D03*
X92612500Y-76000000D03*
X94087500Y-79800000D03*
X95912500Y-79800000D03*
X90887500Y-73400000D03*
X92712500Y-73400000D03*
D13*
X88700000Y-69570000D03*
X88700000Y-72110000D03*
X88700000Y-73380000D03*
X88700000Y-74650000D03*
X88700000Y-75920000D03*
X88700000Y-77190000D03*
X88700000Y-78460000D03*
X88700000Y-79730000D03*
X88700000Y-81000000D03*
X98000000Y-69570000D03*
X98000000Y-70840000D03*
X98000000Y-72110000D03*
X98000000Y-73380000D03*
X98000000Y-74650000D03*
X98000000Y-75920000D03*
X98000000Y-77190000D03*
X98000000Y-78460000D03*
X98000000Y-79730000D03*
X98000000Y-81000000D03*
X88700000Y-70840000D03*
D12*
X94087500Y-72200000D03*
X95912500Y-72200000D03*
X90787500Y-78400000D03*
X92612500Y-78400000D03*
X90787500Y-81000000D03*
X92612500Y-81000000D03*
X94037500Y-77200000D03*
X95862500Y-77200000D03*
X77887500Y-71000000D03*
X79712500Y-71000000D03*
X81087500Y-74600000D03*
X82912500Y-74600000D03*
X81037500Y-69800000D03*
X82862500Y-69800000D03*
X77787500Y-76000000D03*
X79612500Y-76000000D03*
X81087500Y-79800000D03*
X82912500Y-79800000D03*
X77887500Y-73400000D03*
X79712500Y-73400000D03*
D13*
X75700000Y-69570000D03*
X75700000Y-72110000D03*
X75700000Y-73380000D03*
X75700000Y-74650000D03*
X75700000Y-75920000D03*
X75700000Y-77190000D03*
X75700000Y-78460000D03*
X75700000Y-79730000D03*
X75700000Y-81000000D03*
X85000000Y-69570000D03*
X85000000Y-70840000D03*
X85000000Y-72110000D03*
X85000000Y-73380000D03*
X85000000Y-74650000D03*
X85000000Y-75920000D03*
X85000000Y-77190000D03*
X85000000Y-78460000D03*
X85000000Y-79730000D03*
X85000000Y-81000000D03*
X75700000Y-70840000D03*
D12*
X81087500Y-72200000D03*
X82912500Y-72200000D03*
X77787500Y-78400000D03*
X79612500Y-78400000D03*
X77787500Y-81000000D03*
X79612500Y-81000000D03*
X81037500Y-77200000D03*
X82862500Y-77200000D03*
X90887500Y-57000000D03*
X92712500Y-57000000D03*
X94087500Y-60600000D03*
X95912500Y-60600000D03*
X94037500Y-55800000D03*
X95862500Y-55800000D03*
X90787500Y-62000000D03*
X92612500Y-62000000D03*
X94087500Y-65800000D03*
X95912500Y-65800000D03*
X90887500Y-59400000D03*
X92712500Y-59400000D03*
D13*
X88700000Y-55570000D03*
X88700000Y-58110000D03*
X88700000Y-59380000D03*
X88700000Y-60650000D03*
X88700000Y-61920000D03*
X88700000Y-63190000D03*
X88700000Y-64460000D03*
X88700000Y-65730000D03*
X88700000Y-67000000D03*
X98000000Y-55570000D03*
X98000000Y-56840000D03*
X98000000Y-58110000D03*
X98000000Y-59380000D03*
X98000000Y-60650000D03*
X98000000Y-61920000D03*
X98000000Y-63190000D03*
X98000000Y-64460000D03*
X98000000Y-65730000D03*
X98000000Y-67000000D03*
X88700000Y-56840000D03*
D12*
X94087500Y-58200000D03*
X95912500Y-58200000D03*
X90787500Y-64400000D03*
X92612500Y-64400000D03*
X90787500Y-67000000D03*
X92612500Y-67000000D03*
X94037500Y-63200000D03*
X95862500Y-63200000D03*
X77887500Y-57000000D03*
X79712500Y-57000000D03*
X81087500Y-60600000D03*
X82912500Y-60600000D03*
X81037500Y-55800000D03*
X82862500Y-55800000D03*
X77787500Y-62000000D03*
X79612500Y-62000000D03*
X81087500Y-65800000D03*
X82912500Y-65800000D03*
X77887500Y-59400000D03*
X79712500Y-59400000D03*
D13*
X75700000Y-55570000D03*
X75700000Y-58110000D03*
X75700000Y-59380000D03*
X75700000Y-60650000D03*
X75700000Y-61920000D03*
X75700000Y-63190000D03*
X75700000Y-64460000D03*
X75700000Y-65730000D03*
X75700000Y-67000000D03*
X85000000Y-55570000D03*
X85000000Y-56840000D03*
X85000000Y-58110000D03*
X85000000Y-59380000D03*
X85000000Y-60650000D03*
X85000000Y-61920000D03*
X85000000Y-63190000D03*
X85000000Y-64460000D03*
X85000000Y-65730000D03*
X85000000Y-67000000D03*
X75700000Y-56840000D03*
D12*
X81087500Y-58200000D03*
X82912500Y-58200000D03*
X77787500Y-64400000D03*
X79612500Y-64400000D03*
X77787500Y-67000000D03*
X79612500Y-67000000D03*
X81037500Y-63200000D03*
X82862500Y-63200000D03*
X64887500Y-71000000D03*
X66712500Y-71000000D03*
X68087500Y-74600000D03*
X69912500Y-74600000D03*
X68037500Y-69800000D03*
X69862500Y-69800000D03*
X64787500Y-76000000D03*
X66612500Y-76000000D03*
X68087500Y-79800000D03*
X69912500Y-79800000D03*
X64887500Y-73400000D03*
X66712500Y-73400000D03*
D13*
X62700000Y-69570000D03*
X62700000Y-72110000D03*
X62700000Y-73380000D03*
X62700000Y-74650000D03*
X62700000Y-75920000D03*
X62700000Y-77190000D03*
X62700000Y-78460000D03*
X62700000Y-79730000D03*
X62700000Y-81000000D03*
X72000000Y-69570000D03*
X72000000Y-70840000D03*
X72000000Y-72110000D03*
X72000000Y-73380000D03*
X72000000Y-74650000D03*
X72000000Y-75920000D03*
X72000000Y-77190000D03*
X72000000Y-78460000D03*
X72000000Y-79730000D03*
X72000000Y-81000000D03*
X62700000Y-70840000D03*
D12*
X68087500Y-72200000D03*
X69912500Y-72200000D03*
X64787500Y-78400000D03*
X66612500Y-78400000D03*
X64787500Y-81000000D03*
X66612500Y-81000000D03*
X68037500Y-77200000D03*
X69862500Y-77200000D03*
X64887500Y-57000000D03*
X66712500Y-57000000D03*
X68087500Y-60600000D03*
X69912500Y-60600000D03*
X68037500Y-55800000D03*
X69862500Y-55800000D03*
X64787500Y-62000000D03*
X66612500Y-62000000D03*
X68087500Y-65800000D03*
X69912500Y-65800000D03*
X64887500Y-59400000D03*
X66712500Y-59400000D03*
D13*
X62700000Y-55570000D03*
X62700000Y-58110000D03*
X62700000Y-59380000D03*
X62700000Y-60650000D03*
X62700000Y-61920000D03*
X62700000Y-63190000D03*
X62700000Y-64460000D03*
X62700000Y-65730000D03*
X62700000Y-67000000D03*
X72000000Y-55570000D03*
X72000000Y-56840000D03*
X72000000Y-58110000D03*
X72000000Y-59380000D03*
X72000000Y-60650000D03*
X72000000Y-61920000D03*
X72000000Y-63190000D03*
X72000000Y-64460000D03*
X72000000Y-65730000D03*
X72000000Y-67000000D03*
X62700000Y-56840000D03*
D12*
X68087500Y-58200000D03*
X69912500Y-58200000D03*
X64787500Y-64400000D03*
X66612500Y-64400000D03*
X64787500Y-67000000D03*
X66612500Y-67000000D03*
X68037500Y-63200000D03*
X69862500Y-63200000D03*
X90887500Y-43000000D03*
X92712500Y-43000000D03*
X94087500Y-46600000D03*
X95912500Y-46600000D03*
X94037500Y-41800000D03*
X95862500Y-41800000D03*
X90787500Y-48000000D03*
X92612500Y-48000000D03*
X94087500Y-51800000D03*
X95912500Y-51800000D03*
X90887500Y-45400000D03*
X92712500Y-45400000D03*
D13*
X88700000Y-41570000D03*
X88700000Y-44110000D03*
X88700000Y-45380000D03*
X88700000Y-46650000D03*
X88700000Y-47920000D03*
X88700000Y-49190000D03*
X88700000Y-50460000D03*
X88700000Y-51730000D03*
X88700000Y-53000000D03*
X98000000Y-41570000D03*
X98000000Y-42840000D03*
X98000000Y-44110000D03*
X98000000Y-45380000D03*
X98000000Y-46650000D03*
X98000000Y-47920000D03*
X98000000Y-49190000D03*
X98000000Y-50460000D03*
X98000000Y-51730000D03*
X98000000Y-53000000D03*
X88700000Y-42840000D03*
D12*
X94087500Y-44200000D03*
X95912500Y-44200000D03*
X90787500Y-50400000D03*
X92612500Y-50400000D03*
X90787500Y-53000000D03*
X92612500Y-53000000D03*
X94037500Y-49200000D03*
X95862500Y-49200000D03*
X77887500Y-43000000D03*
X79712500Y-43000000D03*
X81087500Y-46600000D03*
X82912500Y-46600000D03*
X81037500Y-41800000D03*
X82862500Y-41800000D03*
X77787500Y-48000000D03*
X79612500Y-48000000D03*
X81087500Y-51800000D03*
X82912500Y-51800000D03*
X77887500Y-45400000D03*
X79712500Y-45400000D03*
D13*
X75700000Y-41570000D03*
X75700000Y-44110000D03*
X75700000Y-45380000D03*
X75700000Y-46650000D03*
X75700000Y-47920000D03*
X75700000Y-49190000D03*
X75700000Y-50460000D03*
X75700000Y-51730000D03*
X75700000Y-53000000D03*
X85000000Y-41570000D03*
X85000000Y-42840000D03*
X85000000Y-44110000D03*
X85000000Y-45380000D03*
X85000000Y-46650000D03*
X85000000Y-47920000D03*
X85000000Y-49190000D03*
X85000000Y-50460000D03*
X85000000Y-51730000D03*
X85000000Y-53000000D03*
X75700000Y-42840000D03*
D12*
X81087500Y-44200000D03*
X82912500Y-44200000D03*
X77787500Y-50400000D03*
X79612500Y-50400000D03*
X77787500Y-53000000D03*
X79612500Y-53000000D03*
X81037500Y-49200000D03*
X82862500Y-49200000D03*
X68037500Y-49200000D03*
X69862500Y-49200000D03*
X64787500Y-53000000D03*
X66612500Y-53000000D03*
X64787500Y-50400000D03*
X66612500Y-50400000D03*
X64887500Y-43000000D03*
X66712500Y-43000000D03*
X68087500Y-44200000D03*
X69912500Y-44200000D03*
X68087500Y-51800000D03*
X69912500Y-51800000D03*
D13*
X62700000Y-41570000D03*
X62700000Y-44110000D03*
X62700000Y-45380000D03*
X62700000Y-46650000D03*
X62700000Y-47920000D03*
X62700000Y-49190000D03*
X62700000Y-50460000D03*
X62700000Y-51730000D03*
X62700000Y-53000000D03*
X72000000Y-41570000D03*
X72000000Y-42840000D03*
X72000000Y-44110000D03*
X72000000Y-45380000D03*
X72000000Y-46650000D03*
X72000000Y-47920000D03*
X72000000Y-49190000D03*
X72000000Y-50460000D03*
X72000000Y-51730000D03*
X72000000Y-53000000D03*
X62700000Y-42840000D03*
D12*
X68037500Y-41800000D03*
X69862500Y-41800000D03*
X64887500Y-45400000D03*
X66712500Y-45400000D03*
X68087500Y-46600000D03*
X69912500Y-46600000D03*
X64787500Y-48000000D03*
X66612500Y-48000000D03*
%LPD*%
M02*
