%TF.GenerationSoftware,KiCad,Pcbnew,7.0.7*%
%TF.CreationDate,2023-11-30T18:24:53+01:00*%
%TF.ProjectId,10K_RNet,31304b5f-524e-4657-942e-6b696361645f,rev?*%
%TF.SameCoordinates,Original*%
%TF.FileFunction,Drillmap*%
%TF.FilePolarity,Positive*%
%FSLAX45Y45*%
G04 Gerber Fmt 4.5, Leading zero omitted, Abs format (unit mm)*
G04 Created by KiCad (PCBNEW 7.0.7) date 2023-11-30 18:24:53*
%MOMM*%
%LPD*%
G01*
G04 APERTURE LIST*
%ADD10C,0.100000*%
%ADD11C,0.200000*%
G04 APERTURE END LIST*
D10*
X6000000Y-4000000D02*
X11000000Y-4000000D01*
X11000000Y-9000000D01*
X6000000Y-9000000D01*
X6000000Y-4000000D01*
D11*
X6255777Y-9316484D02*
X6255777Y-9116484D01*
X6255777Y-9116484D02*
X6303396Y-9116484D01*
X6303396Y-9116484D02*
X6331967Y-9126008D01*
X6331967Y-9126008D02*
X6351015Y-9145055D01*
X6351015Y-9145055D02*
X6360539Y-9164103D01*
X6360539Y-9164103D02*
X6370062Y-9202198D01*
X6370062Y-9202198D02*
X6370062Y-9230770D01*
X6370062Y-9230770D02*
X6360539Y-9268865D01*
X6360539Y-9268865D02*
X6351015Y-9287912D01*
X6351015Y-9287912D02*
X6331967Y-9306960D01*
X6331967Y-9306960D02*
X6303396Y-9316484D01*
X6303396Y-9316484D02*
X6255777Y-9316484D01*
X6455777Y-9316484D02*
X6455777Y-9183150D01*
X6455777Y-9221246D02*
X6465301Y-9202198D01*
X6465301Y-9202198D02*
X6474824Y-9192674D01*
X6474824Y-9192674D02*
X6493872Y-9183150D01*
X6493872Y-9183150D02*
X6512920Y-9183150D01*
X6579586Y-9316484D02*
X6579586Y-9183150D01*
X6579586Y-9116484D02*
X6570062Y-9126008D01*
X6570062Y-9126008D02*
X6579586Y-9135531D01*
X6579586Y-9135531D02*
X6589110Y-9126008D01*
X6589110Y-9126008D02*
X6579586Y-9116484D01*
X6579586Y-9116484D02*
X6579586Y-9135531D01*
X6703396Y-9316484D02*
X6684348Y-9306960D01*
X6684348Y-9306960D02*
X6674824Y-9287912D01*
X6674824Y-9287912D02*
X6674824Y-9116484D01*
X6808158Y-9316484D02*
X6789110Y-9306960D01*
X6789110Y-9306960D02*
X6779586Y-9287912D01*
X6779586Y-9287912D02*
X6779586Y-9116484D01*
X7036729Y-9316484D02*
X7036729Y-9116484D01*
X7036729Y-9116484D02*
X7103396Y-9259341D01*
X7103396Y-9259341D02*
X7170062Y-9116484D01*
X7170062Y-9116484D02*
X7170062Y-9316484D01*
X7351015Y-9316484D02*
X7351015Y-9211722D01*
X7351015Y-9211722D02*
X7341491Y-9192674D01*
X7341491Y-9192674D02*
X7322443Y-9183150D01*
X7322443Y-9183150D02*
X7284348Y-9183150D01*
X7284348Y-9183150D02*
X7265301Y-9192674D01*
X7351015Y-9306960D02*
X7331967Y-9316484D01*
X7331967Y-9316484D02*
X7284348Y-9316484D01*
X7284348Y-9316484D02*
X7265301Y-9306960D01*
X7265301Y-9306960D02*
X7255777Y-9287912D01*
X7255777Y-9287912D02*
X7255777Y-9268865D01*
X7255777Y-9268865D02*
X7265301Y-9249817D01*
X7265301Y-9249817D02*
X7284348Y-9240293D01*
X7284348Y-9240293D02*
X7331967Y-9240293D01*
X7331967Y-9240293D02*
X7351015Y-9230770D01*
X7446253Y-9183150D02*
X7446253Y-9383150D01*
X7446253Y-9192674D02*
X7465301Y-9183150D01*
X7465301Y-9183150D02*
X7503396Y-9183150D01*
X7503396Y-9183150D02*
X7522443Y-9192674D01*
X7522443Y-9192674D02*
X7531967Y-9202198D01*
X7531967Y-9202198D02*
X7541491Y-9221246D01*
X7541491Y-9221246D02*
X7541491Y-9278389D01*
X7541491Y-9278389D02*
X7531967Y-9297436D01*
X7531967Y-9297436D02*
X7522443Y-9306960D01*
X7522443Y-9306960D02*
X7503396Y-9316484D01*
X7503396Y-9316484D02*
X7465301Y-9316484D01*
X7465301Y-9316484D02*
X7446253Y-9306960D01*
X7627205Y-9297436D02*
X7636729Y-9306960D01*
X7636729Y-9306960D02*
X7627205Y-9316484D01*
X7627205Y-9316484D02*
X7617682Y-9306960D01*
X7617682Y-9306960D02*
X7627205Y-9297436D01*
X7627205Y-9297436D02*
X7627205Y-9316484D01*
X7627205Y-9192674D02*
X7636729Y-9202198D01*
X7636729Y-9202198D02*
X7627205Y-9211722D01*
X7627205Y-9211722D02*
X7617682Y-9202198D01*
X7617682Y-9202198D02*
X7627205Y-9192674D01*
X7627205Y-9192674D02*
X7627205Y-9211722D01*
M02*
