M48
; DRILL file {KiCad 7.0.7} date Thu Nov 30 18:24:54 2023
; FORMAT={-:-/ absolute / metric / decimal}
; #@! TF.CreationDate,2023-11-30T18:24:54+01:00
; #@! TF.GenerationSoftware,Kicad,Pcbnew,7.0.7
; #@! TF.FileFunction,Plated,1,2,PTH
FMAT,2
METRIC
; #@! TA.AperFunction,Plated,PTH,ComponentDrill
T1C0.700
%
G90
G05
T1
X62.05Y-41.57G85X63.35Y-41.57
G05
X62.05Y-42.84G85X63.35Y-42.84
G05
X62.05Y-44.11G85X63.35Y-44.11
G05
X62.05Y-45.38G85X63.35Y-45.38
G05
X62.05Y-46.65G85X63.35Y-46.65
G05
X62.05Y-47.92G85X63.35Y-47.92
G05
X62.05Y-49.19G85X63.35Y-49.19
G05
X62.05Y-50.46G85X63.35Y-50.46
G05
X62.05Y-51.73G85X63.35Y-51.73
G05
X62.05Y-53.0G85X63.35Y-53.0
G05
X62.05Y-55.57G85X63.35Y-55.57
G05
X62.05Y-56.84G85X63.35Y-56.84
G05
X62.05Y-58.11G85X63.35Y-58.11
G05
X62.05Y-59.38G85X63.35Y-59.38
G05
X62.05Y-60.65G85X63.35Y-60.65
G05
X62.05Y-61.92G85X63.35Y-61.92
G05
X62.05Y-63.19G85X63.35Y-63.19
G05
X62.05Y-64.46G85X63.35Y-64.46
G05
X62.05Y-65.73G85X63.35Y-65.73
G05
X62.05Y-67.0G85X63.35Y-67.0
G05
X62.05Y-69.57G85X63.35Y-69.57
G05
X62.05Y-70.84G85X63.35Y-70.84
G05
X62.05Y-72.11G85X63.35Y-72.11
G05
X62.05Y-73.38G85X63.35Y-73.38
G05
X62.05Y-74.65G85X63.35Y-74.65
G05
X62.05Y-75.92G85X63.35Y-75.92
G05
X62.05Y-77.19G85X63.35Y-77.19
G05
X62.05Y-78.46G85X63.35Y-78.46
G05
X62.05Y-79.73G85X63.35Y-79.73
G05
X62.05Y-81.0G85X63.35Y-81.0
G05
X71.35Y-41.57G85X72.65Y-41.57
G05
X71.35Y-42.84G85X72.65Y-42.84
G05
X71.35Y-44.11G85X72.65Y-44.11
G05
X71.35Y-45.38G85X72.65Y-45.38
G05
X71.35Y-46.65G85X72.65Y-46.65
G05
X71.35Y-47.92G85X72.65Y-47.92
G05
X71.35Y-49.19G85X72.65Y-49.19
G05
X71.35Y-50.46G85X72.65Y-50.46
G05
X71.35Y-51.73G85X72.65Y-51.73
G05
X71.35Y-53.0G85X72.65Y-53.0
G05
X71.35Y-55.57G85X72.65Y-55.57
G05
X71.35Y-56.84G85X72.65Y-56.84
G05
X71.35Y-58.11G85X72.65Y-58.11
G05
X71.35Y-59.38G85X72.65Y-59.38
G05
X71.35Y-60.65G85X72.65Y-60.65
G05
X71.35Y-61.92G85X72.65Y-61.92
G05
X71.35Y-63.19G85X72.65Y-63.19
G05
X71.35Y-64.46G85X72.65Y-64.46
G05
X71.35Y-65.73G85X72.65Y-65.73
G05
X71.35Y-67.0G85X72.65Y-67.0
G05
X71.35Y-69.57G85X72.65Y-69.57
G05
X71.35Y-70.84G85X72.65Y-70.84
G05
X71.35Y-72.11G85X72.65Y-72.11
G05
X71.35Y-73.38G85X72.65Y-73.38
G05
X71.35Y-74.65G85X72.65Y-74.65
G05
X71.35Y-75.92G85X72.65Y-75.92
G05
X71.35Y-77.19G85X72.65Y-77.19
G05
X71.35Y-78.46G85X72.65Y-78.46
G05
X71.35Y-79.73G85X72.65Y-79.73
G05
X71.35Y-81.0G85X72.65Y-81.0
G05
X75.05Y-41.57G85X76.35Y-41.57
G05
X75.05Y-42.84G85X76.35Y-42.84
G05
X75.05Y-44.11G85X76.35Y-44.11
G05
X75.05Y-45.38G85X76.35Y-45.38
G05
X75.05Y-46.65G85X76.35Y-46.65
G05
X75.05Y-47.92G85X76.35Y-47.92
G05
X75.05Y-49.19G85X76.35Y-49.19
G05
X75.05Y-50.46G85X76.35Y-50.46
G05
X75.05Y-51.73G85X76.35Y-51.73
G05
X75.05Y-53.0G85X76.35Y-53.0
G05
X75.05Y-55.57G85X76.35Y-55.57
G05
X75.05Y-56.84G85X76.35Y-56.84
G05
X75.05Y-58.11G85X76.35Y-58.11
G05
X75.05Y-59.38G85X76.35Y-59.38
G05
X75.05Y-60.65G85X76.35Y-60.65
G05
X75.05Y-61.92G85X76.35Y-61.92
G05
X75.05Y-63.19G85X76.35Y-63.19
G05
X75.05Y-64.46G85X76.35Y-64.46
G05
X75.05Y-65.73G85X76.35Y-65.73
G05
X75.05Y-67.0G85X76.35Y-67.0
G05
X75.05Y-69.57G85X76.35Y-69.57
G05
X75.05Y-70.84G85X76.35Y-70.84
G05
X75.05Y-72.11G85X76.35Y-72.11
G05
X75.05Y-73.38G85X76.35Y-73.38
G05
X75.05Y-74.65G85X76.35Y-74.65
G05
X75.05Y-75.92G85X76.35Y-75.92
G05
X75.05Y-77.19G85X76.35Y-77.19
G05
X75.05Y-78.46G85X76.35Y-78.46
G05
X75.05Y-79.73G85X76.35Y-79.73
G05
X75.05Y-81.0G85X76.35Y-81.0
G05
X84.35Y-41.57G85X85.65Y-41.57
G05
X84.35Y-42.84G85X85.65Y-42.84
G05
X84.35Y-44.11G85X85.65Y-44.11
G05
X84.35Y-45.38G85X85.65Y-45.38
G05
X84.35Y-46.65G85X85.65Y-46.65
G05
X84.35Y-47.92G85X85.65Y-47.92
G05
X84.35Y-49.19G85X85.65Y-49.19
G05
X84.35Y-50.46G85X85.65Y-50.46
G05
X84.35Y-51.73G85X85.65Y-51.73
G05
X84.35Y-53.0G85X85.65Y-53.0
G05
X84.35Y-55.57G85X85.65Y-55.57
G05
X84.35Y-56.84G85X85.65Y-56.84
G05
X84.35Y-58.11G85X85.65Y-58.11
G05
X84.35Y-59.38G85X85.65Y-59.38
G05
X84.35Y-60.65G85X85.65Y-60.65
G05
X84.35Y-61.92G85X85.65Y-61.92
G05
X84.35Y-63.19G85X85.65Y-63.19
G05
X84.35Y-64.46G85X85.65Y-64.46
G05
X84.35Y-65.73G85X85.65Y-65.73
G05
X84.35Y-67.0G85X85.65Y-67.0
G05
X84.35Y-69.57G85X85.65Y-69.57
G05
X84.35Y-70.84G85X85.65Y-70.84
G05
X84.35Y-72.11G85X85.65Y-72.11
G05
X84.35Y-73.38G85X85.65Y-73.38
G05
X84.35Y-74.65G85X85.65Y-74.65
G05
X84.35Y-75.92G85X85.65Y-75.92
G05
X84.35Y-77.19G85X85.65Y-77.19
G05
X84.35Y-78.46G85X85.65Y-78.46
G05
X84.35Y-79.73G85X85.65Y-79.73
G05
X84.35Y-81.0G85X85.65Y-81.0
G05
X88.05Y-41.57G85X89.35Y-41.57
G05
X88.05Y-42.84G85X89.35Y-42.84
G05
X88.05Y-44.11G85X89.35Y-44.11
G05
X88.05Y-45.38G85X89.35Y-45.38
G05
X88.05Y-46.65G85X89.35Y-46.65
G05
X88.05Y-47.92G85X89.35Y-47.92
G05
X88.05Y-49.19G85X89.35Y-49.19
G05
X88.05Y-50.46G85X89.35Y-50.46
G05
X88.05Y-51.73G85X89.35Y-51.73
G05
X88.05Y-53.0G85X89.35Y-53.0
G05
X88.05Y-55.57G85X89.35Y-55.57
G05
X88.05Y-56.84G85X89.35Y-56.84
G05
X88.05Y-58.11G85X89.35Y-58.11
G05
X88.05Y-59.38G85X89.35Y-59.38
G05
X88.05Y-60.65G85X89.35Y-60.65
G05
X88.05Y-61.92G85X89.35Y-61.92
G05
X88.05Y-63.19G85X89.35Y-63.19
G05
X88.05Y-64.46G85X89.35Y-64.46
G05
X88.05Y-65.73G85X89.35Y-65.73
G05
X88.05Y-67.0G85X89.35Y-67.0
G05
X88.05Y-69.57G85X89.35Y-69.57
G05
X88.05Y-70.84G85X89.35Y-70.84
G05
X88.05Y-72.11G85X89.35Y-72.11
G05
X88.05Y-73.38G85X89.35Y-73.38
G05
X88.05Y-74.65G85X89.35Y-74.65
G05
X88.05Y-75.92G85X89.35Y-75.92
G05
X88.05Y-77.19G85X89.35Y-77.19
G05
X88.05Y-78.46G85X89.35Y-78.46
G05
X88.05Y-79.73G85X89.35Y-79.73
G05
X88.05Y-81.0G85X89.35Y-81.0
G05
X97.35Y-41.57G85X98.65Y-41.57
G05
X97.35Y-42.84G85X98.65Y-42.84
G05
X97.35Y-44.11G85X98.65Y-44.11
G05
X97.35Y-45.38G85X98.65Y-45.38
G05
X97.35Y-46.65G85X98.65Y-46.65
G05
X97.35Y-47.92G85X98.65Y-47.92
G05
X97.35Y-49.19G85X98.65Y-49.19
G05
X97.35Y-50.46G85X98.65Y-50.46
G05
X97.35Y-51.73G85X98.65Y-51.73
G05
X97.35Y-53.0G85X98.65Y-53.0
G05
X97.35Y-55.57G85X98.65Y-55.57
G05
X97.35Y-56.84G85X98.65Y-56.84
G05
X97.35Y-58.11G85X98.65Y-58.11
G05
X97.35Y-59.38G85X98.65Y-59.38
G05
X97.35Y-60.65G85X98.65Y-60.65
G05
X97.35Y-61.92G85X98.65Y-61.92
G05
X97.35Y-63.19G85X98.65Y-63.19
G05
X97.35Y-64.46G85X98.65Y-64.46
G05
X97.35Y-65.73G85X98.65Y-65.73
G05
X97.35Y-67.0G85X98.65Y-67.0
G05
X97.35Y-69.57G85X98.65Y-69.57
G05
X97.35Y-70.84G85X98.65Y-70.84
G05
X97.35Y-72.11G85X98.65Y-72.11
G05
X97.35Y-73.38G85X98.65Y-73.38
G05
X97.35Y-74.65G85X98.65Y-74.65
G05
X97.35Y-75.92G85X98.65Y-75.92
G05
X97.35Y-77.19G85X98.65Y-77.19
G05
X97.35Y-78.46G85X98.65Y-78.46
G05
X97.35Y-79.73G85X98.65Y-79.73
G05
X97.35Y-81.0G85X98.65Y-81.0
G05
T0
M30
