G04 #@! TF.GenerationSoftware,KiCad,Pcbnew,7.0.7*
G04 #@! TF.CreationDate,2023-11-30T18:24:32+01:00*
G04 #@! TF.ProjectId,10K_RNet,31304b5f-524e-4657-942e-6b696361645f,rev?*
G04 #@! TF.SameCoordinates,Original*
G04 #@! TF.FileFunction,Copper,L1,Top*
G04 #@! TF.FilePolarity,Positive*
%FSLAX46Y46*%
G04 Gerber Fmt 4.6, Leading zero omitted, Abs format (unit mm)*
G04 Created by KiCad (PCBNEW 7.0.7) date 2023-11-30 18:24:32*
%MOMM*%
%LPD*%
G01*
G04 APERTURE LIST*
G04 Aperture macros list*
%AMRoundRect*
0 Rectangle with rounded corners*
0 $1 Rounding radius*
0 $2 $3 $4 $5 $6 $7 $8 $9 X,Y pos of 4 corners*
0 Add a 4 corners polygon primitive as box body*
4,1,4,$2,$3,$4,$5,$6,$7,$8,$9,$2,$3,0*
0 Add four circle primitives for the rounded corners*
1,1,$1+$1,$2,$3*
1,1,$1+$1,$4,$5*
1,1,$1+$1,$6,$7*
1,1,$1+$1,$8,$9*
0 Add four rect primitives between the rounded corners*
20,1,$1+$1,$2,$3,$4,$5,0*
20,1,$1+$1,$4,$5,$6,$7,0*
20,1,$1+$1,$6,$7,$8,$9,0*
20,1,$1+$1,$8,$9,$2,$3,0*%
G04 Aperture macros list end*
G04 #@! TA.AperFunction,SMDPad,CuDef*
%ADD10RoundRect,0.237500X-0.250000X-0.237500X0.250000X-0.237500X0.250000X0.237500X-0.250000X0.237500X0*%
G04 #@! TD*
G04 #@! TA.AperFunction,ComponentPad*
%ADD11RoundRect,0.275000X-1.225000X-0.275000X1.225000X-0.275000X1.225000X0.275000X-1.225000X0.275000X0*%
G04 #@! TD*
G04 #@! TA.AperFunction,Conductor*
%ADD12C,0.250000*%
G04 #@! TD*
G04 APERTURE END LIST*
D10*
X90887500Y-71000000D03*
X92712500Y-71000000D03*
X94087500Y-74600000D03*
X95912500Y-74600000D03*
X94037500Y-69800000D03*
X95862500Y-69800000D03*
X90787500Y-76000000D03*
X92612500Y-76000000D03*
X94087500Y-79800000D03*
X95912500Y-79800000D03*
X90887500Y-73400000D03*
X92712500Y-73400000D03*
D11*
X88700000Y-69570000D03*
X88700000Y-72110000D03*
X88700000Y-73380000D03*
X88700000Y-74650000D03*
X88700000Y-75920000D03*
X88700000Y-77190000D03*
X88700000Y-78460000D03*
X88700000Y-79730000D03*
X88700000Y-81000000D03*
X98000000Y-69570000D03*
X98000000Y-70840000D03*
X98000000Y-72110000D03*
X98000000Y-73380000D03*
X98000000Y-74650000D03*
X98000000Y-75920000D03*
X98000000Y-77190000D03*
X98000000Y-78460000D03*
X98000000Y-79730000D03*
X98000000Y-81000000D03*
X88700000Y-70840000D03*
D10*
X94087500Y-72200000D03*
X95912500Y-72200000D03*
X90787500Y-78400000D03*
X92612500Y-78400000D03*
X90787500Y-81000000D03*
X92612500Y-81000000D03*
X94037500Y-77200000D03*
X95862500Y-77200000D03*
X77887500Y-71000000D03*
X79712500Y-71000000D03*
X81087500Y-74600000D03*
X82912500Y-74600000D03*
X81037500Y-69800000D03*
X82862500Y-69800000D03*
X77787500Y-76000000D03*
X79612500Y-76000000D03*
X81087500Y-79800000D03*
X82912500Y-79800000D03*
X77887500Y-73400000D03*
X79712500Y-73400000D03*
D11*
X75700000Y-69570000D03*
X75700000Y-72110000D03*
X75700000Y-73380000D03*
X75700000Y-74650000D03*
X75700000Y-75920000D03*
X75700000Y-77190000D03*
X75700000Y-78460000D03*
X75700000Y-79730000D03*
X75700000Y-81000000D03*
X85000000Y-69570000D03*
X85000000Y-70840000D03*
X85000000Y-72110000D03*
X85000000Y-73380000D03*
X85000000Y-74650000D03*
X85000000Y-75920000D03*
X85000000Y-77190000D03*
X85000000Y-78460000D03*
X85000000Y-79730000D03*
X85000000Y-81000000D03*
X75700000Y-70840000D03*
D10*
X81087500Y-72200000D03*
X82912500Y-72200000D03*
X77787500Y-78400000D03*
X79612500Y-78400000D03*
X77787500Y-81000000D03*
X79612500Y-81000000D03*
X81037500Y-77200000D03*
X82862500Y-77200000D03*
X90887500Y-57000000D03*
X92712500Y-57000000D03*
X94087500Y-60600000D03*
X95912500Y-60600000D03*
X94037500Y-55800000D03*
X95862500Y-55800000D03*
X90787500Y-62000000D03*
X92612500Y-62000000D03*
X94087500Y-65800000D03*
X95912500Y-65800000D03*
X90887500Y-59400000D03*
X92712500Y-59400000D03*
D11*
X88700000Y-55570000D03*
X88700000Y-58110000D03*
X88700000Y-59380000D03*
X88700000Y-60650000D03*
X88700000Y-61920000D03*
X88700000Y-63190000D03*
X88700000Y-64460000D03*
X88700000Y-65730000D03*
X88700000Y-67000000D03*
X98000000Y-55570000D03*
X98000000Y-56840000D03*
X98000000Y-58110000D03*
X98000000Y-59380000D03*
X98000000Y-60650000D03*
X98000000Y-61920000D03*
X98000000Y-63190000D03*
X98000000Y-64460000D03*
X98000000Y-65730000D03*
X98000000Y-67000000D03*
X88700000Y-56840000D03*
D10*
X94087500Y-58200000D03*
X95912500Y-58200000D03*
X90787500Y-64400000D03*
X92612500Y-64400000D03*
X90787500Y-67000000D03*
X92612500Y-67000000D03*
X94037500Y-63200000D03*
X95862500Y-63200000D03*
X77887500Y-57000000D03*
X79712500Y-57000000D03*
X81087500Y-60600000D03*
X82912500Y-60600000D03*
X81037500Y-55800000D03*
X82862500Y-55800000D03*
X77787500Y-62000000D03*
X79612500Y-62000000D03*
X81087500Y-65800000D03*
X82912500Y-65800000D03*
X77887500Y-59400000D03*
X79712500Y-59400000D03*
D11*
X75700000Y-55570000D03*
X75700000Y-58110000D03*
X75700000Y-59380000D03*
X75700000Y-60650000D03*
X75700000Y-61920000D03*
X75700000Y-63190000D03*
X75700000Y-64460000D03*
X75700000Y-65730000D03*
X75700000Y-67000000D03*
X85000000Y-55570000D03*
X85000000Y-56840000D03*
X85000000Y-58110000D03*
X85000000Y-59380000D03*
X85000000Y-60650000D03*
X85000000Y-61920000D03*
X85000000Y-63190000D03*
X85000000Y-64460000D03*
X85000000Y-65730000D03*
X85000000Y-67000000D03*
X75700000Y-56840000D03*
D10*
X81087500Y-58200000D03*
X82912500Y-58200000D03*
X77787500Y-64400000D03*
X79612500Y-64400000D03*
X77787500Y-67000000D03*
X79612500Y-67000000D03*
X81037500Y-63200000D03*
X82862500Y-63200000D03*
X64887500Y-71000000D03*
X66712500Y-71000000D03*
X68087500Y-74600000D03*
X69912500Y-74600000D03*
X68037500Y-69800000D03*
X69862500Y-69800000D03*
X64787500Y-76000000D03*
X66612500Y-76000000D03*
X68087500Y-79800000D03*
X69912500Y-79800000D03*
X64887500Y-73400000D03*
X66712500Y-73400000D03*
D11*
X62700000Y-69570000D03*
X62700000Y-72110000D03*
X62700000Y-73380000D03*
X62700000Y-74650000D03*
X62700000Y-75920000D03*
X62700000Y-77190000D03*
X62700000Y-78460000D03*
X62700000Y-79730000D03*
X62700000Y-81000000D03*
X72000000Y-69570000D03*
X72000000Y-70840000D03*
X72000000Y-72110000D03*
X72000000Y-73380000D03*
X72000000Y-74650000D03*
X72000000Y-75920000D03*
X72000000Y-77190000D03*
X72000000Y-78460000D03*
X72000000Y-79730000D03*
X72000000Y-81000000D03*
X62700000Y-70840000D03*
D10*
X68087500Y-72200000D03*
X69912500Y-72200000D03*
X64787500Y-78400000D03*
X66612500Y-78400000D03*
X64787500Y-81000000D03*
X66612500Y-81000000D03*
X68037500Y-77200000D03*
X69862500Y-77200000D03*
X64887500Y-57000000D03*
X66712500Y-57000000D03*
X68087500Y-60600000D03*
X69912500Y-60600000D03*
X68037500Y-55800000D03*
X69862500Y-55800000D03*
X64787500Y-62000000D03*
X66612500Y-62000000D03*
X68087500Y-65800000D03*
X69912500Y-65800000D03*
X64887500Y-59400000D03*
X66712500Y-59400000D03*
D11*
X62700000Y-55570000D03*
X62700000Y-58110000D03*
X62700000Y-59380000D03*
X62700000Y-60650000D03*
X62700000Y-61920000D03*
X62700000Y-63190000D03*
X62700000Y-64460000D03*
X62700000Y-65730000D03*
X62700000Y-67000000D03*
X72000000Y-55570000D03*
X72000000Y-56840000D03*
X72000000Y-58110000D03*
X72000000Y-59380000D03*
X72000000Y-60650000D03*
X72000000Y-61920000D03*
X72000000Y-63190000D03*
X72000000Y-64460000D03*
X72000000Y-65730000D03*
X72000000Y-67000000D03*
X62700000Y-56840000D03*
D10*
X68087500Y-58200000D03*
X69912500Y-58200000D03*
X64787500Y-64400000D03*
X66612500Y-64400000D03*
X64787500Y-67000000D03*
X66612500Y-67000000D03*
X68037500Y-63200000D03*
X69862500Y-63200000D03*
X90887500Y-43000000D03*
X92712500Y-43000000D03*
X94087500Y-46600000D03*
X95912500Y-46600000D03*
X94037500Y-41800000D03*
X95862500Y-41800000D03*
X90787500Y-48000000D03*
X92612500Y-48000000D03*
X94087500Y-51800000D03*
X95912500Y-51800000D03*
X90887500Y-45400000D03*
X92712500Y-45400000D03*
D11*
X88700000Y-41570000D03*
X88700000Y-44110000D03*
X88700000Y-45380000D03*
X88700000Y-46650000D03*
X88700000Y-47920000D03*
X88700000Y-49190000D03*
X88700000Y-50460000D03*
X88700000Y-51730000D03*
X88700000Y-53000000D03*
X98000000Y-41570000D03*
X98000000Y-42840000D03*
X98000000Y-44110000D03*
X98000000Y-45380000D03*
X98000000Y-46650000D03*
X98000000Y-47920000D03*
X98000000Y-49190000D03*
X98000000Y-50460000D03*
X98000000Y-51730000D03*
X98000000Y-53000000D03*
X88700000Y-42840000D03*
D10*
X94087500Y-44200000D03*
X95912500Y-44200000D03*
X90787500Y-50400000D03*
X92612500Y-50400000D03*
X90787500Y-53000000D03*
X92612500Y-53000000D03*
X94037500Y-49200000D03*
X95862500Y-49200000D03*
X77887500Y-43000000D03*
X79712500Y-43000000D03*
X81087500Y-46600000D03*
X82912500Y-46600000D03*
X81037500Y-41800000D03*
X82862500Y-41800000D03*
X77787500Y-48000000D03*
X79612500Y-48000000D03*
X81087500Y-51800000D03*
X82912500Y-51800000D03*
X77887500Y-45400000D03*
X79712500Y-45400000D03*
D11*
X75700000Y-41570000D03*
X75700000Y-44110000D03*
X75700000Y-45380000D03*
X75700000Y-46650000D03*
X75700000Y-47920000D03*
X75700000Y-49190000D03*
X75700000Y-50460000D03*
X75700000Y-51730000D03*
X75700000Y-53000000D03*
X85000000Y-41570000D03*
X85000000Y-42840000D03*
X85000000Y-44110000D03*
X85000000Y-45380000D03*
X85000000Y-46650000D03*
X85000000Y-47920000D03*
X85000000Y-49190000D03*
X85000000Y-50460000D03*
X85000000Y-51730000D03*
X85000000Y-53000000D03*
X75700000Y-42840000D03*
D10*
X81087500Y-44200000D03*
X82912500Y-44200000D03*
X77787500Y-50400000D03*
X79612500Y-50400000D03*
X77787500Y-53000000D03*
X79612500Y-53000000D03*
X81037500Y-49200000D03*
X82862500Y-49200000D03*
X68037500Y-49200000D03*
X69862500Y-49200000D03*
X64787500Y-53000000D03*
X66612500Y-53000000D03*
X64787500Y-50400000D03*
X66612500Y-50400000D03*
X64887500Y-43000000D03*
X66712500Y-43000000D03*
X68087500Y-44200000D03*
X69912500Y-44200000D03*
X68087500Y-51800000D03*
X69912500Y-51800000D03*
D11*
X62700000Y-41570000D03*
X62700000Y-44110000D03*
X62700000Y-45380000D03*
X62700000Y-46650000D03*
X62700000Y-47920000D03*
X62700000Y-49190000D03*
X62700000Y-50460000D03*
X62700000Y-51730000D03*
X62700000Y-53000000D03*
X72000000Y-41570000D03*
X72000000Y-42840000D03*
X72000000Y-44110000D03*
X72000000Y-45380000D03*
X72000000Y-46650000D03*
X72000000Y-47920000D03*
X72000000Y-49190000D03*
X72000000Y-50460000D03*
X72000000Y-51730000D03*
X72000000Y-53000000D03*
X62700000Y-42840000D03*
D10*
X68037500Y-41800000D03*
X69862500Y-41800000D03*
X64887500Y-45400000D03*
X66712500Y-45400000D03*
X68087500Y-46600000D03*
X69912500Y-46600000D03*
X64787500Y-48000000D03*
X66612500Y-48000000D03*
D12*
X92872500Y-70840000D02*
X92712500Y-71000000D01*
X98000000Y-70840000D02*
X92872500Y-70840000D01*
X97970000Y-69600000D02*
X98000000Y-69570000D01*
X98000000Y-69570000D02*
X96342500Y-69570000D01*
X96342500Y-69570000D02*
X96112500Y-69800000D01*
X90687500Y-81000000D02*
X88700000Y-81000000D01*
X96162500Y-74650000D02*
X96112500Y-74600000D01*
X98000000Y-79730000D02*
X95982500Y-79730000D01*
X98000000Y-77190000D02*
X95922500Y-77190000D01*
X92592500Y-75920000D02*
X92512500Y-76000000D01*
X90687500Y-76000000D02*
X88780000Y-76000000D01*
X88750000Y-74600000D02*
X88700000Y-74650000D01*
X94087500Y-79800000D02*
X88770000Y-79800000D01*
X95922500Y-77190000D02*
X95912500Y-77200000D01*
X96202500Y-72110000D02*
X96112500Y-72200000D01*
X98000000Y-78460000D02*
X92572500Y-78460000D01*
X88760000Y-78400000D02*
X88700000Y-78460000D01*
X88710000Y-77200000D02*
X88700000Y-77190000D01*
X90687500Y-78400000D02*
X88760000Y-78400000D01*
X88770000Y-79800000D02*
X88700000Y-79730000D01*
X88780000Y-76000000D02*
X88700000Y-75920000D01*
X92732500Y-73380000D02*
X92712500Y-73400000D01*
X88790000Y-72200000D02*
X88700000Y-72110000D01*
X98000000Y-73380000D02*
X92732500Y-73380000D01*
X92572500Y-78460000D02*
X92512500Y-78400000D01*
X98000000Y-72110000D02*
X96202500Y-72110000D01*
X98000000Y-75920000D02*
X92592500Y-75920000D01*
X98000000Y-74650000D02*
X96162500Y-74650000D01*
X88720000Y-73400000D02*
X88700000Y-73380000D01*
X88860000Y-71000000D02*
X88700000Y-70840000D01*
X94287500Y-72200000D02*
X88790000Y-72200000D01*
X94287500Y-74600000D02*
X88750000Y-74600000D01*
X90887500Y-71000000D02*
X88860000Y-71000000D01*
X88930000Y-69800000D02*
X88700000Y-69570000D01*
X94087500Y-77200000D02*
X88710000Y-77200000D01*
X98000000Y-81000000D02*
X92512500Y-81000000D01*
X95982500Y-79730000D02*
X95912500Y-79800000D01*
X94287500Y-69800000D02*
X88930000Y-69800000D01*
X90887500Y-73400000D02*
X88720000Y-73400000D01*
X79872500Y-70840000D02*
X79712500Y-71000000D01*
X85000000Y-70840000D02*
X79872500Y-70840000D01*
X84970000Y-69600000D02*
X85000000Y-69570000D01*
X85000000Y-69570000D02*
X83342500Y-69570000D01*
X83342500Y-69570000D02*
X83112500Y-69800000D01*
X77687500Y-81000000D02*
X75700000Y-81000000D01*
X83162500Y-74650000D02*
X83112500Y-74600000D01*
X85000000Y-79730000D02*
X82982500Y-79730000D01*
X85000000Y-77190000D02*
X82922500Y-77190000D01*
X79592500Y-75920000D02*
X79512500Y-76000000D01*
X77687500Y-76000000D02*
X75780000Y-76000000D01*
X75750000Y-74600000D02*
X75700000Y-74650000D01*
X81087500Y-79800000D02*
X75770000Y-79800000D01*
X82922500Y-77190000D02*
X82912500Y-77200000D01*
X83202500Y-72110000D02*
X83112500Y-72200000D01*
X85000000Y-78460000D02*
X79572500Y-78460000D01*
X75760000Y-78400000D02*
X75700000Y-78460000D01*
X75710000Y-77200000D02*
X75700000Y-77190000D01*
X77687500Y-78400000D02*
X75760000Y-78400000D01*
X75770000Y-79800000D02*
X75700000Y-79730000D01*
X75780000Y-76000000D02*
X75700000Y-75920000D01*
X79732500Y-73380000D02*
X79712500Y-73400000D01*
X75790000Y-72200000D02*
X75700000Y-72110000D01*
X85000000Y-73380000D02*
X79732500Y-73380000D01*
X79572500Y-78460000D02*
X79512500Y-78400000D01*
X85000000Y-72110000D02*
X83202500Y-72110000D01*
X85000000Y-75920000D02*
X79592500Y-75920000D01*
X85000000Y-74650000D02*
X83162500Y-74650000D01*
X75720000Y-73400000D02*
X75700000Y-73380000D01*
X75860000Y-71000000D02*
X75700000Y-70840000D01*
X81287500Y-72200000D02*
X75790000Y-72200000D01*
X81287500Y-74600000D02*
X75750000Y-74600000D01*
X77887500Y-71000000D02*
X75860000Y-71000000D01*
X75930000Y-69800000D02*
X75700000Y-69570000D01*
X81087500Y-77200000D02*
X75710000Y-77200000D01*
X85000000Y-81000000D02*
X79512500Y-81000000D01*
X82982500Y-79730000D02*
X82912500Y-79800000D01*
X81287500Y-69800000D02*
X75930000Y-69800000D01*
X77887500Y-73400000D02*
X75720000Y-73400000D01*
X92872500Y-56840000D02*
X92712500Y-57000000D01*
X98000000Y-56840000D02*
X92872500Y-56840000D01*
X97970000Y-55600000D02*
X98000000Y-55570000D01*
X98000000Y-55570000D02*
X96342500Y-55570000D01*
X96342500Y-55570000D02*
X96112500Y-55800000D01*
X90687500Y-67000000D02*
X88700000Y-67000000D01*
X96162500Y-60650000D02*
X96112500Y-60600000D01*
X98000000Y-65730000D02*
X95982500Y-65730000D01*
X98000000Y-63190000D02*
X95922500Y-63190000D01*
X92592500Y-61920000D02*
X92512500Y-62000000D01*
X90687500Y-62000000D02*
X88780000Y-62000000D01*
X88750000Y-60600000D02*
X88700000Y-60650000D01*
X94087500Y-65800000D02*
X88770000Y-65800000D01*
X95922500Y-63190000D02*
X95912500Y-63200000D01*
X96202500Y-58110000D02*
X96112500Y-58200000D01*
X98000000Y-64460000D02*
X92572500Y-64460000D01*
X88760000Y-64400000D02*
X88700000Y-64460000D01*
X88710000Y-63200000D02*
X88700000Y-63190000D01*
X90687500Y-64400000D02*
X88760000Y-64400000D01*
X88770000Y-65800000D02*
X88700000Y-65730000D01*
X88780000Y-62000000D02*
X88700000Y-61920000D01*
X92732500Y-59380000D02*
X92712500Y-59400000D01*
X88790000Y-58200000D02*
X88700000Y-58110000D01*
X98000000Y-59380000D02*
X92732500Y-59380000D01*
X92572500Y-64460000D02*
X92512500Y-64400000D01*
X98000000Y-58110000D02*
X96202500Y-58110000D01*
X98000000Y-61920000D02*
X92592500Y-61920000D01*
X98000000Y-60650000D02*
X96162500Y-60650000D01*
X88720000Y-59400000D02*
X88700000Y-59380000D01*
X88860000Y-57000000D02*
X88700000Y-56840000D01*
X94287500Y-58200000D02*
X88790000Y-58200000D01*
X94287500Y-60600000D02*
X88750000Y-60600000D01*
X90887500Y-57000000D02*
X88860000Y-57000000D01*
X88930000Y-55800000D02*
X88700000Y-55570000D01*
X94087500Y-63200000D02*
X88710000Y-63200000D01*
X98000000Y-67000000D02*
X92512500Y-67000000D01*
X95982500Y-65730000D02*
X95912500Y-65800000D01*
X94287500Y-55800000D02*
X88930000Y-55800000D01*
X90887500Y-59400000D02*
X88720000Y-59400000D01*
X79872500Y-56840000D02*
X79712500Y-57000000D01*
X85000000Y-56840000D02*
X79872500Y-56840000D01*
X84970000Y-55600000D02*
X85000000Y-55570000D01*
X85000000Y-55570000D02*
X83342500Y-55570000D01*
X83342500Y-55570000D02*
X83112500Y-55800000D01*
X77687500Y-67000000D02*
X75700000Y-67000000D01*
X83162500Y-60650000D02*
X83112500Y-60600000D01*
X85000000Y-65730000D02*
X82982500Y-65730000D01*
X85000000Y-63190000D02*
X82922500Y-63190000D01*
X79592500Y-61920000D02*
X79512500Y-62000000D01*
X77687500Y-62000000D02*
X75780000Y-62000000D01*
X75750000Y-60600000D02*
X75700000Y-60650000D01*
X81087500Y-65800000D02*
X75770000Y-65800000D01*
X82922500Y-63190000D02*
X82912500Y-63200000D01*
X83202500Y-58110000D02*
X83112500Y-58200000D01*
X85000000Y-64460000D02*
X79572500Y-64460000D01*
X75760000Y-64400000D02*
X75700000Y-64460000D01*
X75710000Y-63200000D02*
X75700000Y-63190000D01*
X77687500Y-64400000D02*
X75760000Y-64400000D01*
X75770000Y-65800000D02*
X75700000Y-65730000D01*
X75780000Y-62000000D02*
X75700000Y-61920000D01*
X79732500Y-59380000D02*
X79712500Y-59400000D01*
X75790000Y-58200000D02*
X75700000Y-58110000D01*
X85000000Y-59380000D02*
X79732500Y-59380000D01*
X79572500Y-64460000D02*
X79512500Y-64400000D01*
X85000000Y-58110000D02*
X83202500Y-58110000D01*
X85000000Y-61920000D02*
X79592500Y-61920000D01*
X85000000Y-60650000D02*
X83162500Y-60650000D01*
X75720000Y-59400000D02*
X75700000Y-59380000D01*
X75860000Y-57000000D02*
X75700000Y-56840000D01*
X81287500Y-58200000D02*
X75790000Y-58200000D01*
X81287500Y-60600000D02*
X75750000Y-60600000D01*
X77887500Y-57000000D02*
X75860000Y-57000000D01*
X75930000Y-55800000D02*
X75700000Y-55570000D01*
X81087500Y-63200000D02*
X75710000Y-63200000D01*
X85000000Y-67000000D02*
X79512500Y-67000000D01*
X82982500Y-65730000D02*
X82912500Y-65800000D01*
X81287500Y-55800000D02*
X75930000Y-55800000D01*
X77887500Y-59400000D02*
X75720000Y-59400000D01*
X66872500Y-70840000D02*
X66712500Y-71000000D01*
X72000000Y-70840000D02*
X66872500Y-70840000D01*
X71970000Y-69600000D02*
X72000000Y-69570000D01*
X72000000Y-69570000D02*
X70342500Y-69570000D01*
X70342500Y-69570000D02*
X70112500Y-69800000D01*
X64687500Y-81000000D02*
X62700000Y-81000000D01*
X70162500Y-74650000D02*
X70112500Y-74600000D01*
X72000000Y-79730000D02*
X69982500Y-79730000D01*
X72000000Y-77190000D02*
X69922500Y-77190000D01*
X66592500Y-75920000D02*
X66512500Y-76000000D01*
X64687500Y-76000000D02*
X62780000Y-76000000D01*
X62750000Y-74600000D02*
X62700000Y-74650000D01*
X68087500Y-79800000D02*
X62770000Y-79800000D01*
X69922500Y-77190000D02*
X69912500Y-77200000D01*
X70202500Y-72110000D02*
X70112500Y-72200000D01*
X72000000Y-78460000D02*
X66572500Y-78460000D01*
X62760000Y-78400000D02*
X62700000Y-78460000D01*
X62710000Y-77200000D02*
X62700000Y-77190000D01*
X64687500Y-78400000D02*
X62760000Y-78400000D01*
X62770000Y-79800000D02*
X62700000Y-79730000D01*
X62780000Y-76000000D02*
X62700000Y-75920000D01*
X66732500Y-73380000D02*
X66712500Y-73400000D01*
X62790000Y-72200000D02*
X62700000Y-72110000D01*
X72000000Y-73380000D02*
X66732500Y-73380000D01*
X66572500Y-78460000D02*
X66512500Y-78400000D01*
X72000000Y-72110000D02*
X70202500Y-72110000D01*
X72000000Y-75920000D02*
X66592500Y-75920000D01*
X72000000Y-74650000D02*
X70162500Y-74650000D01*
X62720000Y-73400000D02*
X62700000Y-73380000D01*
X62860000Y-71000000D02*
X62700000Y-70840000D01*
X68287500Y-72200000D02*
X62790000Y-72200000D01*
X68287500Y-74600000D02*
X62750000Y-74600000D01*
X64887500Y-71000000D02*
X62860000Y-71000000D01*
X62930000Y-69800000D02*
X62700000Y-69570000D01*
X68087500Y-77200000D02*
X62710000Y-77200000D01*
X72000000Y-81000000D02*
X66512500Y-81000000D01*
X69982500Y-79730000D02*
X69912500Y-79800000D01*
X68287500Y-69800000D02*
X62930000Y-69800000D01*
X64887500Y-73400000D02*
X62720000Y-73400000D01*
X66872500Y-56840000D02*
X66712500Y-57000000D01*
X72000000Y-56840000D02*
X66872500Y-56840000D01*
X71970000Y-55600000D02*
X72000000Y-55570000D01*
X72000000Y-55570000D02*
X70342500Y-55570000D01*
X70342500Y-55570000D02*
X70112500Y-55800000D01*
X64687500Y-67000000D02*
X62700000Y-67000000D01*
X70162500Y-60650000D02*
X70112500Y-60600000D01*
X72000000Y-65730000D02*
X69982500Y-65730000D01*
X72000000Y-63190000D02*
X69922500Y-63190000D01*
X66592500Y-61920000D02*
X66512500Y-62000000D01*
X64687500Y-62000000D02*
X62780000Y-62000000D01*
X62750000Y-60600000D02*
X62700000Y-60650000D01*
X68087500Y-65800000D02*
X62770000Y-65800000D01*
X69922500Y-63190000D02*
X69912500Y-63200000D01*
X70202500Y-58110000D02*
X70112500Y-58200000D01*
X72000000Y-64460000D02*
X66572500Y-64460000D01*
X62760000Y-64400000D02*
X62700000Y-64460000D01*
X62710000Y-63200000D02*
X62700000Y-63190000D01*
X64687500Y-64400000D02*
X62760000Y-64400000D01*
X62770000Y-65800000D02*
X62700000Y-65730000D01*
X62780000Y-62000000D02*
X62700000Y-61920000D01*
X66732500Y-59380000D02*
X66712500Y-59400000D01*
X62790000Y-58200000D02*
X62700000Y-58110000D01*
X72000000Y-59380000D02*
X66732500Y-59380000D01*
X66572500Y-64460000D02*
X66512500Y-64400000D01*
X72000000Y-58110000D02*
X70202500Y-58110000D01*
X72000000Y-61920000D02*
X66592500Y-61920000D01*
X72000000Y-60650000D02*
X70162500Y-60650000D01*
X62720000Y-59400000D02*
X62700000Y-59380000D01*
X62860000Y-57000000D02*
X62700000Y-56840000D01*
X68287500Y-58200000D02*
X62790000Y-58200000D01*
X68287500Y-60600000D02*
X62750000Y-60600000D01*
X64887500Y-57000000D02*
X62860000Y-57000000D01*
X62930000Y-55800000D02*
X62700000Y-55570000D01*
X68087500Y-63200000D02*
X62710000Y-63200000D01*
X72000000Y-67000000D02*
X66512500Y-67000000D01*
X69982500Y-65730000D02*
X69912500Y-65800000D01*
X68287500Y-55800000D02*
X62930000Y-55800000D01*
X64887500Y-59400000D02*
X62720000Y-59400000D01*
X92872500Y-42840000D02*
X92712500Y-43000000D01*
X98000000Y-42840000D02*
X92872500Y-42840000D01*
X97970000Y-41600000D02*
X98000000Y-41570000D01*
X98000000Y-41570000D02*
X96342500Y-41570000D01*
X96342500Y-41570000D02*
X96112500Y-41800000D01*
X90687500Y-53000000D02*
X88700000Y-53000000D01*
X96162500Y-46650000D02*
X96112500Y-46600000D01*
X98000000Y-51730000D02*
X95982500Y-51730000D01*
X98000000Y-49190000D02*
X95922500Y-49190000D01*
X92592500Y-47920000D02*
X92512500Y-48000000D01*
X90687500Y-48000000D02*
X88780000Y-48000000D01*
X88750000Y-46600000D02*
X88700000Y-46650000D01*
X94087500Y-51800000D02*
X88770000Y-51800000D01*
X95922500Y-49190000D02*
X95912500Y-49200000D01*
X96202500Y-44110000D02*
X96112500Y-44200000D01*
X98000000Y-50460000D02*
X92572500Y-50460000D01*
X88760000Y-50400000D02*
X88700000Y-50460000D01*
X88710000Y-49200000D02*
X88700000Y-49190000D01*
X90687500Y-50400000D02*
X88760000Y-50400000D01*
X88770000Y-51800000D02*
X88700000Y-51730000D01*
X88780000Y-48000000D02*
X88700000Y-47920000D01*
X92732500Y-45380000D02*
X92712500Y-45400000D01*
X88790000Y-44200000D02*
X88700000Y-44110000D01*
X98000000Y-45380000D02*
X92732500Y-45380000D01*
X92572500Y-50460000D02*
X92512500Y-50400000D01*
X98000000Y-44110000D02*
X96202500Y-44110000D01*
X98000000Y-47920000D02*
X92592500Y-47920000D01*
X98000000Y-46650000D02*
X96162500Y-46650000D01*
X88720000Y-45400000D02*
X88700000Y-45380000D01*
X88860000Y-43000000D02*
X88700000Y-42840000D01*
X94287500Y-44200000D02*
X88790000Y-44200000D01*
X94287500Y-46600000D02*
X88750000Y-46600000D01*
X90887500Y-43000000D02*
X88860000Y-43000000D01*
X88930000Y-41800000D02*
X88700000Y-41570000D01*
X94087500Y-49200000D02*
X88710000Y-49200000D01*
X98000000Y-53000000D02*
X92512500Y-53000000D01*
X95982500Y-51730000D02*
X95912500Y-51800000D01*
X94287500Y-41800000D02*
X88930000Y-41800000D01*
X90887500Y-45400000D02*
X88720000Y-45400000D01*
X79872500Y-42840000D02*
X79712500Y-43000000D01*
X85000000Y-42840000D02*
X79872500Y-42840000D01*
X84970000Y-41600000D02*
X85000000Y-41570000D01*
X85000000Y-41570000D02*
X83342500Y-41570000D01*
X83342500Y-41570000D02*
X83112500Y-41800000D01*
X77687500Y-53000000D02*
X75700000Y-53000000D01*
X83162500Y-46650000D02*
X83112500Y-46600000D01*
X85000000Y-51730000D02*
X82982500Y-51730000D01*
X85000000Y-49190000D02*
X82922500Y-49190000D01*
X79592500Y-47920000D02*
X79512500Y-48000000D01*
X77687500Y-48000000D02*
X75780000Y-48000000D01*
X75750000Y-46600000D02*
X75700000Y-46650000D01*
X81087500Y-51800000D02*
X75770000Y-51800000D01*
X82922500Y-49190000D02*
X82912500Y-49200000D01*
X83202500Y-44110000D02*
X83112500Y-44200000D01*
X85000000Y-50460000D02*
X79572500Y-50460000D01*
X75760000Y-50400000D02*
X75700000Y-50460000D01*
X75710000Y-49200000D02*
X75700000Y-49190000D01*
X77687500Y-50400000D02*
X75760000Y-50400000D01*
X75770000Y-51800000D02*
X75700000Y-51730000D01*
X75780000Y-48000000D02*
X75700000Y-47920000D01*
X79732500Y-45380000D02*
X79712500Y-45400000D01*
X75790000Y-44200000D02*
X75700000Y-44110000D01*
X85000000Y-45380000D02*
X79732500Y-45380000D01*
X79572500Y-50460000D02*
X79512500Y-50400000D01*
X85000000Y-44110000D02*
X83202500Y-44110000D01*
X85000000Y-47920000D02*
X79592500Y-47920000D01*
X85000000Y-46650000D02*
X83162500Y-46650000D01*
X75720000Y-45400000D02*
X75700000Y-45380000D01*
X75860000Y-43000000D02*
X75700000Y-42840000D01*
X81287500Y-44200000D02*
X75790000Y-44200000D01*
X81287500Y-46600000D02*
X75750000Y-46600000D01*
X77887500Y-43000000D02*
X75860000Y-43000000D01*
X75930000Y-41800000D02*
X75700000Y-41570000D01*
X81087500Y-49200000D02*
X75710000Y-49200000D01*
X85000000Y-53000000D02*
X79512500Y-53000000D01*
X82982500Y-51730000D02*
X82912500Y-51800000D01*
X81287500Y-41800000D02*
X75930000Y-41800000D01*
X77887500Y-45400000D02*
X75720000Y-45400000D01*
X72000000Y-41570000D02*
X70342500Y-41570000D01*
X70342500Y-41570000D02*
X70112500Y-41800000D01*
X71970000Y-41600000D02*
X72000000Y-41570000D01*
X72000000Y-42840000D02*
X66872500Y-42840000D01*
X66872500Y-42840000D02*
X66712500Y-43000000D01*
X70202500Y-44110000D02*
X70112500Y-44200000D01*
X72000000Y-44110000D02*
X70202500Y-44110000D01*
X72000000Y-45380000D02*
X66732500Y-45380000D01*
X66732500Y-45380000D02*
X66712500Y-45400000D01*
X72000000Y-46650000D02*
X70162500Y-46650000D01*
X70162500Y-46650000D02*
X70112500Y-46600000D01*
X66592500Y-47920000D02*
X66512500Y-48000000D01*
X72000000Y-47920000D02*
X66592500Y-47920000D01*
X69922500Y-49190000D02*
X69912500Y-49200000D01*
X72000000Y-49190000D02*
X69922500Y-49190000D01*
X72000000Y-50460000D02*
X66572500Y-50460000D01*
X66572500Y-50460000D02*
X66512500Y-50400000D01*
X72000000Y-51730000D02*
X69982500Y-51730000D01*
X69982500Y-51730000D02*
X69912500Y-51800000D01*
X72000000Y-53000000D02*
X66512500Y-53000000D01*
X64687500Y-53000000D02*
X62700000Y-53000000D01*
X62930000Y-41800000D02*
X62700000Y-41570000D01*
X62780000Y-48000000D02*
X62700000Y-47920000D01*
X64887500Y-45400000D02*
X62720000Y-45400000D01*
X68087500Y-49200000D02*
X62710000Y-49200000D01*
X64687500Y-50400000D02*
X62760000Y-50400000D01*
X64887500Y-43000000D02*
X62860000Y-43000000D01*
X64687500Y-48000000D02*
X62780000Y-48000000D01*
X68287500Y-44200000D02*
X62790000Y-44200000D01*
X62790000Y-44200000D02*
X62700000Y-44110000D01*
X62770000Y-51800000D02*
X62700000Y-51730000D01*
X62710000Y-49200000D02*
X62700000Y-49190000D01*
X62760000Y-50400000D02*
X62700000Y-50460000D01*
X68087500Y-51800000D02*
X62770000Y-51800000D01*
X68287500Y-46600000D02*
X62750000Y-46600000D01*
X62860000Y-43000000D02*
X62700000Y-42840000D01*
X62720000Y-45400000D02*
X62700000Y-45380000D01*
X68287500Y-41800000D02*
X62930000Y-41800000D01*
X62750000Y-46600000D02*
X62700000Y-46650000D01*
M02*
