G04 #@! TF.GenerationSoftware,KiCad,Pcbnew,7.0.7*
G04 #@! TF.CreationDate,2023-11-30T18:24:32+01:00*
G04 #@! TF.ProjectId,10K_RNet,31304b5f-524e-4657-942e-6b696361645f,rev?*
G04 #@! TF.SameCoordinates,Original*
G04 #@! TF.FileFunction,Paste,Top*
G04 #@! TF.FilePolarity,Positive*
%FSLAX46Y46*%
G04 Gerber Fmt 4.6, Leading zero omitted, Abs format (unit mm)*
G04 Created by KiCad (PCBNEW 7.0.7) date 2023-11-30 18:24:32*
%MOMM*%
%LPD*%
G01*
G04 APERTURE LIST*
G04 Aperture macros list*
%AMRoundRect*
0 Rectangle with rounded corners*
0 $1 Rounding radius*
0 $2 $3 $4 $5 $6 $7 $8 $9 X,Y pos of 4 corners*
0 Add a 4 corners polygon primitive as box body*
4,1,4,$2,$3,$4,$5,$6,$7,$8,$9,$2,$3,0*
0 Add four circle primitives for the rounded corners*
1,1,$1+$1,$2,$3*
1,1,$1+$1,$4,$5*
1,1,$1+$1,$6,$7*
1,1,$1+$1,$8,$9*
0 Add four rect primitives between the rounded corners*
20,1,$1+$1,$2,$3,$4,$5,0*
20,1,$1+$1,$4,$5,$6,$7,0*
20,1,$1+$1,$6,$7,$8,$9,0*
20,1,$1+$1,$8,$9,$2,$3,0*%
G04 Aperture macros list end*
%ADD10RoundRect,0.237500X-0.250000X-0.237500X0.250000X-0.237500X0.250000X0.237500X-0.250000X0.237500X0*%
G04 APERTURE END LIST*
D10*
X90887500Y-71000000D03*
X92712500Y-71000000D03*
X94087500Y-74600000D03*
X95912500Y-74600000D03*
X94037500Y-69800000D03*
X95862500Y-69800000D03*
X90787500Y-76000000D03*
X92612500Y-76000000D03*
X94087500Y-79800000D03*
X95912500Y-79800000D03*
X90887500Y-73400000D03*
X92712500Y-73400000D03*
X94087500Y-72200000D03*
X95912500Y-72200000D03*
X90787500Y-78400000D03*
X92612500Y-78400000D03*
X90787500Y-81000000D03*
X92612500Y-81000000D03*
X94037500Y-77200000D03*
X95862500Y-77200000D03*
X77887500Y-71000000D03*
X79712500Y-71000000D03*
X81087500Y-74600000D03*
X82912500Y-74600000D03*
X81037500Y-69800000D03*
X82862500Y-69800000D03*
X77787500Y-76000000D03*
X79612500Y-76000000D03*
X81087500Y-79800000D03*
X82912500Y-79800000D03*
X77887500Y-73400000D03*
X79712500Y-73400000D03*
X81087500Y-72200000D03*
X82912500Y-72200000D03*
X77787500Y-78400000D03*
X79612500Y-78400000D03*
X77787500Y-81000000D03*
X79612500Y-81000000D03*
X81037500Y-77200000D03*
X82862500Y-77200000D03*
X90887500Y-57000000D03*
X92712500Y-57000000D03*
X94087500Y-60600000D03*
X95912500Y-60600000D03*
X94037500Y-55800000D03*
X95862500Y-55800000D03*
X90787500Y-62000000D03*
X92612500Y-62000000D03*
X94087500Y-65800000D03*
X95912500Y-65800000D03*
X90887500Y-59400000D03*
X92712500Y-59400000D03*
X94087500Y-58200000D03*
X95912500Y-58200000D03*
X90787500Y-64400000D03*
X92612500Y-64400000D03*
X90787500Y-67000000D03*
X92612500Y-67000000D03*
X94037500Y-63200000D03*
X95862500Y-63200000D03*
X77887500Y-57000000D03*
X79712500Y-57000000D03*
X81087500Y-60600000D03*
X82912500Y-60600000D03*
X81037500Y-55800000D03*
X82862500Y-55800000D03*
X77787500Y-62000000D03*
X79612500Y-62000000D03*
X81087500Y-65800000D03*
X82912500Y-65800000D03*
X77887500Y-59400000D03*
X79712500Y-59400000D03*
X81087500Y-58200000D03*
X82912500Y-58200000D03*
X77787500Y-64400000D03*
X79612500Y-64400000D03*
X77787500Y-67000000D03*
X79612500Y-67000000D03*
X81037500Y-63200000D03*
X82862500Y-63200000D03*
X64887500Y-71000000D03*
X66712500Y-71000000D03*
X68087500Y-74600000D03*
X69912500Y-74600000D03*
X68037500Y-69800000D03*
X69862500Y-69800000D03*
X64787500Y-76000000D03*
X66612500Y-76000000D03*
X68087500Y-79800000D03*
X69912500Y-79800000D03*
X64887500Y-73400000D03*
X66712500Y-73400000D03*
X68087500Y-72200000D03*
X69912500Y-72200000D03*
X64787500Y-78400000D03*
X66612500Y-78400000D03*
X64787500Y-81000000D03*
X66612500Y-81000000D03*
X68037500Y-77200000D03*
X69862500Y-77200000D03*
X64887500Y-57000000D03*
X66712500Y-57000000D03*
X68087500Y-60600000D03*
X69912500Y-60600000D03*
X68037500Y-55800000D03*
X69862500Y-55800000D03*
X64787500Y-62000000D03*
X66612500Y-62000000D03*
X68087500Y-65800000D03*
X69912500Y-65800000D03*
X64887500Y-59400000D03*
X66712500Y-59400000D03*
X68087500Y-58200000D03*
X69912500Y-58200000D03*
X64787500Y-64400000D03*
X66612500Y-64400000D03*
X64787500Y-67000000D03*
X66612500Y-67000000D03*
X68037500Y-63200000D03*
X69862500Y-63200000D03*
X90887500Y-43000000D03*
X92712500Y-43000000D03*
X94087500Y-46600000D03*
X95912500Y-46600000D03*
X94037500Y-41800000D03*
X95862500Y-41800000D03*
X90787500Y-48000000D03*
X92612500Y-48000000D03*
X94087500Y-51800000D03*
X95912500Y-51800000D03*
X90887500Y-45400000D03*
X92712500Y-45400000D03*
X94087500Y-44200000D03*
X95912500Y-44200000D03*
X90787500Y-50400000D03*
X92612500Y-50400000D03*
X90787500Y-53000000D03*
X92612500Y-53000000D03*
X94037500Y-49200000D03*
X95862500Y-49200000D03*
X77887500Y-43000000D03*
X79712500Y-43000000D03*
X81087500Y-46600000D03*
X82912500Y-46600000D03*
X81037500Y-41800000D03*
X82862500Y-41800000D03*
X77787500Y-48000000D03*
X79612500Y-48000000D03*
X81087500Y-51800000D03*
X82912500Y-51800000D03*
X77887500Y-45400000D03*
X79712500Y-45400000D03*
X81087500Y-44200000D03*
X82912500Y-44200000D03*
X77787500Y-50400000D03*
X79612500Y-50400000D03*
X77787500Y-53000000D03*
X79612500Y-53000000D03*
X81037500Y-49200000D03*
X82862500Y-49200000D03*
X68037500Y-49200000D03*
X69862500Y-49200000D03*
X64787500Y-53000000D03*
X66612500Y-53000000D03*
X64787500Y-50400000D03*
X66612500Y-50400000D03*
X64887500Y-43000000D03*
X66712500Y-43000000D03*
X68087500Y-44200000D03*
X69912500Y-44200000D03*
X68087500Y-51800000D03*
X69912500Y-51800000D03*
X68037500Y-41800000D03*
X69862500Y-41800000D03*
X64887500Y-45400000D03*
X66712500Y-45400000D03*
X68087500Y-46600000D03*
X69912500Y-46600000D03*
X64787500Y-48000000D03*
X66612500Y-48000000D03*
M02*
