G04 #@! TF.GenerationSoftware,KiCad,Pcbnew,7.0.7*
G04 #@! TF.CreationDate,2023-11-30T18:24:32+01:00*
G04 #@! TF.ProjectId,10K_RNet,31304b5f-524e-4657-942e-6b696361645f,rev?*
G04 #@! TF.SameCoordinates,Original*
G04 #@! TF.FileFunction,Legend,Bot*
G04 #@! TF.FilePolarity,Positive*
%FSLAX46Y46*%
G04 Gerber Fmt 4.6, Leading zero omitted, Abs format (unit mm)*
G04 Created by KiCad (PCBNEW 7.0.7) date 2023-11-30 18:24:32*
%MOMM*%
%LPD*%
G01*
G04 APERTURE LIST*
G04 Aperture macros list*
%AMRoundRect*
0 Rectangle with rounded corners*
0 $1 Rounding radius*
0 $2 $3 $4 $5 $6 $7 $8 $9 X,Y pos of 4 corners*
0 Add a 4 corners polygon primitive as box body*
4,1,4,$2,$3,$4,$5,$6,$7,$8,$9,$2,$3,0*
0 Add four circle primitives for the rounded corners*
1,1,$1+$1,$2,$3*
1,1,$1+$1,$4,$5*
1,1,$1+$1,$6,$7*
1,1,$1+$1,$8,$9*
0 Add four rect primitives between the rounded corners*
20,1,$1+$1,$2,$3,$4,$5,0*
20,1,$1+$1,$4,$5,$6,$7,0*
20,1,$1+$1,$6,$7,$8,$9,0*
20,1,$1+$1,$8,$9,$2,$3,0*%
G04 Aperture macros list end*
%ADD10C,0.087500*%
%ADD11RoundRect,0.275000X-1.225000X-0.275000X1.225000X-0.275000X1.225000X0.275000X-1.225000X0.275000X0*%
G04 APERTURE END LIST*
D10*
X90932783Y-74550000D02*
X90932783Y-74883333D01*
X91132783Y-74483333D02*
X90432783Y-74716667D01*
X90432783Y-74716667D02*
X91132783Y-74950000D01*
X91132783Y-75283333D02*
X91099450Y-75216667D01*
X91099450Y-75216667D02*
X91032783Y-75183333D01*
X91032783Y-75183333D02*
X90432783Y-75183333D01*
X91132783Y-75650000D02*
X91099450Y-75583334D01*
X91099450Y-75583334D02*
X91032783Y-75550000D01*
X91032783Y-75550000D02*
X90432783Y-75550000D01*
X91132783Y-76450000D02*
X90666116Y-76450000D01*
X90799450Y-76450000D02*
X90732783Y-76483334D01*
X90732783Y-76483334D02*
X90699450Y-76516667D01*
X90699450Y-76516667D02*
X90666116Y-76583334D01*
X90666116Y-76583334D02*
X90666116Y-76650000D01*
X91099450Y-77150000D02*
X91132783Y-77083333D01*
X91132783Y-77083333D02*
X91132783Y-76950000D01*
X91132783Y-76950000D02*
X91099450Y-76883333D01*
X91099450Y-76883333D02*
X91032783Y-76850000D01*
X91032783Y-76850000D02*
X90766116Y-76850000D01*
X90766116Y-76850000D02*
X90699450Y-76883333D01*
X90699450Y-76883333D02*
X90666116Y-76950000D01*
X90666116Y-76950000D02*
X90666116Y-77083333D01*
X90666116Y-77083333D02*
X90699450Y-77150000D01*
X90699450Y-77150000D02*
X90766116Y-77183333D01*
X90766116Y-77183333D02*
X90832783Y-77183333D01*
X90832783Y-77183333D02*
X90899450Y-76850000D01*
X91099450Y-77450000D02*
X91132783Y-77516667D01*
X91132783Y-77516667D02*
X91132783Y-77650000D01*
X91132783Y-77650000D02*
X91099450Y-77716667D01*
X91099450Y-77716667D02*
X91032783Y-77750000D01*
X91032783Y-77750000D02*
X90999450Y-77750000D01*
X90999450Y-77750000D02*
X90932783Y-77716667D01*
X90932783Y-77716667D02*
X90899450Y-77650000D01*
X90899450Y-77650000D02*
X90899450Y-77550000D01*
X90899450Y-77550000D02*
X90866116Y-77483333D01*
X90866116Y-77483333D02*
X90799450Y-77450000D01*
X90799450Y-77450000D02*
X90766116Y-77450000D01*
X90766116Y-77450000D02*
X90699450Y-77483333D01*
X90699450Y-77483333D02*
X90666116Y-77550000D01*
X90666116Y-77550000D02*
X90666116Y-77650000D01*
X90666116Y-77650000D02*
X90699450Y-77716667D01*
X91132783Y-78050000D02*
X90666116Y-78050000D01*
X90432783Y-78050000D02*
X90466116Y-78016667D01*
X90466116Y-78016667D02*
X90499450Y-78050000D01*
X90499450Y-78050000D02*
X90466116Y-78083334D01*
X90466116Y-78083334D02*
X90432783Y-78050000D01*
X90432783Y-78050000D02*
X90499450Y-78050000D01*
X91099450Y-78350000D02*
X91132783Y-78416667D01*
X91132783Y-78416667D02*
X91132783Y-78550000D01*
X91132783Y-78550000D02*
X91099450Y-78616667D01*
X91099450Y-78616667D02*
X91032783Y-78650000D01*
X91032783Y-78650000D02*
X90999450Y-78650000D01*
X90999450Y-78650000D02*
X90932783Y-78616667D01*
X90932783Y-78616667D02*
X90899450Y-78550000D01*
X90899450Y-78550000D02*
X90899450Y-78450000D01*
X90899450Y-78450000D02*
X90866116Y-78383333D01*
X90866116Y-78383333D02*
X90799450Y-78350000D01*
X90799450Y-78350000D02*
X90766116Y-78350000D01*
X90766116Y-78350000D02*
X90699450Y-78383333D01*
X90699450Y-78383333D02*
X90666116Y-78450000D01*
X90666116Y-78450000D02*
X90666116Y-78550000D01*
X90666116Y-78550000D02*
X90699450Y-78616667D01*
X90666116Y-78850000D02*
X90666116Y-79116667D01*
X90432783Y-78950000D02*
X91032783Y-78950000D01*
X91032783Y-78950000D02*
X91099450Y-78983334D01*
X91099450Y-78983334D02*
X91132783Y-79050000D01*
X91132783Y-79050000D02*
X91132783Y-79116667D01*
X91132783Y-79650000D02*
X90766116Y-79650000D01*
X90766116Y-79650000D02*
X90699450Y-79616667D01*
X90699450Y-79616667D02*
X90666116Y-79550000D01*
X90666116Y-79550000D02*
X90666116Y-79416667D01*
X90666116Y-79416667D02*
X90699450Y-79350000D01*
X91099450Y-79650000D02*
X91132783Y-79583334D01*
X91132783Y-79583334D02*
X91132783Y-79416667D01*
X91132783Y-79416667D02*
X91099450Y-79350000D01*
X91099450Y-79350000D02*
X91032783Y-79316667D01*
X91032783Y-79316667D02*
X90966116Y-79316667D01*
X90966116Y-79316667D02*
X90899450Y-79350000D01*
X90899450Y-79350000D02*
X90866116Y-79416667D01*
X90866116Y-79416667D02*
X90866116Y-79583334D01*
X90866116Y-79583334D02*
X90832783Y-79650000D01*
X90666116Y-79983333D02*
X91132783Y-79983333D01*
X90732783Y-79983333D02*
X90699450Y-80016667D01*
X90699450Y-80016667D02*
X90666116Y-80083333D01*
X90666116Y-80083333D02*
X90666116Y-80183333D01*
X90666116Y-80183333D02*
X90699450Y-80250000D01*
X90699450Y-80250000D02*
X90766116Y-80283333D01*
X90766116Y-80283333D02*
X91132783Y-80283333D01*
X91099450Y-80916666D02*
X91132783Y-80850000D01*
X91132783Y-80850000D02*
X91132783Y-80716666D01*
X91132783Y-80716666D02*
X91099450Y-80650000D01*
X91099450Y-80650000D02*
X91066116Y-80616666D01*
X91066116Y-80616666D02*
X90999450Y-80583333D01*
X90999450Y-80583333D02*
X90799450Y-80583333D01*
X90799450Y-80583333D02*
X90732783Y-80616666D01*
X90732783Y-80616666D02*
X90699450Y-80650000D01*
X90699450Y-80650000D02*
X90666116Y-80716666D01*
X90666116Y-80716666D02*
X90666116Y-80850000D01*
X90666116Y-80850000D02*
X90699450Y-80916666D01*
X91099450Y-81483333D02*
X91132783Y-81416666D01*
X91132783Y-81416666D02*
X91132783Y-81283333D01*
X91132783Y-81283333D02*
X91099450Y-81216666D01*
X91099450Y-81216666D02*
X91032783Y-81183333D01*
X91032783Y-81183333D02*
X90766116Y-81183333D01*
X90766116Y-81183333D02*
X90699450Y-81216666D01*
X90699450Y-81216666D02*
X90666116Y-81283333D01*
X90666116Y-81283333D02*
X90666116Y-81416666D01*
X90666116Y-81416666D02*
X90699450Y-81483333D01*
X90699450Y-81483333D02*
X90766116Y-81516666D01*
X90766116Y-81516666D02*
X90832783Y-81516666D01*
X90832783Y-81516666D02*
X90899450Y-81183333D01*
X92259783Y-76383333D02*
X91793116Y-76383333D01*
X91559783Y-76383333D02*
X91593116Y-76350000D01*
X91593116Y-76350000D02*
X91626450Y-76383333D01*
X91626450Y-76383333D02*
X91593116Y-76416667D01*
X91593116Y-76416667D02*
X91559783Y-76383333D01*
X91559783Y-76383333D02*
X91626450Y-76383333D01*
X92226450Y-76683333D02*
X92259783Y-76750000D01*
X92259783Y-76750000D02*
X92259783Y-76883333D01*
X92259783Y-76883333D02*
X92226450Y-76950000D01*
X92226450Y-76950000D02*
X92159783Y-76983333D01*
X92159783Y-76983333D02*
X92126450Y-76983333D01*
X92126450Y-76983333D02*
X92059783Y-76950000D01*
X92059783Y-76950000D02*
X92026450Y-76883333D01*
X92026450Y-76883333D02*
X92026450Y-76783333D01*
X92026450Y-76783333D02*
X91993116Y-76716666D01*
X91993116Y-76716666D02*
X91926450Y-76683333D01*
X91926450Y-76683333D02*
X91893116Y-76683333D01*
X91893116Y-76683333D02*
X91826450Y-76716666D01*
X91826450Y-76716666D02*
X91793116Y-76783333D01*
X91793116Y-76783333D02*
X91793116Y-76883333D01*
X91793116Y-76883333D02*
X91826450Y-76950000D01*
X91793116Y-77716666D02*
X91793116Y-77983333D01*
X92259783Y-77816666D02*
X91659783Y-77816666D01*
X91659783Y-77816666D02*
X91593116Y-77850000D01*
X91593116Y-77850000D02*
X91559783Y-77916666D01*
X91559783Y-77916666D02*
X91559783Y-77983333D01*
X91793116Y-78516666D02*
X92259783Y-78516666D01*
X91793116Y-78216666D02*
X92159783Y-78216666D01*
X92159783Y-78216666D02*
X92226450Y-78250000D01*
X92226450Y-78250000D02*
X92259783Y-78316666D01*
X92259783Y-78316666D02*
X92259783Y-78416666D01*
X92259783Y-78416666D02*
X92226450Y-78483333D01*
X92226450Y-78483333D02*
X92193116Y-78516666D01*
X91793116Y-78749999D02*
X91793116Y-79016666D01*
X91559783Y-78849999D02*
X92159783Y-78849999D01*
X92159783Y-78849999D02*
X92226450Y-78883333D01*
X92226450Y-78883333D02*
X92259783Y-78949999D01*
X92259783Y-78949999D02*
X92259783Y-79016666D01*
X92259783Y-79249999D02*
X91793116Y-79249999D01*
X91559783Y-79249999D02*
X91593116Y-79216666D01*
X91593116Y-79216666D02*
X91626450Y-79249999D01*
X91626450Y-79249999D02*
X91593116Y-79283333D01*
X91593116Y-79283333D02*
X91559783Y-79249999D01*
X91559783Y-79249999D02*
X91626450Y-79249999D01*
X92259783Y-79683332D02*
X92226450Y-79616666D01*
X92226450Y-79616666D02*
X92159783Y-79583332D01*
X92159783Y-79583332D02*
X91559783Y-79583332D01*
X92226450Y-80216666D02*
X92259783Y-80149999D01*
X92259783Y-80149999D02*
X92259783Y-80016666D01*
X92259783Y-80016666D02*
X92226450Y-79949999D01*
X92226450Y-79949999D02*
X92159783Y-79916666D01*
X92159783Y-79916666D02*
X91893116Y-79916666D01*
X91893116Y-79916666D02*
X91826450Y-79949999D01*
X91826450Y-79949999D02*
X91793116Y-80016666D01*
X91793116Y-80016666D02*
X91793116Y-80149999D01*
X91793116Y-80149999D02*
X91826450Y-80216666D01*
X91826450Y-80216666D02*
X91893116Y-80249999D01*
X91893116Y-80249999D02*
X91959783Y-80249999D01*
X91959783Y-80249999D02*
X92026450Y-79916666D01*
X77932783Y-74550000D02*
X77932783Y-74883333D01*
X78132783Y-74483333D02*
X77432783Y-74716667D01*
X77432783Y-74716667D02*
X78132783Y-74950000D01*
X78132783Y-75283333D02*
X78099450Y-75216667D01*
X78099450Y-75216667D02*
X78032783Y-75183333D01*
X78032783Y-75183333D02*
X77432783Y-75183333D01*
X78132783Y-75650000D02*
X78099450Y-75583334D01*
X78099450Y-75583334D02*
X78032783Y-75550000D01*
X78032783Y-75550000D02*
X77432783Y-75550000D01*
X78132783Y-76450000D02*
X77666116Y-76450000D01*
X77799450Y-76450000D02*
X77732783Y-76483334D01*
X77732783Y-76483334D02*
X77699450Y-76516667D01*
X77699450Y-76516667D02*
X77666116Y-76583334D01*
X77666116Y-76583334D02*
X77666116Y-76650000D01*
X78099450Y-77150000D02*
X78132783Y-77083333D01*
X78132783Y-77083333D02*
X78132783Y-76950000D01*
X78132783Y-76950000D02*
X78099450Y-76883333D01*
X78099450Y-76883333D02*
X78032783Y-76850000D01*
X78032783Y-76850000D02*
X77766116Y-76850000D01*
X77766116Y-76850000D02*
X77699450Y-76883333D01*
X77699450Y-76883333D02*
X77666116Y-76950000D01*
X77666116Y-76950000D02*
X77666116Y-77083333D01*
X77666116Y-77083333D02*
X77699450Y-77150000D01*
X77699450Y-77150000D02*
X77766116Y-77183333D01*
X77766116Y-77183333D02*
X77832783Y-77183333D01*
X77832783Y-77183333D02*
X77899450Y-76850000D01*
X78099450Y-77450000D02*
X78132783Y-77516667D01*
X78132783Y-77516667D02*
X78132783Y-77650000D01*
X78132783Y-77650000D02*
X78099450Y-77716667D01*
X78099450Y-77716667D02*
X78032783Y-77750000D01*
X78032783Y-77750000D02*
X77999450Y-77750000D01*
X77999450Y-77750000D02*
X77932783Y-77716667D01*
X77932783Y-77716667D02*
X77899450Y-77650000D01*
X77899450Y-77650000D02*
X77899450Y-77550000D01*
X77899450Y-77550000D02*
X77866116Y-77483333D01*
X77866116Y-77483333D02*
X77799450Y-77450000D01*
X77799450Y-77450000D02*
X77766116Y-77450000D01*
X77766116Y-77450000D02*
X77699450Y-77483333D01*
X77699450Y-77483333D02*
X77666116Y-77550000D01*
X77666116Y-77550000D02*
X77666116Y-77650000D01*
X77666116Y-77650000D02*
X77699450Y-77716667D01*
X78132783Y-78050000D02*
X77666116Y-78050000D01*
X77432783Y-78050000D02*
X77466116Y-78016667D01*
X77466116Y-78016667D02*
X77499450Y-78050000D01*
X77499450Y-78050000D02*
X77466116Y-78083334D01*
X77466116Y-78083334D02*
X77432783Y-78050000D01*
X77432783Y-78050000D02*
X77499450Y-78050000D01*
X78099450Y-78350000D02*
X78132783Y-78416667D01*
X78132783Y-78416667D02*
X78132783Y-78550000D01*
X78132783Y-78550000D02*
X78099450Y-78616667D01*
X78099450Y-78616667D02*
X78032783Y-78650000D01*
X78032783Y-78650000D02*
X77999450Y-78650000D01*
X77999450Y-78650000D02*
X77932783Y-78616667D01*
X77932783Y-78616667D02*
X77899450Y-78550000D01*
X77899450Y-78550000D02*
X77899450Y-78450000D01*
X77899450Y-78450000D02*
X77866116Y-78383333D01*
X77866116Y-78383333D02*
X77799450Y-78350000D01*
X77799450Y-78350000D02*
X77766116Y-78350000D01*
X77766116Y-78350000D02*
X77699450Y-78383333D01*
X77699450Y-78383333D02*
X77666116Y-78450000D01*
X77666116Y-78450000D02*
X77666116Y-78550000D01*
X77666116Y-78550000D02*
X77699450Y-78616667D01*
X77666116Y-78850000D02*
X77666116Y-79116667D01*
X77432783Y-78950000D02*
X78032783Y-78950000D01*
X78032783Y-78950000D02*
X78099450Y-78983334D01*
X78099450Y-78983334D02*
X78132783Y-79050000D01*
X78132783Y-79050000D02*
X78132783Y-79116667D01*
X78132783Y-79650000D02*
X77766116Y-79650000D01*
X77766116Y-79650000D02*
X77699450Y-79616667D01*
X77699450Y-79616667D02*
X77666116Y-79550000D01*
X77666116Y-79550000D02*
X77666116Y-79416667D01*
X77666116Y-79416667D02*
X77699450Y-79350000D01*
X78099450Y-79650000D02*
X78132783Y-79583334D01*
X78132783Y-79583334D02*
X78132783Y-79416667D01*
X78132783Y-79416667D02*
X78099450Y-79350000D01*
X78099450Y-79350000D02*
X78032783Y-79316667D01*
X78032783Y-79316667D02*
X77966116Y-79316667D01*
X77966116Y-79316667D02*
X77899450Y-79350000D01*
X77899450Y-79350000D02*
X77866116Y-79416667D01*
X77866116Y-79416667D02*
X77866116Y-79583334D01*
X77866116Y-79583334D02*
X77832783Y-79650000D01*
X77666116Y-79983333D02*
X78132783Y-79983333D01*
X77732783Y-79983333D02*
X77699450Y-80016667D01*
X77699450Y-80016667D02*
X77666116Y-80083333D01*
X77666116Y-80083333D02*
X77666116Y-80183333D01*
X77666116Y-80183333D02*
X77699450Y-80250000D01*
X77699450Y-80250000D02*
X77766116Y-80283333D01*
X77766116Y-80283333D02*
X78132783Y-80283333D01*
X78099450Y-80916666D02*
X78132783Y-80850000D01*
X78132783Y-80850000D02*
X78132783Y-80716666D01*
X78132783Y-80716666D02*
X78099450Y-80650000D01*
X78099450Y-80650000D02*
X78066116Y-80616666D01*
X78066116Y-80616666D02*
X77999450Y-80583333D01*
X77999450Y-80583333D02*
X77799450Y-80583333D01*
X77799450Y-80583333D02*
X77732783Y-80616666D01*
X77732783Y-80616666D02*
X77699450Y-80650000D01*
X77699450Y-80650000D02*
X77666116Y-80716666D01*
X77666116Y-80716666D02*
X77666116Y-80850000D01*
X77666116Y-80850000D02*
X77699450Y-80916666D01*
X78099450Y-81483333D02*
X78132783Y-81416666D01*
X78132783Y-81416666D02*
X78132783Y-81283333D01*
X78132783Y-81283333D02*
X78099450Y-81216666D01*
X78099450Y-81216666D02*
X78032783Y-81183333D01*
X78032783Y-81183333D02*
X77766116Y-81183333D01*
X77766116Y-81183333D02*
X77699450Y-81216666D01*
X77699450Y-81216666D02*
X77666116Y-81283333D01*
X77666116Y-81283333D02*
X77666116Y-81416666D01*
X77666116Y-81416666D02*
X77699450Y-81483333D01*
X77699450Y-81483333D02*
X77766116Y-81516666D01*
X77766116Y-81516666D02*
X77832783Y-81516666D01*
X77832783Y-81516666D02*
X77899450Y-81183333D01*
X79259783Y-76383333D02*
X78793116Y-76383333D01*
X78559783Y-76383333D02*
X78593116Y-76350000D01*
X78593116Y-76350000D02*
X78626450Y-76383333D01*
X78626450Y-76383333D02*
X78593116Y-76416667D01*
X78593116Y-76416667D02*
X78559783Y-76383333D01*
X78559783Y-76383333D02*
X78626450Y-76383333D01*
X79226450Y-76683333D02*
X79259783Y-76750000D01*
X79259783Y-76750000D02*
X79259783Y-76883333D01*
X79259783Y-76883333D02*
X79226450Y-76950000D01*
X79226450Y-76950000D02*
X79159783Y-76983333D01*
X79159783Y-76983333D02*
X79126450Y-76983333D01*
X79126450Y-76983333D02*
X79059783Y-76950000D01*
X79059783Y-76950000D02*
X79026450Y-76883333D01*
X79026450Y-76883333D02*
X79026450Y-76783333D01*
X79026450Y-76783333D02*
X78993116Y-76716666D01*
X78993116Y-76716666D02*
X78926450Y-76683333D01*
X78926450Y-76683333D02*
X78893116Y-76683333D01*
X78893116Y-76683333D02*
X78826450Y-76716666D01*
X78826450Y-76716666D02*
X78793116Y-76783333D01*
X78793116Y-76783333D02*
X78793116Y-76883333D01*
X78793116Y-76883333D02*
X78826450Y-76950000D01*
X78793116Y-77716666D02*
X78793116Y-77983333D01*
X79259783Y-77816666D02*
X78659783Y-77816666D01*
X78659783Y-77816666D02*
X78593116Y-77850000D01*
X78593116Y-77850000D02*
X78559783Y-77916666D01*
X78559783Y-77916666D02*
X78559783Y-77983333D01*
X78793116Y-78516666D02*
X79259783Y-78516666D01*
X78793116Y-78216666D02*
X79159783Y-78216666D01*
X79159783Y-78216666D02*
X79226450Y-78250000D01*
X79226450Y-78250000D02*
X79259783Y-78316666D01*
X79259783Y-78316666D02*
X79259783Y-78416666D01*
X79259783Y-78416666D02*
X79226450Y-78483333D01*
X79226450Y-78483333D02*
X79193116Y-78516666D01*
X78793116Y-78749999D02*
X78793116Y-79016666D01*
X78559783Y-78849999D02*
X79159783Y-78849999D01*
X79159783Y-78849999D02*
X79226450Y-78883333D01*
X79226450Y-78883333D02*
X79259783Y-78949999D01*
X79259783Y-78949999D02*
X79259783Y-79016666D01*
X79259783Y-79249999D02*
X78793116Y-79249999D01*
X78559783Y-79249999D02*
X78593116Y-79216666D01*
X78593116Y-79216666D02*
X78626450Y-79249999D01*
X78626450Y-79249999D02*
X78593116Y-79283333D01*
X78593116Y-79283333D02*
X78559783Y-79249999D01*
X78559783Y-79249999D02*
X78626450Y-79249999D01*
X79259783Y-79683332D02*
X79226450Y-79616666D01*
X79226450Y-79616666D02*
X79159783Y-79583332D01*
X79159783Y-79583332D02*
X78559783Y-79583332D01*
X79226450Y-80216666D02*
X79259783Y-80149999D01*
X79259783Y-80149999D02*
X79259783Y-80016666D01*
X79259783Y-80016666D02*
X79226450Y-79949999D01*
X79226450Y-79949999D02*
X79159783Y-79916666D01*
X79159783Y-79916666D02*
X78893116Y-79916666D01*
X78893116Y-79916666D02*
X78826450Y-79949999D01*
X78826450Y-79949999D02*
X78793116Y-80016666D01*
X78793116Y-80016666D02*
X78793116Y-80149999D01*
X78793116Y-80149999D02*
X78826450Y-80216666D01*
X78826450Y-80216666D02*
X78893116Y-80249999D01*
X78893116Y-80249999D02*
X78959783Y-80249999D01*
X78959783Y-80249999D02*
X79026450Y-79916666D01*
X90932783Y-60550000D02*
X90932783Y-60883333D01*
X91132783Y-60483333D02*
X90432783Y-60716667D01*
X90432783Y-60716667D02*
X91132783Y-60950000D01*
X91132783Y-61283333D02*
X91099450Y-61216667D01*
X91099450Y-61216667D02*
X91032783Y-61183333D01*
X91032783Y-61183333D02*
X90432783Y-61183333D01*
X91132783Y-61650000D02*
X91099450Y-61583334D01*
X91099450Y-61583334D02*
X91032783Y-61550000D01*
X91032783Y-61550000D02*
X90432783Y-61550000D01*
X91132783Y-62450000D02*
X90666116Y-62450000D01*
X90799450Y-62450000D02*
X90732783Y-62483334D01*
X90732783Y-62483334D02*
X90699450Y-62516667D01*
X90699450Y-62516667D02*
X90666116Y-62583334D01*
X90666116Y-62583334D02*
X90666116Y-62650000D01*
X91099450Y-63150000D02*
X91132783Y-63083333D01*
X91132783Y-63083333D02*
X91132783Y-62950000D01*
X91132783Y-62950000D02*
X91099450Y-62883333D01*
X91099450Y-62883333D02*
X91032783Y-62850000D01*
X91032783Y-62850000D02*
X90766116Y-62850000D01*
X90766116Y-62850000D02*
X90699450Y-62883333D01*
X90699450Y-62883333D02*
X90666116Y-62950000D01*
X90666116Y-62950000D02*
X90666116Y-63083333D01*
X90666116Y-63083333D02*
X90699450Y-63150000D01*
X90699450Y-63150000D02*
X90766116Y-63183333D01*
X90766116Y-63183333D02*
X90832783Y-63183333D01*
X90832783Y-63183333D02*
X90899450Y-62850000D01*
X91099450Y-63450000D02*
X91132783Y-63516667D01*
X91132783Y-63516667D02*
X91132783Y-63650000D01*
X91132783Y-63650000D02*
X91099450Y-63716667D01*
X91099450Y-63716667D02*
X91032783Y-63750000D01*
X91032783Y-63750000D02*
X90999450Y-63750000D01*
X90999450Y-63750000D02*
X90932783Y-63716667D01*
X90932783Y-63716667D02*
X90899450Y-63650000D01*
X90899450Y-63650000D02*
X90899450Y-63550000D01*
X90899450Y-63550000D02*
X90866116Y-63483333D01*
X90866116Y-63483333D02*
X90799450Y-63450000D01*
X90799450Y-63450000D02*
X90766116Y-63450000D01*
X90766116Y-63450000D02*
X90699450Y-63483333D01*
X90699450Y-63483333D02*
X90666116Y-63550000D01*
X90666116Y-63550000D02*
X90666116Y-63650000D01*
X90666116Y-63650000D02*
X90699450Y-63716667D01*
X91132783Y-64050000D02*
X90666116Y-64050000D01*
X90432783Y-64050000D02*
X90466116Y-64016667D01*
X90466116Y-64016667D02*
X90499450Y-64050000D01*
X90499450Y-64050000D02*
X90466116Y-64083334D01*
X90466116Y-64083334D02*
X90432783Y-64050000D01*
X90432783Y-64050000D02*
X90499450Y-64050000D01*
X91099450Y-64350000D02*
X91132783Y-64416667D01*
X91132783Y-64416667D02*
X91132783Y-64550000D01*
X91132783Y-64550000D02*
X91099450Y-64616667D01*
X91099450Y-64616667D02*
X91032783Y-64650000D01*
X91032783Y-64650000D02*
X90999450Y-64650000D01*
X90999450Y-64650000D02*
X90932783Y-64616667D01*
X90932783Y-64616667D02*
X90899450Y-64550000D01*
X90899450Y-64550000D02*
X90899450Y-64450000D01*
X90899450Y-64450000D02*
X90866116Y-64383333D01*
X90866116Y-64383333D02*
X90799450Y-64350000D01*
X90799450Y-64350000D02*
X90766116Y-64350000D01*
X90766116Y-64350000D02*
X90699450Y-64383333D01*
X90699450Y-64383333D02*
X90666116Y-64450000D01*
X90666116Y-64450000D02*
X90666116Y-64550000D01*
X90666116Y-64550000D02*
X90699450Y-64616667D01*
X90666116Y-64850000D02*
X90666116Y-65116667D01*
X90432783Y-64950000D02*
X91032783Y-64950000D01*
X91032783Y-64950000D02*
X91099450Y-64983334D01*
X91099450Y-64983334D02*
X91132783Y-65050000D01*
X91132783Y-65050000D02*
X91132783Y-65116667D01*
X91132783Y-65650000D02*
X90766116Y-65650000D01*
X90766116Y-65650000D02*
X90699450Y-65616667D01*
X90699450Y-65616667D02*
X90666116Y-65550000D01*
X90666116Y-65550000D02*
X90666116Y-65416667D01*
X90666116Y-65416667D02*
X90699450Y-65350000D01*
X91099450Y-65650000D02*
X91132783Y-65583334D01*
X91132783Y-65583334D02*
X91132783Y-65416667D01*
X91132783Y-65416667D02*
X91099450Y-65350000D01*
X91099450Y-65350000D02*
X91032783Y-65316667D01*
X91032783Y-65316667D02*
X90966116Y-65316667D01*
X90966116Y-65316667D02*
X90899450Y-65350000D01*
X90899450Y-65350000D02*
X90866116Y-65416667D01*
X90866116Y-65416667D02*
X90866116Y-65583334D01*
X90866116Y-65583334D02*
X90832783Y-65650000D01*
X90666116Y-65983333D02*
X91132783Y-65983333D01*
X90732783Y-65983333D02*
X90699450Y-66016667D01*
X90699450Y-66016667D02*
X90666116Y-66083333D01*
X90666116Y-66083333D02*
X90666116Y-66183333D01*
X90666116Y-66183333D02*
X90699450Y-66250000D01*
X90699450Y-66250000D02*
X90766116Y-66283333D01*
X90766116Y-66283333D02*
X91132783Y-66283333D01*
X91099450Y-66916666D02*
X91132783Y-66850000D01*
X91132783Y-66850000D02*
X91132783Y-66716666D01*
X91132783Y-66716666D02*
X91099450Y-66650000D01*
X91099450Y-66650000D02*
X91066116Y-66616666D01*
X91066116Y-66616666D02*
X90999450Y-66583333D01*
X90999450Y-66583333D02*
X90799450Y-66583333D01*
X90799450Y-66583333D02*
X90732783Y-66616666D01*
X90732783Y-66616666D02*
X90699450Y-66650000D01*
X90699450Y-66650000D02*
X90666116Y-66716666D01*
X90666116Y-66716666D02*
X90666116Y-66850000D01*
X90666116Y-66850000D02*
X90699450Y-66916666D01*
X91099450Y-67483333D02*
X91132783Y-67416666D01*
X91132783Y-67416666D02*
X91132783Y-67283333D01*
X91132783Y-67283333D02*
X91099450Y-67216666D01*
X91099450Y-67216666D02*
X91032783Y-67183333D01*
X91032783Y-67183333D02*
X90766116Y-67183333D01*
X90766116Y-67183333D02*
X90699450Y-67216666D01*
X90699450Y-67216666D02*
X90666116Y-67283333D01*
X90666116Y-67283333D02*
X90666116Y-67416666D01*
X90666116Y-67416666D02*
X90699450Y-67483333D01*
X90699450Y-67483333D02*
X90766116Y-67516666D01*
X90766116Y-67516666D02*
X90832783Y-67516666D01*
X90832783Y-67516666D02*
X90899450Y-67183333D01*
X92259783Y-62383333D02*
X91793116Y-62383333D01*
X91559783Y-62383333D02*
X91593116Y-62350000D01*
X91593116Y-62350000D02*
X91626450Y-62383333D01*
X91626450Y-62383333D02*
X91593116Y-62416667D01*
X91593116Y-62416667D02*
X91559783Y-62383333D01*
X91559783Y-62383333D02*
X91626450Y-62383333D01*
X92226450Y-62683333D02*
X92259783Y-62750000D01*
X92259783Y-62750000D02*
X92259783Y-62883333D01*
X92259783Y-62883333D02*
X92226450Y-62950000D01*
X92226450Y-62950000D02*
X92159783Y-62983333D01*
X92159783Y-62983333D02*
X92126450Y-62983333D01*
X92126450Y-62983333D02*
X92059783Y-62950000D01*
X92059783Y-62950000D02*
X92026450Y-62883333D01*
X92026450Y-62883333D02*
X92026450Y-62783333D01*
X92026450Y-62783333D02*
X91993116Y-62716666D01*
X91993116Y-62716666D02*
X91926450Y-62683333D01*
X91926450Y-62683333D02*
X91893116Y-62683333D01*
X91893116Y-62683333D02*
X91826450Y-62716666D01*
X91826450Y-62716666D02*
X91793116Y-62783333D01*
X91793116Y-62783333D02*
X91793116Y-62883333D01*
X91793116Y-62883333D02*
X91826450Y-62950000D01*
X91793116Y-63716666D02*
X91793116Y-63983333D01*
X92259783Y-63816666D02*
X91659783Y-63816666D01*
X91659783Y-63816666D02*
X91593116Y-63850000D01*
X91593116Y-63850000D02*
X91559783Y-63916666D01*
X91559783Y-63916666D02*
X91559783Y-63983333D01*
X91793116Y-64516666D02*
X92259783Y-64516666D01*
X91793116Y-64216666D02*
X92159783Y-64216666D01*
X92159783Y-64216666D02*
X92226450Y-64250000D01*
X92226450Y-64250000D02*
X92259783Y-64316666D01*
X92259783Y-64316666D02*
X92259783Y-64416666D01*
X92259783Y-64416666D02*
X92226450Y-64483333D01*
X92226450Y-64483333D02*
X92193116Y-64516666D01*
X91793116Y-64749999D02*
X91793116Y-65016666D01*
X91559783Y-64849999D02*
X92159783Y-64849999D01*
X92159783Y-64849999D02*
X92226450Y-64883333D01*
X92226450Y-64883333D02*
X92259783Y-64949999D01*
X92259783Y-64949999D02*
X92259783Y-65016666D01*
X92259783Y-65249999D02*
X91793116Y-65249999D01*
X91559783Y-65249999D02*
X91593116Y-65216666D01*
X91593116Y-65216666D02*
X91626450Y-65249999D01*
X91626450Y-65249999D02*
X91593116Y-65283333D01*
X91593116Y-65283333D02*
X91559783Y-65249999D01*
X91559783Y-65249999D02*
X91626450Y-65249999D01*
X92259783Y-65683332D02*
X92226450Y-65616666D01*
X92226450Y-65616666D02*
X92159783Y-65583332D01*
X92159783Y-65583332D02*
X91559783Y-65583332D01*
X92226450Y-66216666D02*
X92259783Y-66149999D01*
X92259783Y-66149999D02*
X92259783Y-66016666D01*
X92259783Y-66016666D02*
X92226450Y-65949999D01*
X92226450Y-65949999D02*
X92159783Y-65916666D01*
X92159783Y-65916666D02*
X91893116Y-65916666D01*
X91893116Y-65916666D02*
X91826450Y-65949999D01*
X91826450Y-65949999D02*
X91793116Y-66016666D01*
X91793116Y-66016666D02*
X91793116Y-66149999D01*
X91793116Y-66149999D02*
X91826450Y-66216666D01*
X91826450Y-66216666D02*
X91893116Y-66249999D01*
X91893116Y-66249999D02*
X91959783Y-66249999D01*
X91959783Y-66249999D02*
X92026450Y-65916666D01*
X77932783Y-60550000D02*
X77932783Y-60883333D01*
X78132783Y-60483333D02*
X77432783Y-60716667D01*
X77432783Y-60716667D02*
X78132783Y-60950000D01*
X78132783Y-61283333D02*
X78099450Y-61216667D01*
X78099450Y-61216667D02*
X78032783Y-61183333D01*
X78032783Y-61183333D02*
X77432783Y-61183333D01*
X78132783Y-61650000D02*
X78099450Y-61583334D01*
X78099450Y-61583334D02*
X78032783Y-61550000D01*
X78032783Y-61550000D02*
X77432783Y-61550000D01*
X78132783Y-62450000D02*
X77666116Y-62450000D01*
X77799450Y-62450000D02*
X77732783Y-62483334D01*
X77732783Y-62483334D02*
X77699450Y-62516667D01*
X77699450Y-62516667D02*
X77666116Y-62583334D01*
X77666116Y-62583334D02*
X77666116Y-62650000D01*
X78099450Y-63150000D02*
X78132783Y-63083333D01*
X78132783Y-63083333D02*
X78132783Y-62950000D01*
X78132783Y-62950000D02*
X78099450Y-62883333D01*
X78099450Y-62883333D02*
X78032783Y-62850000D01*
X78032783Y-62850000D02*
X77766116Y-62850000D01*
X77766116Y-62850000D02*
X77699450Y-62883333D01*
X77699450Y-62883333D02*
X77666116Y-62950000D01*
X77666116Y-62950000D02*
X77666116Y-63083333D01*
X77666116Y-63083333D02*
X77699450Y-63150000D01*
X77699450Y-63150000D02*
X77766116Y-63183333D01*
X77766116Y-63183333D02*
X77832783Y-63183333D01*
X77832783Y-63183333D02*
X77899450Y-62850000D01*
X78099450Y-63450000D02*
X78132783Y-63516667D01*
X78132783Y-63516667D02*
X78132783Y-63650000D01*
X78132783Y-63650000D02*
X78099450Y-63716667D01*
X78099450Y-63716667D02*
X78032783Y-63750000D01*
X78032783Y-63750000D02*
X77999450Y-63750000D01*
X77999450Y-63750000D02*
X77932783Y-63716667D01*
X77932783Y-63716667D02*
X77899450Y-63650000D01*
X77899450Y-63650000D02*
X77899450Y-63550000D01*
X77899450Y-63550000D02*
X77866116Y-63483333D01*
X77866116Y-63483333D02*
X77799450Y-63450000D01*
X77799450Y-63450000D02*
X77766116Y-63450000D01*
X77766116Y-63450000D02*
X77699450Y-63483333D01*
X77699450Y-63483333D02*
X77666116Y-63550000D01*
X77666116Y-63550000D02*
X77666116Y-63650000D01*
X77666116Y-63650000D02*
X77699450Y-63716667D01*
X78132783Y-64050000D02*
X77666116Y-64050000D01*
X77432783Y-64050000D02*
X77466116Y-64016667D01*
X77466116Y-64016667D02*
X77499450Y-64050000D01*
X77499450Y-64050000D02*
X77466116Y-64083334D01*
X77466116Y-64083334D02*
X77432783Y-64050000D01*
X77432783Y-64050000D02*
X77499450Y-64050000D01*
X78099450Y-64350000D02*
X78132783Y-64416667D01*
X78132783Y-64416667D02*
X78132783Y-64550000D01*
X78132783Y-64550000D02*
X78099450Y-64616667D01*
X78099450Y-64616667D02*
X78032783Y-64650000D01*
X78032783Y-64650000D02*
X77999450Y-64650000D01*
X77999450Y-64650000D02*
X77932783Y-64616667D01*
X77932783Y-64616667D02*
X77899450Y-64550000D01*
X77899450Y-64550000D02*
X77899450Y-64450000D01*
X77899450Y-64450000D02*
X77866116Y-64383333D01*
X77866116Y-64383333D02*
X77799450Y-64350000D01*
X77799450Y-64350000D02*
X77766116Y-64350000D01*
X77766116Y-64350000D02*
X77699450Y-64383333D01*
X77699450Y-64383333D02*
X77666116Y-64450000D01*
X77666116Y-64450000D02*
X77666116Y-64550000D01*
X77666116Y-64550000D02*
X77699450Y-64616667D01*
X77666116Y-64850000D02*
X77666116Y-65116667D01*
X77432783Y-64950000D02*
X78032783Y-64950000D01*
X78032783Y-64950000D02*
X78099450Y-64983334D01*
X78099450Y-64983334D02*
X78132783Y-65050000D01*
X78132783Y-65050000D02*
X78132783Y-65116667D01*
X78132783Y-65650000D02*
X77766116Y-65650000D01*
X77766116Y-65650000D02*
X77699450Y-65616667D01*
X77699450Y-65616667D02*
X77666116Y-65550000D01*
X77666116Y-65550000D02*
X77666116Y-65416667D01*
X77666116Y-65416667D02*
X77699450Y-65350000D01*
X78099450Y-65650000D02*
X78132783Y-65583334D01*
X78132783Y-65583334D02*
X78132783Y-65416667D01*
X78132783Y-65416667D02*
X78099450Y-65350000D01*
X78099450Y-65350000D02*
X78032783Y-65316667D01*
X78032783Y-65316667D02*
X77966116Y-65316667D01*
X77966116Y-65316667D02*
X77899450Y-65350000D01*
X77899450Y-65350000D02*
X77866116Y-65416667D01*
X77866116Y-65416667D02*
X77866116Y-65583334D01*
X77866116Y-65583334D02*
X77832783Y-65650000D01*
X77666116Y-65983333D02*
X78132783Y-65983333D01*
X77732783Y-65983333D02*
X77699450Y-66016667D01*
X77699450Y-66016667D02*
X77666116Y-66083333D01*
X77666116Y-66083333D02*
X77666116Y-66183333D01*
X77666116Y-66183333D02*
X77699450Y-66250000D01*
X77699450Y-66250000D02*
X77766116Y-66283333D01*
X77766116Y-66283333D02*
X78132783Y-66283333D01*
X78099450Y-66916666D02*
X78132783Y-66850000D01*
X78132783Y-66850000D02*
X78132783Y-66716666D01*
X78132783Y-66716666D02*
X78099450Y-66650000D01*
X78099450Y-66650000D02*
X78066116Y-66616666D01*
X78066116Y-66616666D02*
X77999450Y-66583333D01*
X77999450Y-66583333D02*
X77799450Y-66583333D01*
X77799450Y-66583333D02*
X77732783Y-66616666D01*
X77732783Y-66616666D02*
X77699450Y-66650000D01*
X77699450Y-66650000D02*
X77666116Y-66716666D01*
X77666116Y-66716666D02*
X77666116Y-66850000D01*
X77666116Y-66850000D02*
X77699450Y-66916666D01*
X78099450Y-67483333D02*
X78132783Y-67416666D01*
X78132783Y-67416666D02*
X78132783Y-67283333D01*
X78132783Y-67283333D02*
X78099450Y-67216666D01*
X78099450Y-67216666D02*
X78032783Y-67183333D01*
X78032783Y-67183333D02*
X77766116Y-67183333D01*
X77766116Y-67183333D02*
X77699450Y-67216666D01*
X77699450Y-67216666D02*
X77666116Y-67283333D01*
X77666116Y-67283333D02*
X77666116Y-67416666D01*
X77666116Y-67416666D02*
X77699450Y-67483333D01*
X77699450Y-67483333D02*
X77766116Y-67516666D01*
X77766116Y-67516666D02*
X77832783Y-67516666D01*
X77832783Y-67516666D02*
X77899450Y-67183333D01*
X79259783Y-62383333D02*
X78793116Y-62383333D01*
X78559783Y-62383333D02*
X78593116Y-62350000D01*
X78593116Y-62350000D02*
X78626450Y-62383333D01*
X78626450Y-62383333D02*
X78593116Y-62416667D01*
X78593116Y-62416667D02*
X78559783Y-62383333D01*
X78559783Y-62383333D02*
X78626450Y-62383333D01*
X79226450Y-62683333D02*
X79259783Y-62750000D01*
X79259783Y-62750000D02*
X79259783Y-62883333D01*
X79259783Y-62883333D02*
X79226450Y-62950000D01*
X79226450Y-62950000D02*
X79159783Y-62983333D01*
X79159783Y-62983333D02*
X79126450Y-62983333D01*
X79126450Y-62983333D02*
X79059783Y-62950000D01*
X79059783Y-62950000D02*
X79026450Y-62883333D01*
X79026450Y-62883333D02*
X79026450Y-62783333D01*
X79026450Y-62783333D02*
X78993116Y-62716666D01*
X78993116Y-62716666D02*
X78926450Y-62683333D01*
X78926450Y-62683333D02*
X78893116Y-62683333D01*
X78893116Y-62683333D02*
X78826450Y-62716666D01*
X78826450Y-62716666D02*
X78793116Y-62783333D01*
X78793116Y-62783333D02*
X78793116Y-62883333D01*
X78793116Y-62883333D02*
X78826450Y-62950000D01*
X78793116Y-63716666D02*
X78793116Y-63983333D01*
X79259783Y-63816666D02*
X78659783Y-63816666D01*
X78659783Y-63816666D02*
X78593116Y-63850000D01*
X78593116Y-63850000D02*
X78559783Y-63916666D01*
X78559783Y-63916666D02*
X78559783Y-63983333D01*
X78793116Y-64516666D02*
X79259783Y-64516666D01*
X78793116Y-64216666D02*
X79159783Y-64216666D01*
X79159783Y-64216666D02*
X79226450Y-64250000D01*
X79226450Y-64250000D02*
X79259783Y-64316666D01*
X79259783Y-64316666D02*
X79259783Y-64416666D01*
X79259783Y-64416666D02*
X79226450Y-64483333D01*
X79226450Y-64483333D02*
X79193116Y-64516666D01*
X78793116Y-64749999D02*
X78793116Y-65016666D01*
X78559783Y-64849999D02*
X79159783Y-64849999D01*
X79159783Y-64849999D02*
X79226450Y-64883333D01*
X79226450Y-64883333D02*
X79259783Y-64949999D01*
X79259783Y-64949999D02*
X79259783Y-65016666D01*
X79259783Y-65249999D02*
X78793116Y-65249999D01*
X78559783Y-65249999D02*
X78593116Y-65216666D01*
X78593116Y-65216666D02*
X78626450Y-65249999D01*
X78626450Y-65249999D02*
X78593116Y-65283333D01*
X78593116Y-65283333D02*
X78559783Y-65249999D01*
X78559783Y-65249999D02*
X78626450Y-65249999D01*
X79259783Y-65683332D02*
X79226450Y-65616666D01*
X79226450Y-65616666D02*
X79159783Y-65583332D01*
X79159783Y-65583332D02*
X78559783Y-65583332D01*
X79226450Y-66216666D02*
X79259783Y-66149999D01*
X79259783Y-66149999D02*
X79259783Y-66016666D01*
X79259783Y-66016666D02*
X79226450Y-65949999D01*
X79226450Y-65949999D02*
X79159783Y-65916666D01*
X79159783Y-65916666D02*
X78893116Y-65916666D01*
X78893116Y-65916666D02*
X78826450Y-65949999D01*
X78826450Y-65949999D02*
X78793116Y-66016666D01*
X78793116Y-66016666D02*
X78793116Y-66149999D01*
X78793116Y-66149999D02*
X78826450Y-66216666D01*
X78826450Y-66216666D02*
X78893116Y-66249999D01*
X78893116Y-66249999D02*
X78959783Y-66249999D01*
X78959783Y-66249999D02*
X79026450Y-65916666D01*
X64932783Y-74550000D02*
X64932783Y-74883333D01*
X65132783Y-74483333D02*
X64432783Y-74716667D01*
X64432783Y-74716667D02*
X65132783Y-74950000D01*
X65132783Y-75283333D02*
X65099450Y-75216667D01*
X65099450Y-75216667D02*
X65032783Y-75183333D01*
X65032783Y-75183333D02*
X64432783Y-75183333D01*
X65132783Y-75650000D02*
X65099450Y-75583334D01*
X65099450Y-75583334D02*
X65032783Y-75550000D01*
X65032783Y-75550000D02*
X64432783Y-75550000D01*
X65132783Y-76450000D02*
X64666116Y-76450000D01*
X64799450Y-76450000D02*
X64732783Y-76483334D01*
X64732783Y-76483334D02*
X64699450Y-76516667D01*
X64699450Y-76516667D02*
X64666116Y-76583334D01*
X64666116Y-76583334D02*
X64666116Y-76650000D01*
X65099450Y-77150000D02*
X65132783Y-77083333D01*
X65132783Y-77083333D02*
X65132783Y-76950000D01*
X65132783Y-76950000D02*
X65099450Y-76883333D01*
X65099450Y-76883333D02*
X65032783Y-76850000D01*
X65032783Y-76850000D02*
X64766116Y-76850000D01*
X64766116Y-76850000D02*
X64699450Y-76883333D01*
X64699450Y-76883333D02*
X64666116Y-76950000D01*
X64666116Y-76950000D02*
X64666116Y-77083333D01*
X64666116Y-77083333D02*
X64699450Y-77150000D01*
X64699450Y-77150000D02*
X64766116Y-77183333D01*
X64766116Y-77183333D02*
X64832783Y-77183333D01*
X64832783Y-77183333D02*
X64899450Y-76850000D01*
X65099450Y-77450000D02*
X65132783Y-77516667D01*
X65132783Y-77516667D02*
X65132783Y-77650000D01*
X65132783Y-77650000D02*
X65099450Y-77716667D01*
X65099450Y-77716667D02*
X65032783Y-77750000D01*
X65032783Y-77750000D02*
X64999450Y-77750000D01*
X64999450Y-77750000D02*
X64932783Y-77716667D01*
X64932783Y-77716667D02*
X64899450Y-77650000D01*
X64899450Y-77650000D02*
X64899450Y-77550000D01*
X64899450Y-77550000D02*
X64866116Y-77483333D01*
X64866116Y-77483333D02*
X64799450Y-77450000D01*
X64799450Y-77450000D02*
X64766116Y-77450000D01*
X64766116Y-77450000D02*
X64699450Y-77483333D01*
X64699450Y-77483333D02*
X64666116Y-77550000D01*
X64666116Y-77550000D02*
X64666116Y-77650000D01*
X64666116Y-77650000D02*
X64699450Y-77716667D01*
X65132783Y-78050000D02*
X64666116Y-78050000D01*
X64432783Y-78050000D02*
X64466116Y-78016667D01*
X64466116Y-78016667D02*
X64499450Y-78050000D01*
X64499450Y-78050000D02*
X64466116Y-78083334D01*
X64466116Y-78083334D02*
X64432783Y-78050000D01*
X64432783Y-78050000D02*
X64499450Y-78050000D01*
X65099450Y-78350000D02*
X65132783Y-78416667D01*
X65132783Y-78416667D02*
X65132783Y-78550000D01*
X65132783Y-78550000D02*
X65099450Y-78616667D01*
X65099450Y-78616667D02*
X65032783Y-78650000D01*
X65032783Y-78650000D02*
X64999450Y-78650000D01*
X64999450Y-78650000D02*
X64932783Y-78616667D01*
X64932783Y-78616667D02*
X64899450Y-78550000D01*
X64899450Y-78550000D02*
X64899450Y-78450000D01*
X64899450Y-78450000D02*
X64866116Y-78383333D01*
X64866116Y-78383333D02*
X64799450Y-78350000D01*
X64799450Y-78350000D02*
X64766116Y-78350000D01*
X64766116Y-78350000D02*
X64699450Y-78383333D01*
X64699450Y-78383333D02*
X64666116Y-78450000D01*
X64666116Y-78450000D02*
X64666116Y-78550000D01*
X64666116Y-78550000D02*
X64699450Y-78616667D01*
X64666116Y-78850000D02*
X64666116Y-79116667D01*
X64432783Y-78950000D02*
X65032783Y-78950000D01*
X65032783Y-78950000D02*
X65099450Y-78983334D01*
X65099450Y-78983334D02*
X65132783Y-79050000D01*
X65132783Y-79050000D02*
X65132783Y-79116667D01*
X65132783Y-79650000D02*
X64766116Y-79650000D01*
X64766116Y-79650000D02*
X64699450Y-79616667D01*
X64699450Y-79616667D02*
X64666116Y-79550000D01*
X64666116Y-79550000D02*
X64666116Y-79416667D01*
X64666116Y-79416667D02*
X64699450Y-79350000D01*
X65099450Y-79650000D02*
X65132783Y-79583334D01*
X65132783Y-79583334D02*
X65132783Y-79416667D01*
X65132783Y-79416667D02*
X65099450Y-79350000D01*
X65099450Y-79350000D02*
X65032783Y-79316667D01*
X65032783Y-79316667D02*
X64966116Y-79316667D01*
X64966116Y-79316667D02*
X64899450Y-79350000D01*
X64899450Y-79350000D02*
X64866116Y-79416667D01*
X64866116Y-79416667D02*
X64866116Y-79583334D01*
X64866116Y-79583334D02*
X64832783Y-79650000D01*
X64666116Y-79983333D02*
X65132783Y-79983333D01*
X64732783Y-79983333D02*
X64699450Y-80016667D01*
X64699450Y-80016667D02*
X64666116Y-80083333D01*
X64666116Y-80083333D02*
X64666116Y-80183333D01*
X64666116Y-80183333D02*
X64699450Y-80250000D01*
X64699450Y-80250000D02*
X64766116Y-80283333D01*
X64766116Y-80283333D02*
X65132783Y-80283333D01*
X65099450Y-80916666D02*
X65132783Y-80850000D01*
X65132783Y-80850000D02*
X65132783Y-80716666D01*
X65132783Y-80716666D02*
X65099450Y-80650000D01*
X65099450Y-80650000D02*
X65066116Y-80616666D01*
X65066116Y-80616666D02*
X64999450Y-80583333D01*
X64999450Y-80583333D02*
X64799450Y-80583333D01*
X64799450Y-80583333D02*
X64732783Y-80616666D01*
X64732783Y-80616666D02*
X64699450Y-80650000D01*
X64699450Y-80650000D02*
X64666116Y-80716666D01*
X64666116Y-80716666D02*
X64666116Y-80850000D01*
X64666116Y-80850000D02*
X64699450Y-80916666D01*
X65099450Y-81483333D02*
X65132783Y-81416666D01*
X65132783Y-81416666D02*
X65132783Y-81283333D01*
X65132783Y-81283333D02*
X65099450Y-81216666D01*
X65099450Y-81216666D02*
X65032783Y-81183333D01*
X65032783Y-81183333D02*
X64766116Y-81183333D01*
X64766116Y-81183333D02*
X64699450Y-81216666D01*
X64699450Y-81216666D02*
X64666116Y-81283333D01*
X64666116Y-81283333D02*
X64666116Y-81416666D01*
X64666116Y-81416666D02*
X64699450Y-81483333D01*
X64699450Y-81483333D02*
X64766116Y-81516666D01*
X64766116Y-81516666D02*
X64832783Y-81516666D01*
X64832783Y-81516666D02*
X64899450Y-81183333D01*
X66259783Y-76383333D02*
X65793116Y-76383333D01*
X65559783Y-76383333D02*
X65593116Y-76350000D01*
X65593116Y-76350000D02*
X65626450Y-76383333D01*
X65626450Y-76383333D02*
X65593116Y-76416667D01*
X65593116Y-76416667D02*
X65559783Y-76383333D01*
X65559783Y-76383333D02*
X65626450Y-76383333D01*
X66226450Y-76683333D02*
X66259783Y-76750000D01*
X66259783Y-76750000D02*
X66259783Y-76883333D01*
X66259783Y-76883333D02*
X66226450Y-76950000D01*
X66226450Y-76950000D02*
X66159783Y-76983333D01*
X66159783Y-76983333D02*
X66126450Y-76983333D01*
X66126450Y-76983333D02*
X66059783Y-76950000D01*
X66059783Y-76950000D02*
X66026450Y-76883333D01*
X66026450Y-76883333D02*
X66026450Y-76783333D01*
X66026450Y-76783333D02*
X65993116Y-76716666D01*
X65993116Y-76716666D02*
X65926450Y-76683333D01*
X65926450Y-76683333D02*
X65893116Y-76683333D01*
X65893116Y-76683333D02*
X65826450Y-76716666D01*
X65826450Y-76716666D02*
X65793116Y-76783333D01*
X65793116Y-76783333D02*
X65793116Y-76883333D01*
X65793116Y-76883333D02*
X65826450Y-76950000D01*
X65793116Y-77716666D02*
X65793116Y-77983333D01*
X66259783Y-77816666D02*
X65659783Y-77816666D01*
X65659783Y-77816666D02*
X65593116Y-77850000D01*
X65593116Y-77850000D02*
X65559783Y-77916666D01*
X65559783Y-77916666D02*
X65559783Y-77983333D01*
X65793116Y-78516666D02*
X66259783Y-78516666D01*
X65793116Y-78216666D02*
X66159783Y-78216666D01*
X66159783Y-78216666D02*
X66226450Y-78250000D01*
X66226450Y-78250000D02*
X66259783Y-78316666D01*
X66259783Y-78316666D02*
X66259783Y-78416666D01*
X66259783Y-78416666D02*
X66226450Y-78483333D01*
X66226450Y-78483333D02*
X66193116Y-78516666D01*
X65793116Y-78749999D02*
X65793116Y-79016666D01*
X65559783Y-78849999D02*
X66159783Y-78849999D01*
X66159783Y-78849999D02*
X66226450Y-78883333D01*
X66226450Y-78883333D02*
X66259783Y-78949999D01*
X66259783Y-78949999D02*
X66259783Y-79016666D01*
X66259783Y-79249999D02*
X65793116Y-79249999D01*
X65559783Y-79249999D02*
X65593116Y-79216666D01*
X65593116Y-79216666D02*
X65626450Y-79249999D01*
X65626450Y-79249999D02*
X65593116Y-79283333D01*
X65593116Y-79283333D02*
X65559783Y-79249999D01*
X65559783Y-79249999D02*
X65626450Y-79249999D01*
X66259783Y-79683332D02*
X66226450Y-79616666D01*
X66226450Y-79616666D02*
X66159783Y-79583332D01*
X66159783Y-79583332D02*
X65559783Y-79583332D01*
X66226450Y-80216666D02*
X66259783Y-80149999D01*
X66259783Y-80149999D02*
X66259783Y-80016666D01*
X66259783Y-80016666D02*
X66226450Y-79949999D01*
X66226450Y-79949999D02*
X66159783Y-79916666D01*
X66159783Y-79916666D02*
X65893116Y-79916666D01*
X65893116Y-79916666D02*
X65826450Y-79949999D01*
X65826450Y-79949999D02*
X65793116Y-80016666D01*
X65793116Y-80016666D02*
X65793116Y-80149999D01*
X65793116Y-80149999D02*
X65826450Y-80216666D01*
X65826450Y-80216666D02*
X65893116Y-80249999D01*
X65893116Y-80249999D02*
X65959783Y-80249999D01*
X65959783Y-80249999D02*
X66026450Y-79916666D01*
X64932783Y-60550000D02*
X64932783Y-60883333D01*
X65132783Y-60483333D02*
X64432783Y-60716667D01*
X64432783Y-60716667D02*
X65132783Y-60950000D01*
X65132783Y-61283333D02*
X65099450Y-61216667D01*
X65099450Y-61216667D02*
X65032783Y-61183333D01*
X65032783Y-61183333D02*
X64432783Y-61183333D01*
X65132783Y-61650000D02*
X65099450Y-61583334D01*
X65099450Y-61583334D02*
X65032783Y-61550000D01*
X65032783Y-61550000D02*
X64432783Y-61550000D01*
X65132783Y-62450000D02*
X64666116Y-62450000D01*
X64799450Y-62450000D02*
X64732783Y-62483334D01*
X64732783Y-62483334D02*
X64699450Y-62516667D01*
X64699450Y-62516667D02*
X64666116Y-62583334D01*
X64666116Y-62583334D02*
X64666116Y-62650000D01*
X65099450Y-63150000D02*
X65132783Y-63083333D01*
X65132783Y-63083333D02*
X65132783Y-62950000D01*
X65132783Y-62950000D02*
X65099450Y-62883333D01*
X65099450Y-62883333D02*
X65032783Y-62850000D01*
X65032783Y-62850000D02*
X64766116Y-62850000D01*
X64766116Y-62850000D02*
X64699450Y-62883333D01*
X64699450Y-62883333D02*
X64666116Y-62950000D01*
X64666116Y-62950000D02*
X64666116Y-63083333D01*
X64666116Y-63083333D02*
X64699450Y-63150000D01*
X64699450Y-63150000D02*
X64766116Y-63183333D01*
X64766116Y-63183333D02*
X64832783Y-63183333D01*
X64832783Y-63183333D02*
X64899450Y-62850000D01*
X65099450Y-63450000D02*
X65132783Y-63516667D01*
X65132783Y-63516667D02*
X65132783Y-63650000D01*
X65132783Y-63650000D02*
X65099450Y-63716667D01*
X65099450Y-63716667D02*
X65032783Y-63750000D01*
X65032783Y-63750000D02*
X64999450Y-63750000D01*
X64999450Y-63750000D02*
X64932783Y-63716667D01*
X64932783Y-63716667D02*
X64899450Y-63650000D01*
X64899450Y-63650000D02*
X64899450Y-63550000D01*
X64899450Y-63550000D02*
X64866116Y-63483333D01*
X64866116Y-63483333D02*
X64799450Y-63450000D01*
X64799450Y-63450000D02*
X64766116Y-63450000D01*
X64766116Y-63450000D02*
X64699450Y-63483333D01*
X64699450Y-63483333D02*
X64666116Y-63550000D01*
X64666116Y-63550000D02*
X64666116Y-63650000D01*
X64666116Y-63650000D02*
X64699450Y-63716667D01*
X65132783Y-64050000D02*
X64666116Y-64050000D01*
X64432783Y-64050000D02*
X64466116Y-64016667D01*
X64466116Y-64016667D02*
X64499450Y-64050000D01*
X64499450Y-64050000D02*
X64466116Y-64083334D01*
X64466116Y-64083334D02*
X64432783Y-64050000D01*
X64432783Y-64050000D02*
X64499450Y-64050000D01*
X65099450Y-64350000D02*
X65132783Y-64416667D01*
X65132783Y-64416667D02*
X65132783Y-64550000D01*
X65132783Y-64550000D02*
X65099450Y-64616667D01*
X65099450Y-64616667D02*
X65032783Y-64650000D01*
X65032783Y-64650000D02*
X64999450Y-64650000D01*
X64999450Y-64650000D02*
X64932783Y-64616667D01*
X64932783Y-64616667D02*
X64899450Y-64550000D01*
X64899450Y-64550000D02*
X64899450Y-64450000D01*
X64899450Y-64450000D02*
X64866116Y-64383333D01*
X64866116Y-64383333D02*
X64799450Y-64350000D01*
X64799450Y-64350000D02*
X64766116Y-64350000D01*
X64766116Y-64350000D02*
X64699450Y-64383333D01*
X64699450Y-64383333D02*
X64666116Y-64450000D01*
X64666116Y-64450000D02*
X64666116Y-64550000D01*
X64666116Y-64550000D02*
X64699450Y-64616667D01*
X64666116Y-64850000D02*
X64666116Y-65116667D01*
X64432783Y-64950000D02*
X65032783Y-64950000D01*
X65032783Y-64950000D02*
X65099450Y-64983334D01*
X65099450Y-64983334D02*
X65132783Y-65050000D01*
X65132783Y-65050000D02*
X65132783Y-65116667D01*
X65132783Y-65650000D02*
X64766116Y-65650000D01*
X64766116Y-65650000D02*
X64699450Y-65616667D01*
X64699450Y-65616667D02*
X64666116Y-65550000D01*
X64666116Y-65550000D02*
X64666116Y-65416667D01*
X64666116Y-65416667D02*
X64699450Y-65350000D01*
X65099450Y-65650000D02*
X65132783Y-65583334D01*
X65132783Y-65583334D02*
X65132783Y-65416667D01*
X65132783Y-65416667D02*
X65099450Y-65350000D01*
X65099450Y-65350000D02*
X65032783Y-65316667D01*
X65032783Y-65316667D02*
X64966116Y-65316667D01*
X64966116Y-65316667D02*
X64899450Y-65350000D01*
X64899450Y-65350000D02*
X64866116Y-65416667D01*
X64866116Y-65416667D02*
X64866116Y-65583334D01*
X64866116Y-65583334D02*
X64832783Y-65650000D01*
X64666116Y-65983333D02*
X65132783Y-65983333D01*
X64732783Y-65983333D02*
X64699450Y-66016667D01*
X64699450Y-66016667D02*
X64666116Y-66083333D01*
X64666116Y-66083333D02*
X64666116Y-66183333D01*
X64666116Y-66183333D02*
X64699450Y-66250000D01*
X64699450Y-66250000D02*
X64766116Y-66283333D01*
X64766116Y-66283333D02*
X65132783Y-66283333D01*
X65099450Y-66916666D02*
X65132783Y-66850000D01*
X65132783Y-66850000D02*
X65132783Y-66716666D01*
X65132783Y-66716666D02*
X65099450Y-66650000D01*
X65099450Y-66650000D02*
X65066116Y-66616666D01*
X65066116Y-66616666D02*
X64999450Y-66583333D01*
X64999450Y-66583333D02*
X64799450Y-66583333D01*
X64799450Y-66583333D02*
X64732783Y-66616666D01*
X64732783Y-66616666D02*
X64699450Y-66650000D01*
X64699450Y-66650000D02*
X64666116Y-66716666D01*
X64666116Y-66716666D02*
X64666116Y-66850000D01*
X64666116Y-66850000D02*
X64699450Y-66916666D01*
X65099450Y-67483333D02*
X65132783Y-67416666D01*
X65132783Y-67416666D02*
X65132783Y-67283333D01*
X65132783Y-67283333D02*
X65099450Y-67216666D01*
X65099450Y-67216666D02*
X65032783Y-67183333D01*
X65032783Y-67183333D02*
X64766116Y-67183333D01*
X64766116Y-67183333D02*
X64699450Y-67216666D01*
X64699450Y-67216666D02*
X64666116Y-67283333D01*
X64666116Y-67283333D02*
X64666116Y-67416666D01*
X64666116Y-67416666D02*
X64699450Y-67483333D01*
X64699450Y-67483333D02*
X64766116Y-67516666D01*
X64766116Y-67516666D02*
X64832783Y-67516666D01*
X64832783Y-67516666D02*
X64899450Y-67183333D01*
X66259783Y-62383333D02*
X65793116Y-62383333D01*
X65559783Y-62383333D02*
X65593116Y-62350000D01*
X65593116Y-62350000D02*
X65626450Y-62383333D01*
X65626450Y-62383333D02*
X65593116Y-62416667D01*
X65593116Y-62416667D02*
X65559783Y-62383333D01*
X65559783Y-62383333D02*
X65626450Y-62383333D01*
X66226450Y-62683333D02*
X66259783Y-62750000D01*
X66259783Y-62750000D02*
X66259783Y-62883333D01*
X66259783Y-62883333D02*
X66226450Y-62950000D01*
X66226450Y-62950000D02*
X66159783Y-62983333D01*
X66159783Y-62983333D02*
X66126450Y-62983333D01*
X66126450Y-62983333D02*
X66059783Y-62950000D01*
X66059783Y-62950000D02*
X66026450Y-62883333D01*
X66026450Y-62883333D02*
X66026450Y-62783333D01*
X66026450Y-62783333D02*
X65993116Y-62716666D01*
X65993116Y-62716666D02*
X65926450Y-62683333D01*
X65926450Y-62683333D02*
X65893116Y-62683333D01*
X65893116Y-62683333D02*
X65826450Y-62716666D01*
X65826450Y-62716666D02*
X65793116Y-62783333D01*
X65793116Y-62783333D02*
X65793116Y-62883333D01*
X65793116Y-62883333D02*
X65826450Y-62950000D01*
X65793116Y-63716666D02*
X65793116Y-63983333D01*
X66259783Y-63816666D02*
X65659783Y-63816666D01*
X65659783Y-63816666D02*
X65593116Y-63850000D01*
X65593116Y-63850000D02*
X65559783Y-63916666D01*
X65559783Y-63916666D02*
X65559783Y-63983333D01*
X65793116Y-64516666D02*
X66259783Y-64516666D01*
X65793116Y-64216666D02*
X66159783Y-64216666D01*
X66159783Y-64216666D02*
X66226450Y-64250000D01*
X66226450Y-64250000D02*
X66259783Y-64316666D01*
X66259783Y-64316666D02*
X66259783Y-64416666D01*
X66259783Y-64416666D02*
X66226450Y-64483333D01*
X66226450Y-64483333D02*
X66193116Y-64516666D01*
X65793116Y-64749999D02*
X65793116Y-65016666D01*
X65559783Y-64849999D02*
X66159783Y-64849999D01*
X66159783Y-64849999D02*
X66226450Y-64883333D01*
X66226450Y-64883333D02*
X66259783Y-64949999D01*
X66259783Y-64949999D02*
X66259783Y-65016666D01*
X66259783Y-65249999D02*
X65793116Y-65249999D01*
X65559783Y-65249999D02*
X65593116Y-65216666D01*
X65593116Y-65216666D02*
X65626450Y-65249999D01*
X65626450Y-65249999D02*
X65593116Y-65283333D01*
X65593116Y-65283333D02*
X65559783Y-65249999D01*
X65559783Y-65249999D02*
X65626450Y-65249999D01*
X66259783Y-65683332D02*
X66226450Y-65616666D01*
X66226450Y-65616666D02*
X66159783Y-65583332D01*
X66159783Y-65583332D02*
X65559783Y-65583332D01*
X66226450Y-66216666D02*
X66259783Y-66149999D01*
X66259783Y-66149999D02*
X66259783Y-66016666D01*
X66259783Y-66016666D02*
X66226450Y-65949999D01*
X66226450Y-65949999D02*
X66159783Y-65916666D01*
X66159783Y-65916666D02*
X65893116Y-65916666D01*
X65893116Y-65916666D02*
X65826450Y-65949999D01*
X65826450Y-65949999D02*
X65793116Y-66016666D01*
X65793116Y-66016666D02*
X65793116Y-66149999D01*
X65793116Y-66149999D02*
X65826450Y-66216666D01*
X65826450Y-66216666D02*
X65893116Y-66249999D01*
X65893116Y-66249999D02*
X65959783Y-66249999D01*
X65959783Y-66249999D02*
X66026450Y-65916666D01*
X90932783Y-46550000D02*
X90932783Y-46883333D01*
X91132783Y-46483333D02*
X90432783Y-46716667D01*
X90432783Y-46716667D02*
X91132783Y-46950000D01*
X91132783Y-47283333D02*
X91099450Y-47216667D01*
X91099450Y-47216667D02*
X91032783Y-47183333D01*
X91032783Y-47183333D02*
X90432783Y-47183333D01*
X91132783Y-47650000D02*
X91099450Y-47583334D01*
X91099450Y-47583334D02*
X91032783Y-47550000D01*
X91032783Y-47550000D02*
X90432783Y-47550000D01*
X91132783Y-48450000D02*
X90666116Y-48450000D01*
X90799450Y-48450000D02*
X90732783Y-48483334D01*
X90732783Y-48483334D02*
X90699450Y-48516667D01*
X90699450Y-48516667D02*
X90666116Y-48583334D01*
X90666116Y-48583334D02*
X90666116Y-48650000D01*
X91099450Y-49150000D02*
X91132783Y-49083333D01*
X91132783Y-49083333D02*
X91132783Y-48950000D01*
X91132783Y-48950000D02*
X91099450Y-48883333D01*
X91099450Y-48883333D02*
X91032783Y-48850000D01*
X91032783Y-48850000D02*
X90766116Y-48850000D01*
X90766116Y-48850000D02*
X90699450Y-48883333D01*
X90699450Y-48883333D02*
X90666116Y-48950000D01*
X90666116Y-48950000D02*
X90666116Y-49083333D01*
X90666116Y-49083333D02*
X90699450Y-49150000D01*
X90699450Y-49150000D02*
X90766116Y-49183333D01*
X90766116Y-49183333D02*
X90832783Y-49183333D01*
X90832783Y-49183333D02*
X90899450Y-48850000D01*
X91099450Y-49450000D02*
X91132783Y-49516667D01*
X91132783Y-49516667D02*
X91132783Y-49650000D01*
X91132783Y-49650000D02*
X91099450Y-49716667D01*
X91099450Y-49716667D02*
X91032783Y-49750000D01*
X91032783Y-49750000D02*
X90999450Y-49750000D01*
X90999450Y-49750000D02*
X90932783Y-49716667D01*
X90932783Y-49716667D02*
X90899450Y-49650000D01*
X90899450Y-49650000D02*
X90899450Y-49550000D01*
X90899450Y-49550000D02*
X90866116Y-49483333D01*
X90866116Y-49483333D02*
X90799450Y-49450000D01*
X90799450Y-49450000D02*
X90766116Y-49450000D01*
X90766116Y-49450000D02*
X90699450Y-49483333D01*
X90699450Y-49483333D02*
X90666116Y-49550000D01*
X90666116Y-49550000D02*
X90666116Y-49650000D01*
X90666116Y-49650000D02*
X90699450Y-49716667D01*
X91132783Y-50050000D02*
X90666116Y-50050000D01*
X90432783Y-50050000D02*
X90466116Y-50016667D01*
X90466116Y-50016667D02*
X90499450Y-50050000D01*
X90499450Y-50050000D02*
X90466116Y-50083334D01*
X90466116Y-50083334D02*
X90432783Y-50050000D01*
X90432783Y-50050000D02*
X90499450Y-50050000D01*
X91099450Y-50350000D02*
X91132783Y-50416667D01*
X91132783Y-50416667D02*
X91132783Y-50550000D01*
X91132783Y-50550000D02*
X91099450Y-50616667D01*
X91099450Y-50616667D02*
X91032783Y-50650000D01*
X91032783Y-50650000D02*
X90999450Y-50650000D01*
X90999450Y-50650000D02*
X90932783Y-50616667D01*
X90932783Y-50616667D02*
X90899450Y-50550000D01*
X90899450Y-50550000D02*
X90899450Y-50450000D01*
X90899450Y-50450000D02*
X90866116Y-50383333D01*
X90866116Y-50383333D02*
X90799450Y-50350000D01*
X90799450Y-50350000D02*
X90766116Y-50350000D01*
X90766116Y-50350000D02*
X90699450Y-50383333D01*
X90699450Y-50383333D02*
X90666116Y-50450000D01*
X90666116Y-50450000D02*
X90666116Y-50550000D01*
X90666116Y-50550000D02*
X90699450Y-50616667D01*
X90666116Y-50850000D02*
X90666116Y-51116667D01*
X90432783Y-50950000D02*
X91032783Y-50950000D01*
X91032783Y-50950000D02*
X91099450Y-50983334D01*
X91099450Y-50983334D02*
X91132783Y-51050000D01*
X91132783Y-51050000D02*
X91132783Y-51116667D01*
X91132783Y-51650000D02*
X90766116Y-51650000D01*
X90766116Y-51650000D02*
X90699450Y-51616667D01*
X90699450Y-51616667D02*
X90666116Y-51550000D01*
X90666116Y-51550000D02*
X90666116Y-51416667D01*
X90666116Y-51416667D02*
X90699450Y-51350000D01*
X91099450Y-51650000D02*
X91132783Y-51583334D01*
X91132783Y-51583334D02*
X91132783Y-51416667D01*
X91132783Y-51416667D02*
X91099450Y-51350000D01*
X91099450Y-51350000D02*
X91032783Y-51316667D01*
X91032783Y-51316667D02*
X90966116Y-51316667D01*
X90966116Y-51316667D02*
X90899450Y-51350000D01*
X90899450Y-51350000D02*
X90866116Y-51416667D01*
X90866116Y-51416667D02*
X90866116Y-51583334D01*
X90866116Y-51583334D02*
X90832783Y-51650000D01*
X90666116Y-51983333D02*
X91132783Y-51983333D01*
X90732783Y-51983333D02*
X90699450Y-52016667D01*
X90699450Y-52016667D02*
X90666116Y-52083333D01*
X90666116Y-52083333D02*
X90666116Y-52183333D01*
X90666116Y-52183333D02*
X90699450Y-52250000D01*
X90699450Y-52250000D02*
X90766116Y-52283333D01*
X90766116Y-52283333D02*
X91132783Y-52283333D01*
X91099450Y-52916666D02*
X91132783Y-52850000D01*
X91132783Y-52850000D02*
X91132783Y-52716666D01*
X91132783Y-52716666D02*
X91099450Y-52650000D01*
X91099450Y-52650000D02*
X91066116Y-52616666D01*
X91066116Y-52616666D02*
X90999450Y-52583333D01*
X90999450Y-52583333D02*
X90799450Y-52583333D01*
X90799450Y-52583333D02*
X90732783Y-52616666D01*
X90732783Y-52616666D02*
X90699450Y-52650000D01*
X90699450Y-52650000D02*
X90666116Y-52716666D01*
X90666116Y-52716666D02*
X90666116Y-52850000D01*
X90666116Y-52850000D02*
X90699450Y-52916666D01*
X91099450Y-53483333D02*
X91132783Y-53416666D01*
X91132783Y-53416666D02*
X91132783Y-53283333D01*
X91132783Y-53283333D02*
X91099450Y-53216666D01*
X91099450Y-53216666D02*
X91032783Y-53183333D01*
X91032783Y-53183333D02*
X90766116Y-53183333D01*
X90766116Y-53183333D02*
X90699450Y-53216666D01*
X90699450Y-53216666D02*
X90666116Y-53283333D01*
X90666116Y-53283333D02*
X90666116Y-53416666D01*
X90666116Y-53416666D02*
X90699450Y-53483333D01*
X90699450Y-53483333D02*
X90766116Y-53516666D01*
X90766116Y-53516666D02*
X90832783Y-53516666D01*
X90832783Y-53516666D02*
X90899450Y-53183333D01*
X92259783Y-48383333D02*
X91793116Y-48383333D01*
X91559783Y-48383333D02*
X91593116Y-48350000D01*
X91593116Y-48350000D02*
X91626450Y-48383333D01*
X91626450Y-48383333D02*
X91593116Y-48416667D01*
X91593116Y-48416667D02*
X91559783Y-48383333D01*
X91559783Y-48383333D02*
X91626450Y-48383333D01*
X92226450Y-48683333D02*
X92259783Y-48750000D01*
X92259783Y-48750000D02*
X92259783Y-48883333D01*
X92259783Y-48883333D02*
X92226450Y-48950000D01*
X92226450Y-48950000D02*
X92159783Y-48983333D01*
X92159783Y-48983333D02*
X92126450Y-48983333D01*
X92126450Y-48983333D02*
X92059783Y-48950000D01*
X92059783Y-48950000D02*
X92026450Y-48883333D01*
X92026450Y-48883333D02*
X92026450Y-48783333D01*
X92026450Y-48783333D02*
X91993116Y-48716666D01*
X91993116Y-48716666D02*
X91926450Y-48683333D01*
X91926450Y-48683333D02*
X91893116Y-48683333D01*
X91893116Y-48683333D02*
X91826450Y-48716666D01*
X91826450Y-48716666D02*
X91793116Y-48783333D01*
X91793116Y-48783333D02*
X91793116Y-48883333D01*
X91793116Y-48883333D02*
X91826450Y-48950000D01*
X91793116Y-49716666D02*
X91793116Y-49983333D01*
X92259783Y-49816666D02*
X91659783Y-49816666D01*
X91659783Y-49816666D02*
X91593116Y-49850000D01*
X91593116Y-49850000D02*
X91559783Y-49916666D01*
X91559783Y-49916666D02*
X91559783Y-49983333D01*
X91793116Y-50516666D02*
X92259783Y-50516666D01*
X91793116Y-50216666D02*
X92159783Y-50216666D01*
X92159783Y-50216666D02*
X92226450Y-50250000D01*
X92226450Y-50250000D02*
X92259783Y-50316666D01*
X92259783Y-50316666D02*
X92259783Y-50416666D01*
X92259783Y-50416666D02*
X92226450Y-50483333D01*
X92226450Y-50483333D02*
X92193116Y-50516666D01*
X91793116Y-50749999D02*
X91793116Y-51016666D01*
X91559783Y-50849999D02*
X92159783Y-50849999D01*
X92159783Y-50849999D02*
X92226450Y-50883333D01*
X92226450Y-50883333D02*
X92259783Y-50949999D01*
X92259783Y-50949999D02*
X92259783Y-51016666D01*
X92259783Y-51249999D02*
X91793116Y-51249999D01*
X91559783Y-51249999D02*
X91593116Y-51216666D01*
X91593116Y-51216666D02*
X91626450Y-51249999D01*
X91626450Y-51249999D02*
X91593116Y-51283333D01*
X91593116Y-51283333D02*
X91559783Y-51249999D01*
X91559783Y-51249999D02*
X91626450Y-51249999D01*
X92259783Y-51683332D02*
X92226450Y-51616666D01*
X92226450Y-51616666D02*
X92159783Y-51583332D01*
X92159783Y-51583332D02*
X91559783Y-51583332D01*
X92226450Y-52216666D02*
X92259783Y-52149999D01*
X92259783Y-52149999D02*
X92259783Y-52016666D01*
X92259783Y-52016666D02*
X92226450Y-51949999D01*
X92226450Y-51949999D02*
X92159783Y-51916666D01*
X92159783Y-51916666D02*
X91893116Y-51916666D01*
X91893116Y-51916666D02*
X91826450Y-51949999D01*
X91826450Y-51949999D02*
X91793116Y-52016666D01*
X91793116Y-52016666D02*
X91793116Y-52149999D01*
X91793116Y-52149999D02*
X91826450Y-52216666D01*
X91826450Y-52216666D02*
X91893116Y-52249999D01*
X91893116Y-52249999D02*
X91959783Y-52249999D01*
X91959783Y-52249999D02*
X92026450Y-51916666D01*
X77932783Y-46550000D02*
X77932783Y-46883333D01*
X78132783Y-46483333D02*
X77432783Y-46716667D01*
X77432783Y-46716667D02*
X78132783Y-46950000D01*
X78132783Y-47283333D02*
X78099450Y-47216667D01*
X78099450Y-47216667D02*
X78032783Y-47183333D01*
X78032783Y-47183333D02*
X77432783Y-47183333D01*
X78132783Y-47650000D02*
X78099450Y-47583334D01*
X78099450Y-47583334D02*
X78032783Y-47550000D01*
X78032783Y-47550000D02*
X77432783Y-47550000D01*
X78132783Y-48450000D02*
X77666116Y-48450000D01*
X77799450Y-48450000D02*
X77732783Y-48483334D01*
X77732783Y-48483334D02*
X77699450Y-48516667D01*
X77699450Y-48516667D02*
X77666116Y-48583334D01*
X77666116Y-48583334D02*
X77666116Y-48650000D01*
X78099450Y-49150000D02*
X78132783Y-49083333D01*
X78132783Y-49083333D02*
X78132783Y-48950000D01*
X78132783Y-48950000D02*
X78099450Y-48883333D01*
X78099450Y-48883333D02*
X78032783Y-48850000D01*
X78032783Y-48850000D02*
X77766116Y-48850000D01*
X77766116Y-48850000D02*
X77699450Y-48883333D01*
X77699450Y-48883333D02*
X77666116Y-48950000D01*
X77666116Y-48950000D02*
X77666116Y-49083333D01*
X77666116Y-49083333D02*
X77699450Y-49150000D01*
X77699450Y-49150000D02*
X77766116Y-49183333D01*
X77766116Y-49183333D02*
X77832783Y-49183333D01*
X77832783Y-49183333D02*
X77899450Y-48850000D01*
X78099450Y-49450000D02*
X78132783Y-49516667D01*
X78132783Y-49516667D02*
X78132783Y-49650000D01*
X78132783Y-49650000D02*
X78099450Y-49716667D01*
X78099450Y-49716667D02*
X78032783Y-49750000D01*
X78032783Y-49750000D02*
X77999450Y-49750000D01*
X77999450Y-49750000D02*
X77932783Y-49716667D01*
X77932783Y-49716667D02*
X77899450Y-49650000D01*
X77899450Y-49650000D02*
X77899450Y-49550000D01*
X77899450Y-49550000D02*
X77866116Y-49483333D01*
X77866116Y-49483333D02*
X77799450Y-49450000D01*
X77799450Y-49450000D02*
X77766116Y-49450000D01*
X77766116Y-49450000D02*
X77699450Y-49483333D01*
X77699450Y-49483333D02*
X77666116Y-49550000D01*
X77666116Y-49550000D02*
X77666116Y-49650000D01*
X77666116Y-49650000D02*
X77699450Y-49716667D01*
X78132783Y-50050000D02*
X77666116Y-50050000D01*
X77432783Y-50050000D02*
X77466116Y-50016667D01*
X77466116Y-50016667D02*
X77499450Y-50050000D01*
X77499450Y-50050000D02*
X77466116Y-50083334D01*
X77466116Y-50083334D02*
X77432783Y-50050000D01*
X77432783Y-50050000D02*
X77499450Y-50050000D01*
X78099450Y-50350000D02*
X78132783Y-50416667D01*
X78132783Y-50416667D02*
X78132783Y-50550000D01*
X78132783Y-50550000D02*
X78099450Y-50616667D01*
X78099450Y-50616667D02*
X78032783Y-50650000D01*
X78032783Y-50650000D02*
X77999450Y-50650000D01*
X77999450Y-50650000D02*
X77932783Y-50616667D01*
X77932783Y-50616667D02*
X77899450Y-50550000D01*
X77899450Y-50550000D02*
X77899450Y-50450000D01*
X77899450Y-50450000D02*
X77866116Y-50383333D01*
X77866116Y-50383333D02*
X77799450Y-50350000D01*
X77799450Y-50350000D02*
X77766116Y-50350000D01*
X77766116Y-50350000D02*
X77699450Y-50383333D01*
X77699450Y-50383333D02*
X77666116Y-50450000D01*
X77666116Y-50450000D02*
X77666116Y-50550000D01*
X77666116Y-50550000D02*
X77699450Y-50616667D01*
X77666116Y-50850000D02*
X77666116Y-51116667D01*
X77432783Y-50950000D02*
X78032783Y-50950000D01*
X78032783Y-50950000D02*
X78099450Y-50983334D01*
X78099450Y-50983334D02*
X78132783Y-51050000D01*
X78132783Y-51050000D02*
X78132783Y-51116667D01*
X78132783Y-51650000D02*
X77766116Y-51650000D01*
X77766116Y-51650000D02*
X77699450Y-51616667D01*
X77699450Y-51616667D02*
X77666116Y-51550000D01*
X77666116Y-51550000D02*
X77666116Y-51416667D01*
X77666116Y-51416667D02*
X77699450Y-51350000D01*
X78099450Y-51650000D02*
X78132783Y-51583334D01*
X78132783Y-51583334D02*
X78132783Y-51416667D01*
X78132783Y-51416667D02*
X78099450Y-51350000D01*
X78099450Y-51350000D02*
X78032783Y-51316667D01*
X78032783Y-51316667D02*
X77966116Y-51316667D01*
X77966116Y-51316667D02*
X77899450Y-51350000D01*
X77899450Y-51350000D02*
X77866116Y-51416667D01*
X77866116Y-51416667D02*
X77866116Y-51583334D01*
X77866116Y-51583334D02*
X77832783Y-51650000D01*
X77666116Y-51983333D02*
X78132783Y-51983333D01*
X77732783Y-51983333D02*
X77699450Y-52016667D01*
X77699450Y-52016667D02*
X77666116Y-52083333D01*
X77666116Y-52083333D02*
X77666116Y-52183333D01*
X77666116Y-52183333D02*
X77699450Y-52250000D01*
X77699450Y-52250000D02*
X77766116Y-52283333D01*
X77766116Y-52283333D02*
X78132783Y-52283333D01*
X78099450Y-52916666D02*
X78132783Y-52850000D01*
X78132783Y-52850000D02*
X78132783Y-52716666D01*
X78132783Y-52716666D02*
X78099450Y-52650000D01*
X78099450Y-52650000D02*
X78066116Y-52616666D01*
X78066116Y-52616666D02*
X77999450Y-52583333D01*
X77999450Y-52583333D02*
X77799450Y-52583333D01*
X77799450Y-52583333D02*
X77732783Y-52616666D01*
X77732783Y-52616666D02*
X77699450Y-52650000D01*
X77699450Y-52650000D02*
X77666116Y-52716666D01*
X77666116Y-52716666D02*
X77666116Y-52850000D01*
X77666116Y-52850000D02*
X77699450Y-52916666D01*
X78099450Y-53483333D02*
X78132783Y-53416666D01*
X78132783Y-53416666D02*
X78132783Y-53283333D01*
X78132783Y-53283333D02*
X78099450Y-53216666D01*
X78099450Y-53216666D02*
X78032783Y-53183333D01*
X78032783Y-53183333D02*
X77766116Y-53183333D01*
X77766116Y-53183333D02*
X77699450Y-53216666D01*
X77699450Y-53216666D02*
X77666116Y-53283333D01*
X77666116Y-53283333D02*
X77666116Y-53416666D01*
X77666116Y-53416666D02*
X77699450Y-53483333D01*
X77699450Y-53483333D02*
X77766116Y-53516666D01*
X77766116Y-53516666D02*
X77832783Y-53516666D01*
X77832783Y-53516666D02*
X77899450Y-53183333D01*
X79259783Y-48383333D02*
X78793116Y-48383333D01*
X78559783Y-48383333D02*
X78593116Y-48350000D01*
X78593116Y-48350000D02*
X78626450Y-48383333D01*
X78626450Y-48383333D02*
X78593116Y-48416667D01*
X78593116Y-48416667D02*
X78559783Y-48383333D01*
X78559783Y-48383333D02*
X78626450Y-48383333D01*
X79226450Y-48683333D02*
X79259783Y-48750000D01*
X79259783Y-48750000D02*
X79259783Y-48883333D01*
X79259783Y-48883333D02*
X79226450Y-48950000D01*
X79226450Y-48950000D02*
X79159783Y-48983333D01*
X79159783Y-48983333D02*
X79126450Y-48983333D01*
X79126450Y-48983333D02*
X79059783Y-48950000D01*
X79059783Y-48950000D02*
X79026450Y-48883333D01*
X79026450Y-48883333D02*
X79026450Y-48783333D01*
X79026450Y-48783333D02*
X78993116Y-48716666D01*
X78993116Y-48716666D02*
X78926450Y-48683333D01*
X78926450Y-48683333D02*
X78893116Y-48683333D01*
X78893116Y-48683333D02*
X78826450Y-48716666D01*
X78826450Y-48716666D02*
X78793116Y-48783333D01*
X78793116Y-48783333D02*
X78793116Y-48883333D01*
X78793116Y-48883333D02*
X78826450Y-48950000D01*
X78793116Y-49716666D02*
X78793116Y-49983333D01*
X79259783Y-49816666D02*
X78659783Y-49816666D01*
X78659783Y-49816666D02*
X78593116Y-49850000D01*
X78593116Y-49850000D02*
X78559783Y-49916666D01*
X78559783Y-49916666D02*
X78559783Y-49983333D01*
X78793116Y-50516666D02*
X79259783Y-50516666D01*
X78793116Y-50216666D02*
X79159783Y-50216666D01*
X79159783Y-50216666D02*
X79226450Y-50250000D01*
X79226450Y-50250000D02*
X79259783Y-50316666D01*
X79259783Y-50316666D02*
X79259783Y-50416666D01*
X79259783Y-50416666D02*
X79226450Y-50483333D01*
X79226450Y-50483333D02*
X79193116Y-50516666D01*
X78793116Y-50749999D02*
X78793116Y-51016666D01*
X78559783Y-50849999D02*
X79159783Y-50849999D01*
X79159783Y-50849999D02*
X79226450Y-50883333D01*
X79226450Y-50883333D02*
X79259783Y-50949999D01*
X79259783Y-50949999D02*
X79259783Y-51016666D01*
X79259783Y-51249999D02*
X78793116Y-51249999D01*
X78559783Y-51249999D02*
X78593116Y-51216666D01*
X78593116Y-51216666D02*
X78626450Y-51249999D01*
X78626450Y-51249999D02*
X78593116Y-51283333D01*
X78593116Y-51283333D02*
X78559783Y-51249999D01*
X78559783Y-51249999D02*
X78626450Y-51249999D01*
X79259783Y-51683332D02*
X79226450Y-51616666D01*
X79226450Y-51616666D02*
X79159783Y-51583332D01*
X79159783Y-51583332D02*
X78559783Y-51583332D01*
X79226450Y-52216666D02*
X79259783Y-52149999D01*
X79259783Y-52149999D02*
X79259783Y-52016666D01*
X79259783Y-52016666D02*
X79226450Y-51949999D01*
X79226450Y-51949999D02*
X79159783Y-51916666D01*
X79159783Y-51916666D02*
X78893116Y-51916666D01*
X78893116Y-51916666D02*
X78826450Y-51949999D01*
X78826450Y-51949999D02*
X78793116Y-52016666D01*
X78793116Y-52016666D02*
X78793116Y-52149999D01*
X78793116Y-52149999D02*
X78826450Y-52216666D01*
X78826450Y-52216666D02*
X78893116Y-52249999D01*
X78893116Y-52249999D02*
X78959783Y-52249999D01*
X78959783Y-52249999D02*
X79026450Y-51916666D01*
X64932783Y-46550000D02*
X64932783Y-46883333D01*
X65132783Y-46483333D02*
X64432783Y-46716667D01*
X64432783Y-46716667D02*
X65132783Y-46950000D01*
X65132783Y-47283333D02*
X65099450Y-47216667D01*
X65099450Y-47216667D02*
X65032783Y-47183333D01*
X65032783Y-47183333D02*
X64432783Y-47183333D01*
X65132783Y-47650000D02*
X65099450Y-47583334D01*
X65099450Y-47583334D02*
X65032783Y-47550000D01*
X65032783Y-47550000D02*
X64432783Y-47550000D01*
X65132783Y-48450000D02*
X64666116Y-48450000D01*
X64799450Y-48450000D02*
X64732783Y-48483334D01*
X64732783Y-48483334D02*
X64699450Y-48516667D01*
X64699450Y-48516667D02*
X64666116Y-48583334D01*
X64666116Y-48583334D02*
X64666116Y-48650000D01*
X65099450Y-49150000D02*
X65132783Y-49083333D01*
X65132783Y-49083333D02*
X65132783Y-48950000D01*
X65132783Y-48950000D02*
X65099450Y-48883333D01*
X65099450Y-48883333D02*
X65032783Y-48850000D01*
X65032783Y-48850000D02*
X64766116Y-48850000D01*
X64766116Y-48850000D02*
X64699450Y-48883333D01*
X64699450Y-48883333D02*
X64666116Y-48950000D01*
X64666116Y-48950000D02*
X64666116Y-49083333D01*
X64666116Y-49083333D02*
X64699450Y-49150000D01*
X64699450Y-49150000D02*
X64766116Y-49183333D01*
X64766116Y-49183333D02*
X64832783Y-49183333D01*
X64832783Y-49183333D02*
X64899450Y-48850000D01*
X65099450Y-49450000D02*
X65132783Y-49516667D01*
X65132783Y-49516667D02*
X65132783Y-49650000D01*
X65132783Y-49650000D02*
X65099450Y-49716667D01*
X65099450Y-49716667D02*
X65032783Y-49750000D01*
X65032783Y-49750000D02*
X64999450Y-49750000D01*
X64999450Y-49750000D02*
X64932783Y-49716667D01*
X64932783Y-49716667D02*
X64899450Y-49650000D01*
X64899450Y-49650000D02*
X64899450Y-49550000D01*
X64899450Y-49550000D02*
X64866116Y-49483333D01*
X64866116Y-49483333D02*
X64799450Y-49450000D01*
X64799450Y-49450000D02*
X64766116Y-49450000D01*
X64766116Y-49450000D02*
X64699450Y-49483333D01*
X64699450Y-49483333D02*
X64666116Y-49550000D01*
X64666116Y-49550000D02*
X64666116Y-49650000D01*
X64666116Y-49650000D02*
X64699450Y-49716667D01*
X65132783Y-50050000D02*
X64666116Y-50050000D01*
X64432783Y-50050000D02*
X64466116Y-50016667D01*
X64466116Y-50016667D02*
X64499450Y-50050000D01*
X64499450Y-50050000D02*
X64466116Y-50083334D01*
X64466116Y-50083334D02*
X64432783Y-50050000D01*
X64432783Y-50050000D02*
X64499450Y-50050000D01*
X65099450Y-50350000D02*
X65132783Y-50416667D01*
X65132783Y-50416667D02*
X65132783Y-50550000D01*
X65132783Y-50550000D02*
X65099450Y-50616667D01*
X65099450Y-50616667D02*
X65032783Y-50650000D01*
X65032783Y-50650000D02*
X64999450Y-50650000D01*
X64999450Y-50650000D02*
X64932783Y-50616667D01*
X64932783Y-50616667D02*
X64899450Y-50550000D01*
X64899450Y-50550000D02*
X64899450Y-50450000D01*
X64899450Y-50450000D02*
X64866116Y-50383333D01*
X64866116Y-50383333D02*
X64799450Y-50350000D01*
X64799450Y-50350000D02*
X64766116Y-50350000D01*
X64766116Y-50350000D02*
X64699450Y-50383333D01*
X64699450Y-50383333D02*
X64666116Y-50450000D01*
X64666116Y-50450000D02*
X64666116Y-50550000D01*
X64666116Y-50550000D02*
X64699450Y-50616667D01*
X64666116Y-50850000D02*
X64666116Y-51116667D01*
X64432783Y-50950000D02*
X65032783Y-50950000D01*
X65032783Y-50950000D02*
X65099450Y-50983334D01*
X65099450Y-50983334D02*
X65132783Y-51050000D01*
X65132783Y-51050000D02*
X65132783Y-51116667D01*
X65132783Y-51650000D02*
X64766116Y-51650000D01*
X64766116Y-51650000D02*
X64699450Y-51616667D01*
X64699450Y-51616667D02*
X64666116Y-51550000D01*
X64666116Y-51550000D02*
X64666116Y-51416667D01*
X64666116Y-51416667D02*
X64699450Y-51350000D01*
X65099450Y-51650000D02*
X65132783Y-51583334D01*
X65132783Y-51583334D02*
X65132783Y-51416667D01*
X65132783Y-51416667D02*
X65099450Y-51350000D01*
X65099450Y-51350000D02*
X65032783Y-51316667D01*
X65032783Y-51316667D02*
X64966116Y-51316667D01*
X64966116Y-51316667D02*
X64899450Y-51350000D01*
X64899450Y-51350000D02*
X64866116Y-51416667D01*
X64866116Y-51416667D02*
X64866116Y-51583334D01*
X64866116Y-51583334D02*
X64832783Y-51650000D01*
X64666116Y-51983333D02*
X65132783Y-51983333D01*
X64732783Y-51983333D02*
X64699450Y-52016667D01*
X64699450Y-52016667D02*
X64666116Y-52083333D01*
X64666116Y-52083333D02*
X64666116Y-52183333D01*
X64666116Y-52183333D02*
X64699450Y-52250000D01*
X64699450Y-52250000D02*
X64766116Y-52283333D01*
X64766116Y-52283333D02*
X65132783Y-52283333D01*
X65099450Y-52916666D02*
X65132783Y-52850000D01*
X65132783Y-52850000D02*
X65132783Y-52716666D01*
X65132783Y-52716666D02*
X65099450Y-52650000D01*
X65099450Y-52650000D02*
X65066116Y-52616666D01*
X65066116Y-52616666D02*
X64999450Y-52583333D01*
X64999450Y-52583333D02*
X64799450Y-52583333D01*
X64799450Y-52583333D02*
X64732783Y-52616666D01*
X64732783Y-52616666D02*
X64699450Y-52650000D01*
X64699450Y-52650000D02*
X64666116Y-52716666D01*
X64666116Y-52716666D02*
X64666116Y-52850000D01*
X64666116Y-52850000D02*
X64699450Y-52916666D01*
X65099450Y-53483333D02*
X65132783Y-53416666D01*
X65132783Y-53416666D02*
X65132783Y-53283333D01*
X65132783Y-53283333D02*
X65099450Y-53216666D01*
X65099450Y-53216666D02*
X65032783Y-53183333D01*
X65032783Y-53183333D02*
X64766116Y-53183333D01*
X64766116Y-53183333D02*
X64699450Y-53216666D01*
X64699450Y-53216666D02*
X64666116Y-53283333D01*
X64666116Y-53283333D02*
X64666116Y-53416666D01*
X64666116Y-53416666D02*
X64699450Y-53483333D01*
X64699450Y-53483333D02*
X64766116Y-53516666D01*
X64766116Y-53516666D02*
X64832783Y-53516666D01*
X64832783Y-53516666D02*
X64899450Y-53183333D01*
X66259783Y-48383333D02*
X65793116Y-48383333D01*
X65559783Y-48383333D02*
X65593116Y-48350000D01*
X65593116Y-48350000D02*
X65626450Y-48383333D01*
X65626450Y-48383333D02*
X65593116Y-48416667D01*
X65593116Y-48416667D02*
X65559783Y-48383333D01*
X65559783Y-48383333D02*
X65626450Y-48383333D01*
X66226450Y-48683333D02*
X66259783Y-48750000D01*
X66259783Y-48750000D02*
X66259783Y-48883333D01*
X66259783Y-48883333D02*
X66226450Y-48950000D01*
X66226450Y-48950000D02*
X66159783Y-48983333D01*
X66159783Y-48983333D02*
X66126450Y-48983333D01*
X66126450Y-48983333D02*
X66059783Y-48950000D01*
X66059783Y-48950000D02*
X66026450Y-48883333D01*
X66026450Y-48883333D02*
X66026450Y-48783333D01*
X66026450Y-48783333D02*
X65993116Y-48716666D01*
X65993116Y-48716666D02*
X65926450Y-48683333D01*
X65926450Y-48683333D02*
X65893116Y-48683333D01*
X65893116Y-48683333D02*
X65826450Y-48716666D01*
X65826450Y-48716666D02*
X65793116Y-48783333D01*
X65793116Y-48783333D02*
X65793116Y-48883333D01*
X65793116Y-48883333D02*
X65826450Y-48950000D01*
X65793116Y-49716666D02*
X65793116Y-49983333D01*
X66259783Y-49816666D02*
X65659783Y-49816666D01*
X65659783Y-49816666D02*
X65593116Y-49850000D01*
X65593116Y-49850000D02*
X65559783Y-49916666D01*
X65559783Y-49916666D02*
X65559783Y-49983333D01*
X65793116Y-50516666D02*
X66259783Y-50516666D01*
X65793116Y-50216666D02*
X66159783Y-50216666D01*
X66159783Y-50216666D02*
X66226450Y-50250000D01*
X66226450Y-50250000D02*
X66259783Y-50316666D01*
X66259783Y-50316666D02*
X66259783Y-50416666D01*
X66259783Y-50416666D02*
X66226450Y-50483333D01*
X66226450Y-50483333D02*
X66193116Y-50516666D01*
X65793116Y-50749999D02*
X65793116Y-51016666D01*
X65559783Y-50849999D02*
X66159783Y-50849999D01*
X66159783Y-50849999D02*
X66226450Y-50883333D01*
X66226450Y-50883333D02*
X66259783Y-50949999D01*
X66259783Y-50949999D02*
X66259783Y-51016666D01*
X66259783Y-51249999D02*
X65793116Y-51249999D01*
X65559783Y-51249999D02*
X65593116Y-51216666D01*
X65593116Y-51216666D02*
X65626450Y-51249999D01*
X65626450Y-51249999D02*
X65593116Y-51283333D01*
X65593116Y-51283333D02*
X65559783Y-51249999D01*
X65559783Y-51249999D02*
X65626450Y-51249999D01*
X66259783Y-51683332D02*
X66226450Y-51616666D01*
X66226450Y-51616666D02*
X66159783Y-51583332D01*
X66159783Y-51583332D02*
X65559783Y-51583332D01*
X66226450Y-52216666D02*
X66259783Y-52149999D01*
X66259783Y-52149999D02*
X66259783Y-52016666D01*
X66259783Y-52016666D02*
X66226450Y-51949999D01*
X66226450Y-51949999D02*
X66159783Y-51916666D01*
X66159783Y-51916666D02*
X65893116Y-51916666D01*
X65893116Y-51916666D02*
X65826450Y-51949999D01*
X65826450Y-51949999D02*
X65793116Y-52016666D01*
X65793116Y-52016666D02*
X65793116Y-52149999D01*
X65793116Y-52149999D02*
X65826450Y-52216666D01*
X65826450Y-52216666D02*
X65893116Y-52249999D01*
X65893116Y-52249999D02*
X65959783Y-52249999D01*
X65959783Y-52249999D02*
X66026450Y-51916666D01*
%LPC*%
D11*
X88700000Y-69570000D03*
X88700000Y-72110000D03*
X88700000Y-73380000D03*
X88700000Y-74650000D03*
X88700000Y-75920000D03*
X88700000Y-77190000D03*
X88700000Y-78460000D03*
X88700000Y-79730000D03*
X88700000Y-81000000D03*
X98000000Y-69570000D03*
X98000000Y-70840000D03*
X98000000Y-72110000D03*
X98000000Y-73380000D03*
X98000000Y-74650000D03*
X98000000Y-75920000D03*
X98000000Y-77190000D03*
X98000000Y-78460000D03*
X98000000Y-79730000D03*
X98000000Y-81000000D03*
X88700000Y-70840000D03*
X75700000Y-69570000D03*
X75700000Y-72110000D03*
X75700000Y-73380000D03*
X75700000Y-74650000D03*
X75700000Y-75920000D03*
X75700000Y-77190000D03*
X75700000Y-78460000D03*
X75700000Y-79730000D03*
X75700000Y-81000000D03*
X85000000Y-69570000D03*
X85000000Y-70840000D03*
X85000000Y-72110000D03*
X85000000Y-73380000D03*
X85000000Y-74650000D03*
X85000000Y-75920000D03*
X85000000Y-77190000D03*
X85000000Y-78460000D03*
X85000000Y-79730000D03*
X85000000Y-81000000D03*
X75700000Y-70840000D03*
X88700000Y-55570000D03*
X88700000Y-58110000D03*
X88700000Y-59380000D03*
X88700000Y-60650000D03*
X88700000Y-61920000D03*
X88700000Y-63190000D03*
X88700000Y-64460000D03*
X88700000Y-65730000D03*
X88700000Y-67000000D03*
X98000000Y-55570000D03*
X98000000Y-56840000D03*
X98000000Y-58110000D03*
X98000000Y-59380000D03*
X98000000Y-60650000D03*
X98000000Y-61920000D03*
X98000000Y-63190000D03*
X98000000Y-64460000D03*
X98000000Y-65730000D03*
X98000000Y-67000000D03*
X88700000Y-56840000D03*
X75700000Y-55570000D03*
X75700000Y-58110000D03*
X75700000Y-59380000D03*
X75700000Y-60650000D03*
X75700000Y-61920000D03*
X75700000Y-63190000D03*
X75700000Y-64460000D03*
X75700000Y-65730000D03*
X75700000Y-67000000D03*
X85000000Y-55570000D03*
X85000000Y-56840000D03*
X85000000Y-58110000D03*
X85000000Y-59380000D03*
X85000000Y-60650000D03*
X85000000Y-61920000D03*
X85000000Y-63190000D03*
X85000000Y-64460000D03*
X85000000Y-65730000D03*
X85000000Y-67000000D03*
X75700000Y-56840000D03*
X62700000Y-69570000D03*
X62700000Y-72110000D03*
X62700000Y-73380000D03*
X62700000Y-74650000D03*
X62700000Y-75920000D03*
X62700000Y-77190000D03*
X62700000Y-78460000D03*
X62700000Y-79730000D03*
X62700000Y-81000000D03*
X72000000Y-69570000D03*
X72000000Y-70840000D03*
X72000000Y-72110000D03*
X72000000Y-73380000D03*
X72000000Y-74650000D03*
X72000000Y-75920000D03*
X72000000Y-77190000D03*
X72000000Y-78460000D03*
X72000000Y-79730000D03*
X72000000Y-81000000D03*
X62700000Y-70840000D03*
X62700000Y-55570000D03*
X62700000Y-58110000D03*
X62700000Y-59380000D03*
X62700000Y-60650000D03*
X62700000Y-61920000D03*
X62700000Y-63190000D03*
X62700000Y-64460000D03*
X62700000Y-65730000D03*
X62700000Y-67000000D03*
X72000000Y-55570000D03*
X72000000Y-56840000D03*
X72000000Y-58110000D03*
X72000000Y-59380000D03*
X72000000Y-60650000D03*
X72000000Y-61920000D03*
X72000000Y-63190000D03*
X72000000Y-64460000D03*
X72000000Y-65730000D03*
X72000000Y-67000000D03*
X62700000Y-56840000D03*
X88700000Y-41570000D03*
X88700000Y-44110000D03*
X88700000Y-45380000D03*
X88700000Y-46650000D03*
X88700000Y-47920000D03*
X88700000Y-49190000D03*
X88700000Y-50460000D03*
X88700000Y-51730000D03*
X88700000Y-53000000D03*
X98000000Y-41570000D03*
X98000000Y-42840000D03*
X98000000Y-44110000D03*
X98000000Y-45380000D03*
X98000000Y-46650000D03*
X98000000Y-47920000D03*
X98000000Y-49190000D03*
X98000000Y-50460000D03*
X98000000Y-51730000D03*
X98000000Y-53000000D03*
X88700000Y-42840000D03*
X75700000Y-41570000D03*
X75700000Y-44110000D03*
X75700000Y-45380000D03*
X75700000Y-46650000D03*
X75700000Y-47920000D03*
X75700000Y-49190000D03*
X75700000Y-50460000D03*
X75700000Y-51730000D03*
X75700000Y-53000000D03*
X85000000Y-41570000D03*
X85000000Y-42840000D03*
X85000000Y-44110000D03*
X85000000Y-45380000D03*
X85000000Y-46650000D03*
X85000000Y-47920000D03*
X85000000Y-49190000D03*
X85000000Y-50460000D03*
X85000000Y-51730000D03*
X85000000Y-53000000D03*
X75700000Y-42840000D03*
X62700000Y-41570000D03*
X62700000Y-44110000D03*
X62700000Y-45380000D03*
X62700000Y-46650000D03*
X62700000Y-47920000D03*
X62700000Y-49190000D03*
X62700000Y-50460000D03*
X62700000Y-51730000D03*
X62700000Y-53000000D03*
X72000000Y-41570000D03*
X72000000Y-42840000D03*
X72000000Y-44110000D03*
X72000000Y-45380000D03*
X72000000Y-46650000D03*
X72000000Y-47920000D03*
X72000000Y-49190000D03*
X72000000Y-50460000D03*
X72000000Y-51730000D03*
X72000000Y-53000000D03*
X62700000Y-42840000D03*
%LPD*%
M02*
